<?xml version="1.0" encoding="UTF-8"?>
<svg id="Layer_5" data-name="Layer 5" xmlns="http://www.w3.org/2000/svg" viewBox="0 0 344 129">
  <defs>
    <style>
      .cls-1 {
        fill: #fff;
      }

      .cls-2 {
        fill: #4c263a;
      }

      .cls-3 {
        fill: #774060;
      }
    </style>
  </defs>
  <rect class="cls-2" x="13.74" y="4.72" width="310.84" height="116" rx="58" ry="58"/>
  <rect class="cls-3" x="22.78" y="15.59" width="290.93" height="94.25" rx="47.12" ry="47.12"/>
  <path class="cls-1" d="M160.19,77.7c-6.16-12.52-3.42-20.12-10.76-35.85-.75-1.62-2.06-4.27-4.78-5.38-4.61-1.88-10.15,1.96-10.76,2.39-2.01,1.43-3.16,3-3.59,3.59-5.62,7.8-5.69,13.63-10.76,23.3-2.46,4.69-3.63,8.11-5.98,14.94-.28,.8-.9,2.71,0,4.18,.53,.86,1.37,1.25,2.99,1.79,6.83,2.28,9.47,1.23,11.95,2.99,.29,.21,1,.75,1.79,.6,.77-.14,1.27-.87,1.79-1.79,1.07-1.89,1.58-3.52,1.79-4.18,1.54-4.83,1.94-5.2,2.39-5.38,.43-.16,.49,0,3.59,.6,1.87,.36,2.07,.34,2.39,.6,1.1,.91,.53,2.71,.6,4.78,.09,2.63,1.19,6.32,3.59,7.77,2.37,1.44,5,.69,9.56-.6,3.88-1.1,6.15-1.74,7.17-3.59,1.59-2.88-.96-6.63-2.99-10.76Zm-16.99-14.95c-.28,1.25-1.63,2.22-2.88,2.19-.9-.02-1.83-.13-2.68-.44-1.48-.54-2.59-2.04-2.09-3.68,.31-1.01,.77-1.97,1.19-2.93,.11-.25,.26-.46,.43-.64,.43-1.13,1.59-1.9,2.81-1.95,1.65-.07,2.93,1.43,2.99,2.99,0,.09,0,.16,0,.2,.01,.08,.03,.15,.04,.23,.07,.33,.14,.65,.2,.98,.19,1.08,.21,1.98-.03,3.05Z"/>
  <path class="cls-1" d="M109.45,71.54c-2.41-5.18-7.81-7.43-6.75-10.8,.47-1.48,1.95-1.39,4.05-4.05,0,0,1.86-2.36,2.7-5.4,1.54-5.62-1.47-11.62-5.4-14.84-2.88-2.37-7.57-2.56-16.96-2.95-7.51-.31-11.46,0-14.22,2.84-.97,1.01-2.35,2.94-2.84,9.95-.65,9.34,1.49,10.25,1.63,19.84,.1,6.31-.76,10.68,.27,19.87,.34,3.02,.56,3.69,.95,4.37,4.64,8.1,28.53,8.93,35.55-2.84,2.44-4.09,3.46-10.75,1.03-16Zm-13.02,4.51c-2.41,3.34-7.01,5.63-10.9,3.15-1.8-1.15-2.76-3.28-2.2-5.4,.7-2.63,2.61-4.45,4.97-5.28,.19-.17,.48-.41,.87-.63,2.3-1.32,4.88-.32,5.03-.26,.37,.15,2.5,1.02,3.25,3.22,.81,2.41-.62,4.64-1.03,5.2Zm-.32-25.46c-.6,1.27-1.76,2.3-3.11,2.75-.95,.31-1.89,.6-2.88,.76-1.74,.27-3.34,.08-4.65-1.23-1.32-1.32-1.48-2.9-1.23-4.65,.28-1.95,1.94-3.77,3.64-4.65,1.58-.82,3.27-1.25,5.06-1.28,2.68-.05,4.66,2.23,4.78,4.78,.06,1.4-.6,2.65-1.61,3.52Z"/>
  <path class="cls-1" d="M203.03,40.13c-1.23-1.08-9.91-8.66-21.16-6.04-11.32,2.63-15.91,13.42-16.62,15.11-5.79,13.64,.29,32.05,13.6,39.29,8.61,4.68,21.97,5.64,28.71-1.51,4.37-4.64,6.37-13.12,3.02-16.62-3.04-3.18-9.94-1.66-10.58-1.51-4.28,.99-4.65,2.99-7.56,3.02-4.54,.05-9.87-4.76-10.58-10.58-.47-3.85,.99-8.81,4.53-10.58,2.4-1.2,5.06-.58,7.56,0,5.3,1.23,6.4,3.7,9.07,3.02,2.47-.62,4.37-3.44,4.53-6.04,.21-3.34-2.46-5.74-4.53-7.56Z"/>
  <path class="cls-1" d="M218.14,37.11c-4.47,5.59,3.84,11.98,3.02,27.2-.7,13.01-7.38,19.78-3.02,25.69,1.31,1.78,3.99,3.99,7.56,4.53,.74,.11,4.5,.69,7.56-1.51,4.15-2.99,4.38-9.2,4.53-13.6,.21-5.81-1.15-8.41,0-9.07,1.93-1.1,8.05,4.96,12.09,10.58,4.41,6.13,4.11,8.64,7.56,10.58,4.31,2.43,11.15,2.09,13.6-1.51,3.15-4.63-2.33-12.6-3.02-13.6-2.8-4.07-4.81-3.92-10.58-10.58-3.74-4.31-4.35-6.04-4.53-7.56-.53-4.29,2.18-7.93,3.02-9.07,3.66-4.91,7.7-4.66,9.07-9.07,.2-.65,.81-2.62,0-4.53-1.94-4.57-10.95-6.29-16.62-3.02-2.94,1.69-4.35,4.36-6.04,7.56-3.66,6.91-3.31,12.07-4.53,12.09-1.25,.02-2.97-5.35-3.02-10.58-.04-3.79,.83-4.76,0-6.04-2.19-3.38-12.67-3.43-16.62,1.51Z"/>
</svg>