<?xml version="1.0" encoding="UTF-8"?>
<svg id="Layer_5" data-name="Layer 5" xmlns="http://www.w3.org/2000/svg" viewBox="0 0 1600 900">
  <defs>
    <style>
      .cls-1 {
        fill: #f7c4db;
      }

      .cls-2 {
        fill: #020202;
      }

      .cls-3 {
        fill: #ef9cd1;
      }

      .cls-4 {
        fill: #fff;
      }

      .cls-5 {
        fill: #666;
      }

      .cls-6 {
        fill: #1c181a;
      }

      .cls-7 {
        fill: #562142;
      }

      .cls-8 {
        fill: #7c375e;
      }
    </style>
  </defs>
  <g>
    <rect class="cls-1" x="-.75" y=".8" width="1602" height="898"/>
    <rect class="cls-3" x="220.25" y="124.02" width="1158" height="649.12" rx="114.35" ry="114.35"/>
  </g>
  <g>
    <ellipse cx="241.99" cy="650.4" rx="85.78" ry="86.77" transform="translate(-186.18 104.28) rotate(-17.69)"/>
    <ellipse class="cls-5" cx="241.49" cy="651.93" rx="71.41" ry="72.24" transform="translate(-186.66 104.19) rotate(-17.69)"/>
    <path class="cls-6" d="M151.74,589.83c-8.22,5.47-16.08,22.36-18.79,35.33-3.18,15.23,.03,28.46,2.76,36.27,.14,1.46,.5,5.26-1.46,6.51-2.23,1.42-6.15-1.3-6.46-1.51-3.34-2.37-4.16-6.69-4.96-20.35-.85-14.43-.12-14.78-1.38-18.14-2.3-6.17-5.5-6.97-12.88-15.35-3.14-3.56-9.53-10.92-14.3-21.17-4.72-10.15-5.55-18.17-6.38-26.16-.82-7.97-.28-12.31,2.21-15.93,1.99-2.89,5.7-5.98,7.92-5,.5,.22,2.08,1.17,2.13,8.72,.05,8.03-1.72,11.16-2.21,15.93-.91,9.01,3.53,16.2,9.25,25.46,3.7,6,8.15,13.19,12.17,12.45,2.35-.43,2.86-3.26,6.5-10.81,2.89-6.01,5.94-12.33,10.83-18.02,3.94-4.57,9.58-11.12,15.83-9.99,3.46,.62,7.16,3.61,7.88,7.33,.49,2.58-.59,4.79-1.46,6.51-2.45,4.84-6.42,7.38-7.21,7.9Z"/>
    <path class="cls-6" d="M245.1,550.3c-8.78-4.61-27.26-3.44-39.83,.41-14.75,4.51-24.62,13.7-30.04,19.86-1.2,.82-4.31,2.97-6.35,1.84-2.33-1.28-1.91-6.05-1.87-6.42,.4-4.08,3.74-6.88,15.17-14.15,12.07-7.68,12.73-7.21,15.02-9.93,4.2-5,3.33-8.2,6.95-18.74,1.54-4.48,4.77-13.65,11.29-22.78,6.46-9.04,13-13.63,19.51-18.2,6.49-4.56,10.52-6.17,14.87-5.71,3.49,.37,7.98,2.15,8.22,4.58,.05,.55,.01,2.4-6.5,6.07-6.93,3.9-10.51,3.84-14.87,5.71-8.25,3.52-12.29,10.9-17.49,20.4-3.37,6.15-7.41,13.52-4.78,16.71,1.53,1.86,4.23,.96,12.56,.54,6.62-.34,13.6-.69,20.93,.89,5.89,1.28,14.34,3.11,16.44,9.16,1.16,3.35,.4,8.05-2.47,10.47-1.99,1.68-4.44,1.78-6.35,1.84-5.39,.17-9.54-2.12-10.39-2.56Z"/>
    <path class="cls-6" d="M329.84,598.69c-.83-9.94-11.73-25.13-21.7-33.87-11.7-10.25-24.71-13.88-32.79-15.28-1.33-.59-4.8-2.13-4.95-4.47-.17-2.66,4.06-4.8,4.39-4.97,3.65-1.8,7.79-.41,20.02,5.55,12.92,6.3,12.88,7.11,16.39,7.64,6.45,.97,8.67-1.46,19.46-3.89,4.59-1.03,14.02-3.09,25.18-2.3,11.06,.78,18.42,3.97,25.74,7.14,7.31,3.17,10.82,5.76,12.77,9.73,1.56,3.18,2.48,7.96,.56,9.44-.43,.33-2.01,1.27-8.58-2.38-6.99-3.88-8.86-6.97-12.77-9.73-7.38-5.21-15.74-4.79-26.51-4.26-6.97,.35-15.33,.76-16.6,4.68-.74,2.29,1.46,4.12,6.28,11.03,3.83,5.49,7.87,11.27,10.47,18.38,2.09,5.71,5.08,13.9,1.12,18.88-2.19,2.75-6.55,4.57-10.11,3.38-2.47-.82-3.88-2.86-4.95-4.47-3.03-4.53-3.34-9.28-3.42-10.23Z"/>
    <path class="cls-6" d="M331.92,701.87c8.31-5.33,16.47-22.06,19.41-34.99,3.45-15.16,.47-28.45-2.11-36.31-.11-1.46-.41-5.27,1.57-6.48,2.25-1.38,6.13,1.41,6.43,1.63,3.3,2.43,4.04,6.76,4.6,20.43,.59,14.44-.14,14.78,1.06,18.16,2.2,6.21,5.38,7.07,12.61,15.58,3.07,3.62,9.33,11.09,13.92,21.42,4.54,10.23,5.23,18.27,5.92,26.27,.68,7.98,.07,12.32-2.49,15.88-2.05,2.86-5.8,5.88-8,4.85-.5-.23-2.06-1.21-1.97-8.76,.1-8.03,1.92-11.12,2.49-15.88,1.07-8.99-3.25-16.26-8.8-25.62-3.6-6.06-7.91-13.33-11.95-12.66-2.36,.39-2.92,3.21-6.69,10.69-3,5.95-6.15,12.22-11.15,17.81-4.02,4.5-9.78,10.95-16.01,9.7-3.44-.69-7.1-3.74-7.75-7.47-.45-2.59,.67-4.78,1.57-6.48,2.53-4.79,6.55-7.26,7.35-7.77Z"/>
    <path class="cls-6" d="M236.92,755.99c9.03,4.09,27.41,1.82,39.73-2.76,14.45-5.38,23.78-15.14,28.83-21.61,1.15-.89,4.13-3.22,6.23-2.22,2.4,1.14,2.25,5.93,2.24,6.31-.17,4.1-3.34,7.09-14.32,15.03-11.6,8.38-12.29,7.95-14.41,10.81-3.9,5.24-2.84,8.39-5.85,19.12-1.28,4.56-3.96,13.91-9.94,23.42-5.92,9.41-12.18,14.38-18.41,19.33-6.22,4.94-10.14,6.78-14.51,6.58-3.5-.16-8.09-1.67-8.47-4.09-.08-.54-.15-2.4,6.14-6.44,6.69-4.3,10.26-4.46,14.51-6.58,8.02-4.01,11.63-11.62,16.27-21.41,3-6.34,6.61-13.94,3.8-16.97-1.64-1.77-4.28-.71-12.56,.21-6.59,.73-13.53,1.49-20.93,.34-5.95-.93-14.49-2.25-16.94-8.18-1.35-3.28-.87-8.02,1.85-10.6,1.89-1.79,4.32-2.04,6.23-2.22,5.37-.48,9.65,1.55,10.51,1.94Z"/>
    <path class="cls-6" d="M148.74,693.6c.83,9.94,11.73,25.13,21.7,33.87,11.7,10.25,24.71,13.87,32.79,15.28,1.33,.59,4.8,2.13,4.95,4.47,.17,2.66-4.06,4.8-4.39,4.97-3.65,1.8-7.79,.41-20.02-5.55-12.92-6.29-12.88-7.11-16.39-7.64-6.45-.97-8.67,1.46-19.46,3.89-4.59,1.03-14.02,3.09-25.18,2.3-11.06-.78-18.42-3.97-25.74-7.14-7.31-3.16-10.82-5.76-12.77-9.73-1.56-3.18-2.48-7.96-.56-9.44,.43-.33,2.01-1.27,8.58,2.38,6.99,3.88,8.86,6.97,12.77,9.73,7.38,5.21,15.75,4.79,26.51,4.26,6.97-.35,15.33-.76,16.6-4.68,.74-2.29-1.46-4.12-6.28-11.02-3.83-5.49-7.87-11.27-10.47-18.37-2.09-5.71-5.08-13.9-1.12-18.88,2.19-2.75,6.55-4.57,10.11-3.38,2.47,.82,3.88,2.86,4.95,4.47,3.03,4.53,3.34,9.28,3.42,10.23Z"/>
    <g>
      <ellipse cx="209.97" cy="649.45" rx="18.98" ry="19.2" transform="translate(-187.4 94.5) rotate(-17.69)"/>
      <ellipse class="cls-4" cx="207.26" cy="642.59" rx="5.84" ry="5.91" transform="translate(-185.44 93.35) rotate(-17.69)"/>
    </g>
    <g>
      <ellipse cx="267.15" cy="631.4" rx="18.98" ry="19.2" transform="translate(-179.21 111.02) rotate(-17.69)"/>
      <ellipse class="cls-4" cx="264.44" cy="624.53" rx="5.84" ry="5.91" transform="translate(-177.26 109.87) rotate(-17.69)"/>
    </g>
    <path d="M244.17,618.3c5.01-3.58,5.61-6.94,9.45-9.3,3.03-1.86,7.07-2.48,8.45-2.7,2.24-.35,4.06-.34,5.64-1.8,1.47-1.36,1.91-3.75,1.91-3.75,.3-2.01-.31-4.32-1.82-5.7-2.81-2.58-7.55-.83-9.36-.15-3.02,1.12-4.81,2.87-7.55,5.55-.85,.83-.67,.73-6.64,8.4-2.29,2.95-3.76,4.81-3.82,7.5-.01,.51-.05,2.35,.91,2.85,.85,.44,2.07-.36,2.82-.9Z"/>
    <path d="M220.92,624.71c-6.25,.01-8.72-2.37-13.29-2.04-3.6,.26-7.32,2.11-8.6,2.74-2.06,1.02-3.57,2.09-5.73,1.83-2.01-.25-3.78-1.94-3.78-1.94-1.42-1.46-2.26-3.69-1.82-5.7,.83-3.74,5.79-5.08,7.69-5.59,3.17-.85,5.67-.47,9.51,.11,1.19,.18,.98,.2,10.42,2.96,3.63,1.06,5.93,1.72,7.55,3.87,.31,.41,1.41,1.88,.91,2.85-.45,.86-1.93,.91-2.87,.91Z"/>
    <path class="cls-2" d="M275.65,670.92c-2.97-4.12-18.81-13-32.05-5.55-12.11,6.81-15.85,23.8-13.11,26.72,1.1,1.17,2.62,1.42,2.62,1.42,2.09,.34,3.75-1.09,3.93-1.25,2-1.79,1.51-4.57,1.97-7.39,.85-5.18,4.86-10.04,9.17-11.94,5.13-2.26,11.98-.9,15.7,1.75,.31,.22,2.31,1.67,5.23,2.84,2.86,1.14,3.97,.97,4.58,.79,1.42-.41,2.95-1.62,3.27-3.3,.35-1.8-.83-3.43-1.3-4.09Z"/>
  </g>
  <g>
    <path class="cls-4" d="M433.9,191.05c5.42,6.68,6.63,18.99,1.45,24.58-2.49,2.69-6.52,3.28-14.46,4.34-14.02,1.87-16.05-.71-21.69,1.45-9.61,3.68-15.48,15.71-15.91,26.03-.05,1.18-.53,18.2,10.12,23.14,4.33,2.01,10.94,2.22,14.46-1.45,4.04-4.2,2.17-11.59,1.45-14.46-2.35-9.33-8.35-11.59-7.23-15.91,1.57-6.05,14.8-7.15,15.91-7.23,1.9-.14,15.75-.96,24.58,8.68,10.73,11.7,6.78,30.87,0,41.93-12.77,20.83-40.15,20.35-43.38,20.24-22.04-.74-42.57-15.55-50.61-36.15-11.2-28.68,5.63-58.81,26.03-72.3,19.07-12.61,48.88-15.72,59.29-2.89Z"/>
    <path class="cls-4" d="M538.01,273.47c-7.5-20.44-3.5-20.95-11.57-47.72-6.97-23.14-10.65-34.8-20.24-39.04-8.39-3.72-18.92-1.76-26.03,2.89-4,2.62-8.4,7.06-18.8,46.27,0,0-3.15,11.88-7.23,31.81-5.11,24.94-4.96,30.47-1.45,34.7,6.11,7.37,18.4,6.02,20.24,5.78,1.3-.16,14.65-2.01,17.35-10.12,1.98-5.94-3.65-9.51-1.45-17.35,.22-.78,2.27-7.73,7.23-8.68,3.88-.74,8.05,2.48,10.12,5.78,5.59,8.9-4.09,18.35,0,24.58,5.46,8.32,32.18,5.91,37.6-5.78,2.5-5.4-.9-9.83-5.78-23.14Zm-40.74-33.28c-5.04,3.02-13.52,3.34-16.76-2.51-4.59-8.28,5.5-15.57,13.57-18.38,1.28-1.91,3.43-3.14,5.97-3.25,3.81-.17,7.37,3.45,7.23,7.23-.24,6.73-4.21,13.44-10.01,16.91Z"/>
    <path class="cls-4" d="M585.73,192.49c-5.06-4.44-11.86-4.37-14.46-4.34-8.41,.09-16.92,4.27-21.69,10.12-8.5,10.43-.76,20.78,0,50.61,.73,28.59-5.88,38.59,2.89,49.16,7.31,8.8,18.62,9.98,20.24,10.12,7.7,.69,19.73-1.33,23.14-8.68,1.89-4.07-.49-6.29-2.89-21.69-2.47-15.85-.52-17.12,0-17.35,2.91-1.32,7.72,8.42,13.01,7.23,4.8-1.08,5.33-10.09,8.68-10.12,2.46-.02,4.71,4.82,5.78,8.68,3.92,14.03-5.77,21.85-1.45,30.37,2.68,5.29,8.86,7.07,14.46,8.68,6.67,1.92,20.06,3.63,26.03-2.89,5.9-6.44-.63-15.23-2.89-34.7-3.73-32.12,9.8-44.6,0-69.41-3.45-8.74-7.29-12.64-11.57-14.46-7.97-3.38-18.58,0-24.58,5.78-4.25,4.1-8.32,11.47-11.57,17.35-2.42,4.39-3.53,6.99-5.78,7.23-3.24,.35-6.39-4.45-10.12-10.12-4.62-7.02-4.14-8.85-7.23-11.57Z"/>
    <path class="cls-4" d="M671.04,193.94c4.18-3.88,9.49-5.09,31.81-4.34,22.91,.77,25.52,2.32,27.47,4.34,6.59,6.82,6.72,20.17,1.45,24.58-1.6,1.34-5.88,1.85-14.46,2.89-7.41,.9-9.83,.79-11.57,2.89-2.18,2.64-2.28,7.55,0,10.12,2.9,3.28,7.31,.12,13.01,2.89,5.18,2.52,9.94,9.21,8.68,15.91-.85,4.48-4.35,8.76-8.68,10.12-5.76,1.81-9.84-2.55-13.01,0-2.3,1.84-2.4,5.93-1.45,8.68,1.41,4.03,5.26,5.58,5.78,5.78,5.94,2.28,9.47-3.1,14.46-1.45,5.33,1.77,8.88,10.42,7.23,17.35-1.51,6.32-6.99,9.7-10.12,11.57-12.31,7.34-33.89,9.48-46.27-1.45-10.34-9.13-1.35-15.96-10.12-59.29-1.85-9.12-5.38-24.26,0-40.49,1.83-5.53,3.71-8.19,5.78-10.12Z"/>
    <path class="cls-4" d="M873.48,201.17c-12.87-10.3-28.58-9.05-33.26-8.68-22.53,1.79-43.64,18.08-52.06,40.49-7.01,18.68-6.59,45.32,11.57,63.62,13.39,13.49,35.37,21.39,54.95,14.46,32.54-11.51,34.42-55.47,34.7-62.18,.41-9.5,1.45-33.83-15.91-47.72Zm-18.35,48.86c-2.95,5.44-8.39,9.85-13.77,12.06-9.31,3.81-18.88-.83-20.24-11.18-1.18-9.03,4.43-12.73,11.59-14.17,5.33-3.65,12.42-3.87,19.34-2.02,1.28,.34,2.4,1.08,3.29,2.03,5.29,2.5,5.21,11.14-.21,13.29Z"/>
    <path class="cls-4" d="M934.21,204.06c-4.84-7.89-7.34-11.89-11.57-14.46-7.41-4.51-19.03-5.41-24.58,0-4.79,4.67-3.62,12.64,0,28.92,9,40.49,13.78,61.03,27.47,75.19,6.74,6.97,14.57,15.07,24.58,14.46,9.78-.6,16.38-9.2,30.37-31.81,27.08-43.8,40.47-65.92,33.26-76.64-5.88-8.74-20.4-9.95-23.14-10.12-4.42-.27-15.11-.93-21.69,5.78-6.64,6.78-2.88,14.75-11.57,24.58-2.67,3.02-5.41,6.12-8.68,5.78-4.76-.49-5.92-7.77-14.46-21.69Z"/>
    <path class="cls-4" d="M1027.53,193.49c4.18-3.88,9.49-5.09,31.81-4.34,22.91,.77,25.52,2.32,27.47,4.34,6.59,6.82,6.72,20.17,1.45,24.58-1.6,1.34-5.88,1.85-14.46,2.89-7.41,.9-9.83,.79-11.57,2.89-2.18,2.64-2.28,7.55,0,10.12,2.9,3.28,7.31,.12,13.01,2.89,5.18,2.52,9.94,9.21,8.68,15.91-.85,4.48-4.35,8.76-8.68,10.12-5.76,1.81-9.84-2.55-13.01,0-2.3,1.84-2.4,5.93-1.45,8.68,1.41,4.03,5.26,5.58,5.78,5.78,5.94,2.28,9.47-3.1,14.46-1.45,5.33,1.77,8.88,10.42,7.23,17.35-1.51,6.32-6.99,9.7-10.12,11.57-12.31,7.34-33.89,9.48-46.27-1.45-10.34-9.13-1.35-15.96-10.12-59.29-1.85-9.12-5.38-24.26,0-40.49,1.83-5.53,3.71-8.19,5.78-10.12Z"/>
    <path class="cls-4" d="M1180.8,292.71c-2.89-10.49-13.81-10.39-23.14-26.03-3.18-5.33-3.94-8.74-2.89-11.57,1.54-4.17,6.16-4.81,10.12-7.23,10-6.1,14.44-22.68,11.57-36.15-3.89-18.25-20.18-26.06-23.14-27.47-12.34-5.91-23.8-3.99-30.37-2.89-7.9,1.32-16.07,2.69-20.24,8.68-5.46,7.82-.05,17.72,2.89,30.37,9.41,40.51-16.27,67.82-1.45,85.31,.93,1.1,4.96,5.86,11.57,7.23,6.66,1.38,15.31-.8,17.35-5.78,1.49-3.63-1.79-5.7-2.89-14.46-.61-4.82-.65-12.42,1.45-13.01,1.22-.34,2.89,1.77,11.57,15.91,6.92,11.28,7.57,12.71,10.12,14.46,6.23,4.26,16.96,5.67,23.14,0,4.49-4.12,5.97-11.42,4.34-17.35Zm-40.93-58.67c-5.18,3.1-10.04-1.03-10.68-5.63-2.9-3.29-3.07-8.28-1.76-12.26,1.64-5,5.95-8.74,11.13-9.68,5.22-.95,10,.69,14.73,2.74,2.67,1.16,4.38,5.52,3.32,8.16-3.22,8.04-9.56,12.37-16.74,16.67Z"/>
  </g>
  <g>
    <path class="cls-7" d="M1240.27,642.29c-1.25,10.68-7.12,70.27,34.52,121.74,31.12,38.47,70.36,49.62,98.38,57.58,0,0,26.84,7.63,61.38,2.16,3.62-.57,9.53-1.76,14.69-6.35,8.72-7.77,8.57-19.31,8.55-19.86-.29-10.16-6.92-16.82-11.19-21.12-6.92-6.96-13.26-9.15-19.33-12.31-15.13-7.87-23.83-19.3-30.84-28.5-24.42-32.06-16.4-75.27-15.68-78.85,1.61-8.05,8.2-40.93,36.5-60.36,6.49-4.46,31.7-21.77,57.92-16.72,7.19,1.38,18.01,5.13,28.01-.26,6.28-3.38,9.4-8.84,10.29-10.42,.43-.78,6.12-11.37,2-22.32-3.03-8.08-9.89-12.36-13.65-14.57-43.53-25.67-75.05-30.15-75.05-30.15-18.73-2.66-51.35-7.28-86.69,6.14-54.67,20.77-93.03,76.05-99.81,134.18Z"/>
    <path class="cls-8" d="M1360.48,512.91c26.55-6.69,48.82-3.25,56.98-1.91,16.79,2.76,33.37,8.82,37.25,10.24,7.3,2.67,13.57,5.47,14.5,5.88,6.48,2.9,11.05,5.33,16.11,8.02,5.65,3.01,8.5,4.54,9.56,5.57,5.42,5.24,8.65,14.7,5.29,22.2-.57,1.27-2.47,5.51-7.18,7.42-3.74,1.51-7.2,.7-8.48,.33-2.18-.31-5.15-.65-8.69-.85-3.75-.2-8.03-.23-14.59,.24-9.44,.67-14.17,1.01-19.1,2.28-7.67,1.98-12.61,5.08-20.16,9.8-5.02,3.14-13.36,8.42-22.4,17.53-12.05,12.13-18.38,24.02-20.45,28.15-16.2,32.23-10.41,63.64-9.12,69.98,4.25,20.84,13.77,35.34,18.84,42.89,6.62,9.87,13.47,17.2,18.71,22.18,7.58,4.77,13.67,9.14,18.15,12.53,5.61,4.24,8.22,6.58,10.42,10.29,1.54,2.59,4.25,7.1,3.56,12.76,0,0-.6,4.94-4.39,9.34-9.52,11.07-34.51,7.51-45.27,5.86-22.07-3.37-37.99-10.48-41.22-11.96-17.28-7.87-44.54-20.28-65.85-46.47-44.81-55.07-27.65-127.24-25.85-134.31,10.93-43,37.11-68.5,42.6-73.68,7.75-7.31,28.16-26.11,60.79-34.32Z"/>
    <g>
      <circle cx="1299.67" cy="617.27" r="15.37"/>
      <circle class="cls-4" cx="1305.39" cy="615.81" r="4.73"/>
    </g>
    <g>
      <circle cx="1349.8" cy="629.11" r="15.37"/>
      <circle class="cls-4" cx="1355.53" cy="627.65" r="4.73"/>
    </g>
    <path class="cls-2" d="M1334.17,662.15c-.48-2.8-6.29-11.18-14.86-10.75-7.84,.4-13.98,7.97-13.32,10.11,.27,.86,.97,1.36,.97,1.36,.98,.69,2.17,.38,2.3,.35,1.46-.4,1.91-1.91,2.84-3.21,1.72-2.38,4.97-3.82,7.63-3.7,3.17,.14,6.3,2.53,7.52,4.78,.1,.19,.75,1.41,1.94,2.72,1.16,1.28,1.77,1.47,2.12,1.54,.82,.15,1.9-.08,2.48-.84,.63-.82,.44-1.92,.36-2.37Z"/>
  </g>
  <path class="cls-4" d="M1257.15,184.76c-7.17-.29-13.19,2.35-16.13,4.3-17.91,11.9-5.7,53.96-1.08,69.92,1.04,3.58,3.02,9.64,8.61,12.91,3.5,2.05,9.03,3.37,12.91,1.08,5.59-3.3,5.28-12.67,5.38-20.44,.5-39.78,12.06-57.21,2.15-64.54-3.93-2.9-9.76-3.14-11.83-3.23Z"/>
  <path class="cls-4" d="M1256.22,290.09c-6.67-2.14-16.05,.1-18.29,6.45-2.37,6.73,4.89,13.54,5.38,13.98,1.22,1.12,5.87,5.36,11.83,4.3,6.56-1.16,12.06-8.28,10.76-15.06-1.32-6.86-8.84-9.41-9.68-9.68Z"/>
</svg>