<?xml version="1.0" encoding="UTF-8"?>
<svg id="Layer_5" data-name="Layer 5" xmlns="http://www.w3.org/2000/svg" viewBox="0 0 1602 898">
  <defs>
    <style>
      .cls-1 {
        fill: #f7c4db;
      }

      .cls-2 {
        fill: #f9ae90;
      }

      .cls-3 {
        fill: #020202;
      }

      .cls-4 {
        fill: #ef9cd1;
      }

      .cls-5 {
        fill: #fff;
      }

      .cls-6 {
        fill: #666;
      }

      .cls-7 {
        fill: #1c181a;
      }

      .cls-8 {
        fill: #562142;
      }

      .cls-9 {
        fill: #7c526f;
      }

      .cls-10 {
        fill: #7c375e;
      }
    </style>
  </defs>
  <g>
    <rect class="cls-1" width="1602" height="898"/>
    <rect class="cls-4" x="221" y="123.22" width="1158" height="649.12" rx="114.35" ry="114.35"/>
  </g>
  <g>
    <path class="cls-5" d="M411.39,198.52c-2.73-4.35-9.28-4.75-15.41-5.14-9.98-.62-18.18-1.13-23.11,3.85-6.24,6.31-4.16,18.76,0,43.65,.74,4.44,1.12,5.79,1.28,8.99,.49,9.25-1.81,13.77-2.57,26.96-.36,6.34,0,8.4,1.28,10.27,.53,.77,2.25,2.99,11.56,5.14,6.6,1.52,14.89,3.33,23.11,0,3.03-1.23,4.37-2.47,5.14-3.85,1.18-2.11,.71-4.01,0-8.99-.1-.7-1.02-7.21-1.28-12.84-.27-5.74-.37-8.64,1.28-10.27,2.49-2.45,7.74-2.44,10.27,0,1.76,1.7,1.63,5.01,1.28,11.56-.28,5.41-.42,8.11-1.28,11.56-1.08,4.33-2.34,6.41-1.28,8.99,.4,.98,1.25,2.31,3.85,3.85,7.03,4.15,19.37,5.36,25.68-1.28,.38-.4,1.61-1.75,2.57-3.85,2.64-5.79,.69-11.79,0-14.12-1.8-6.09-2.05-15.19-2.57-33.38-.4-14.14-.6-21.21,1.28-25.68,1.48-3.5,4.09-7.94,2.57-12.84-1.28-4.1-4.73-6.19-5.14-6.42-3.43-2-7.04-1.36-14.12,0-6.47,1.24-9.7,1.87-11.56,3.85-3.46,3.71-3.01,9.55-2.57,15.41,.29,3.83,1.08,7.09,1.28,14.12,.1,3.36-.01,5.12-1.28,6.42-2.17,2.23-6.84,2.19-8.99,0-1.38-1.41-1.33-3.3-1.28-6.42,.25-19.11-1.03,2.28,0-15.41,.71-12.2,.77-12.9,0-14.12Z"/>
    <path class="cls-5" d="M518,226c-.99-1.34-11.58-15.21-29-14-1.15,.08-17.16,1.45-25,15-6.28,10.84-3.02,22.04-1,29,1.91,6.56,4.86,16.72,14,22,12.19,7.04,30.97,2.86,41-10,9.9-12.69,8.57-30.37,0-42Zm-14.5,23.22c-2.45,4.89-10.23,8.45-14.86,9.05-4.3,.56-8.04-2.04-8.26-6.54-.22-4.56,2.77-8.81,6.17-11.53,3.38-2.69,8.41-4.99,12.81-3.77,.84,.23,2.01,.12,2.63,.56,2.05,.44,3.42,2.48,3.52,5.16,.1,2.61-.24,5.38-2.01,7.06Z"/>
    <path class="cls-5" d="M526,214c2.5-2.52,7.43-2.18,10-2,2.71,.19,6.23,.43,9,3,2.54,2.35,3.23,5.52,4,9,.1,.48,.4,2.66,1,7,.66,4.84,.82,6.14,2,7,1.38,1.01,3.77,1.12,5,0,1.68-1.54-.25-4.08,1-8,.17-.53,1.42-4.26,5-6,3.1-1.51,7.43-1.25,10,1,1.72,1.5,1.33,2.74,5,11,1.06,2.39,1.77,3.82,3,4,1.86,.27,3.67-2.49,4-3,4.59-7.02-2.18-14.39,2-21,2.49-3.95,7.14-4.85,8-5,6.75-1.17,12.19,4.2,13,5,6.21,6.13,5.75,15.32,5,27-.92,14.3-1.98,30.69-13,37-1.06,.61-7.4,4.24-13,2-4.14-1.65-8.08-6.59-10-9-2.35-2.94-2.99-4.49-5-5-.65-.17-2.98-.61-8,3-4.51,3.24-5.41,5.59-8,8-6.59,6.11-18.64,7.47-23,3-2.02-2.07-1.97-4.97-2-8-.13-13.87-1.88-32.15-4-43-1.73-8.82-3.95-14.02-1-17Z"/>
    <path class="cls-5" d="M688.55,198.66c-2.1,1.28-9.4,6.15-11.44,15.25-2.43,10.84,3.62,23.21,12.71,26.68,1.29,.49,8.32,3.18,12.71,0,2.06-1.5,3.24-4.07,5.08-3.81,1.39,.2,2.22,1.88,2.54,2.54,2.47,5.14-.46,11.97-1.27,13.98-3.56,8.82-6.71,24.9-1.27,33.04,5.01,7.5,18.79,10.44,26.68,5.08,6.59-4.47,7.37-13.58,7.62-16.52,1-11.65-4.77-25.32-6.35-36.85-.2-1.47-.57-4.6,1.27-6.35,1.26-1.2,3.02-1.26,3.81-1.27,4.07-.07,5.93,2.81,10.17,5.08,1.26,.68,6.61,3.55,11.44,2.54,6.24-1.31,10.58-8.89,11.44-15.25,1.62-12.01-9.04-20.71-10.17-21.6-5.02-3.97-11.89-4.82-25.41-6.35-2.47-.28-16.13-1.75-34.31,0-8.48,.82-11.86,1.75-15.25,3.81Z"/>
    <path class="cls-5" d="M836.64,223.32c-.99-1.34-11.58-15.21-29-14-1.15,.08-17.16,1.45-25,15-6.28,10.84-3.02,22.04-1,29,1.91,6.56,4.86,16.72,14,22,12.19,7.04,30.97,2.86,41-10,9.9-12.69,8.57-30.37,0-42Zm-14.5,23.22c-2.45,4.89-10.23,8.45-14.86,9.05-4.3,.56-8.04-2.04-8.26-6.54-.22-4.56,2.77-8.81,6.17-11.53,3.38-2.69,8.41-4.99,12.81-3.77,.84,.23,2.01,.12,2.63,.56,2.05,.44,3.42,2.48,3.52,5.16,.1,2.61-.24,5.38-2.01,7.06Z"/>
    <path class="cls-5" d="M997.98,225.39c-.73-11.59-7.65-24.45-18.66-29.33-13.64-6.05-20-8-38.66-6.67-3.03,.22-7,.2-12,1.33-3.92,.89-7.88,3.93-9.33,8-1.5,4.22,.42,7.5,2.67,14.66,0,0,1.86,5.92,4,18.66,1.36,8.1,.08,10.71-2.67,34.66-2.62,22.83-2.05,25.58,0,27.99,5.94,7.01,20.1,6.32,29.33,1.33,2.79-1.5,11.27-6.09,12-13.33,.58-5.84-3.59-16.34-5.33-22.66-.11-.39-.39-1.48,0-2.67,.39-1.19,1.42-2.36,2.67-2.67,1.75-.43,3.45,.94,4,1.33,4.2,2.95,15.54,.5,22.66-5.33,10.39-8.5,9.52-22.34,9.33-25.33Zm-21.5,2.37c-4.02,7.86-12.02,11.95-20.57,12.78-1.95,.19-3.74-.81-4.98-2.29-.22-.18-.44-.36-.65-.58-11.36-11.32,7.83-31.23,20.67-27.59,8.21,2.33,8.88,11.12,5.53,17.67Z"/>
    <path class="cls-5" d="M1017,207c5.04-4.18,12.98-1.36,14-1,1.56,.55,6.48,2.3,9,7,2.27,4.24,1.18,9.16-1,19-2.5,11.29-3,13-3,13-.13,.45-1.22,4.16-1,9,.14,2.98,.65,3.66,1,4,1.65,1.57,4.77,.37,10-1,7.47-1.95,11.21-2.93,13-2,5.01,2.6,6.43,16.73,0,23-2.39,2.33-4.8,2.54-26,2-16.43-.42-18.89-.64-21-3-4.09-4.57-2.68-12.51-1-22,1.75-9.89,3.74-9.27,4-16,.34-8.8-3-11.35-2-21,.47-4.59,.93-8.45,4-11Z"/>
    <path class="cls-5" d="M1116,251c-3.66-7.27-4.83-13.66-6-20-2.64-14.35,.14-18.12-4-23-4.05-4.77-11.7-7.04-18-5-5.74,1.85-8.64,6.72-10,9-3.09,5.19-2.71,8.85-4,19-1.23,9.72-3.01,17.59-4,22-3.23,14.33-5.75,18.33-3,23,2.7,4.58,8.11,5.8,9,6,4.32,.98,10.39,.24,12-3,.67-1.35-.11-1.77,0-6,.1-3.73,.17-6.39,2-8,1.3-1.14,3.41-1.7,5-1,1.34,.59,1.91,2.07,3,5,2.85,7.67,2.71,7.56,3,8,2.45,3.74,8.76,5.54,14,4,6.12-1.8,9.79-7.87,10-13,.24-5.83-4.13-7.31-9-17Zm-14.37-12.81c-1.15,2.36-3.35,4.47-5.67,5.69-.74,.39-1.51,.58-2.27,.61-1.61,.76-3.3,1.28-5.22,1.2-2.12-.09-4.34-1.47-4.82-3.67-1.65-7.58,5.71-16.26,13.7-13.85,4.48,1.35,6.29,5.89,4.28,10.01Z"/>
    <path class="cls-5" d="M1140,208c-3.13-3.26-9.33-4.09-14-2-6.66,2.99-8.73,11.26-8,17,.07,.55,1.15,8.17,7,12,2.76,1.81,5.82,2.26,12,6,1.04,.63,2.33,1.45,3,3,1.1,2.56-.27,5.32-1,7,0,0-2.83,6.52-3,16-.05,2.71-.19,10.37,5,15,5.97,5.33,17.06,4.92,21,0,1.84-2.3,1.13-4.34,0-20-.89-12.31-.66-14.02,0-16,2.03-6.09,6.57-10.1,11-14,7.15-6.3,11.17-6.74,12-11,.91-4.65-2.98-8.89-4-10-.28-.31-5.89-6.22-14-5-1.3,.19-7.79,1.34-10,6-1.18,2.5-.24,4.11-2,7-.44,.72-2.5,4.1-5,4-2.48-.1-4.25-3.58-7-9-2.16-4.26-1.78-4.72-3-6Z"/>
  </g>
  <g>
    <path class="cls-9" d="M531.29,364.74c.85-.73,2.54-2.4,5.45-3.77,5.01-2.37,10.37-2.31,13.41-1.68,10.76,2.24,18.15,17.07,18.02,29.33-.14,12.46-8.08,23.53-10.89,25.14-.31,.18-1.75,.92-2.51,2.51-.64,1.34-.51,2.66-.42,3.35,.62,4.56,.92,6.83,3.77,12.15,3.92,7.32-.51,20.03-6.28,27.23-9.29,11.6-26.46,14.51-36.87,10.47-1.75-.68-2.16-1.11-14.25-6.7-6.06-2.81-9.13-4.21-10.47-4.61-11.31-3.35-12.51,.37-19.27-1.68-7.39-2.24-11.63-8.34-13.41-10.89-7.8-11.22-8-27.69-1.26-35.2,3.92-4.36,8.38-6.7,8.38-6.7,3.48-1.83,4.98-1.64,6.7-3.35,3.2-3.17,2.27-7.99,2.51-11.73,.6-9.25,8.69-17.41,14.25-20.53,14.26-8.01,33.2,5.2,43.16-3.35Z"/>
    <g>
      <rect class="cls-5" x="474.24" y="416.31" width="43.59" height="14.78" rx="7.39" ry="7.39" transform="translate(380.78 -218.4) rotate(39.32)"/>
      <rect class="cls-5" x="490.88" y="406.92" width="63.16" height="14.78" rx="7.39" ry="7.39" transform="translate(-129.12 555.96) rotate(-50.68)"/>
    </g>
  </g>
  <g>
    <path class="cls-9" d="M1090.35,363.74c.87-.75,2.6-2.45,5.56-3.85,5.12-2.42,10.59-2.36,13.69-1.71,10.98,2.29,18.54,17.44,18.4,29.95-.14,12.73-8.25,24.03-11.12,25.67-.31,.18-1.79,.94-2.57,2.57-.66,1.37-.52,2.72-.43,3.42,.63,4.65,.94,6.98,3.85,12.41,4,7.48-.52,20.45-6.42,27.81-9.48,11.84-27.02,14.81-37.65,10.7-1.79-.69-2.21-1.13-14.55-6.85-6.19-2.87-9.32-4.3-10.7-4.71-11.55-3.42-12.78,.38-19.68-1.71-7.55-2.29-11.88-8.51-13.69-11.12-7.97-11.46-8.17-28.28-1.28-35.94,4-4.45,8.56-6.85,8.56-6.85,3.56-1.87,5.08-1.68,6.85-3.42,3.26-3.24,2.32-8.16,2.57-11.98,.61-9.44,8.87-17.78,14.55-20.97,14.56-8.18,33.9,5.31,44.07-3.42Z"/>
    <g>
      <rect class="cls-5" x="1039.54" y="409.03" width="64.49" height="15.1" rx="7.55" ry="7.55" transform="translate(19.35 879.88) rotate(-45)"/>
      <rect class="cls-5" x="1039.83" y="408.69" width="64.49" height="15.1" rx="7.55" ry="7.55" transform="translate(1535.82 1468.63) rotate(-135)"/>
    </g>
  </g>
  <g>
    <path class="cls-8" d="M374.2,574.95l22.43-7.22c3.37-1.08,5.99-3.76,7.01-7.15l6.77-22.57c2.56-8.54,13.81-10.44,19.03-3.21l13.8,19.1c2.07,2.87,5.43,4.54,8.97,4.46l23.55-.54c8.92-.2,14.2,9.91,8.93,17.11l-13.9,19.02c-2.09,2.86-2.64,6.56-1.47,9.91l7.79,22.24c2.95,8.42-5.03,16.56-13.51,13.78l-22.39-7.34c-3.37-1.1-7.06-.48-9.88,1.67l-18.74,14.28c-7.09,5.41-17.31,.33-17.28-8.59l.06-23.56c0-3.54-1.72-6.86-4.64-8.88l-19.37-13.41c-7.33-5.08-5.66-16.36,2.83-19.09Z"/>
    <path class="cls-10" d="M380.16,576.57l19.93-6.42c3-.96,5.33-3.34,6.23-6.36l6.01-20.06c2.28-7.59,12.27-9.28,16.91-2.85l12.26,16.97c1.84,2.55,4.82,4.03,7.97,3.96l20.93-.48c7.92-.18,12.62,8.8,7.94,15.2l-12.35,16.91c-1.86,2.54-2.34,5.83-1.3,8.8l6.92,19.76c2.62,7.48-4.47,14.72-12.01,12.25l-19.9-6.53c-2.99-.98-6.27-.43-8.78,1.48l-16.66,12.69c-6.3,4.8-15.38,.29-15.36-7.63l.06-20.94c0-3.15-1.53-6.1-4.12-7.89l-17.22-11.92c-6.52-4.51-5.03-14.54,2.51-16.97Z"/>
    <path class="cls-2" d="M426.91,549.03c-2.26,4.48,12.22,24.45,12.23,24.46,0,0,1,.5,1.02,.51,1.5,.75,30.39-1.24,30.06-3.06-.04-.24-.71-.33-2.04-.51-3.63-.48-6.5,0-7.13,0-4.08,0-8.15,.51-13.76,0-4.66-.42-5.51-.9-9.17-5.1-3.93-4.5-7.78-10.73-8.66-14.27-.17-.68-.69-3.02-1.53-3.06-.49-.02-.9,.78-1.02,1.02Z"/>
    <path class="cls-2" d="M408.06,574s-7.57,1-7.64,1.02c-3.57,1.02-8.41,1.87-15.8,5.6-.62,.31-2.16,1.1-2.04,1.53,.03,.11,.26,.53,4.59,0,3.02-.37,5.01-.83,8.15-1.53,3.62-.8,7.08-2.23,10.7-3.06,.69-.16,2.19-.49,2.55-1.53,.26-.76-.19-1.57-.51-2.04"/>
    <g>
      <circle cx="418.25" cy="589.29" r="6.62"/>
      <circle class="cls-5" cx="420.29" cy="587.76" r="2.04"/>
    </g>
    <g>
      <circle cx="440.16" cy="585.72" r="6.62"/>
      <circle class="cls-5" cx="442.2" cy="584.19" r="2.04"/>
    </g>
    <path class="cls-3" d="M425.89,599.48c.39,1.15,3.46,4.3,7.13,3.57,3.36-.67,5.52-4.24,5.1-5.1-.17-.35-.51-.51-.51-.51-.47-.23-.97-.02-1.02,0-.61,.26-.7,.92-1.02,1.53-.59,1.11-1.9,1.92-3.06,2.04-1.38,.14-2.89-.66-3.57-1.53-.06-.07-.42-.54-1.02-1.02-.59-.46-.86-.5-1.02-.51-.37-.01-.82,.15-1.02,.51-.22,.38-.06,.84,0,1.02Z"/>
  </g>
  <g>
    <ellipse cx="1068.55" cy="580.02" rx="34.11" ry="34.5"/>
    <ellipse class="cls-6" cx="1068.18" cy="580.54" rx="28.39" ry="28.72"/>
    <path class="cls-7" d="M1041.68,546.18c-3.77,1.08-8.79,6.53-11.39,11.12-3.04,5.38-3.43,10.78-3.34,14.07-.12,.57-.45,2.05-1.34,2.29-1.02,.27-2.17-1.23-2.26-1.35-.98-1.3-.77-3.04,.58-8.31,1.42-5.57,1.74-5.61,1.67-7.04-.13-2.61-1.24-3.3-3.02-7.37-.76-1.73-2.29-5.29-2.86-9.74-.56-4.41,.09-7.56,.74-10.68,.65-3.12,1.38-4.7,2.76-5.77,1.11-.86,2.88-1.58,3.6-.94,.16,.14,.65,.69-.25,3.56-.95,3.05-2,4.02-2.76,5.77-1.43,3.3-.62,6.57,.43,10.76,.68,2.72,1.49,5.98,3.11,6.18,.94,.12,1.48-.89,3.77-3.31,1.82-1.93,3.74-3.95,6.28-5.52,2.04-1.25,4.97-3.06,7.2-1.87,1.23,.65,2.28,2.23,2.1,3.73-.12,1.04-.8,1.74-1.34,2.29-1.51,1.54-3.32,2.02-3.68,2.12Z"/>
    <path class="cls-7" d="M1081.82,542.48c-2.77-2.81-9.91-4.6-15.14-4.66-6.13-.07-10.98,2.22-13.78,3.89-.55,.17-1.99,.6-2.63-.07-.73-.77,0-2.52,.07-2.66,.65-1.5,2.25-2.15,7.46-3.53,5.5-1.45,5.69-1.19,6.89-1.95,2.2-1.38,2.25-2.7,4.9-6.26,1.12-1.51,3.45-4.6,7.03-7.27,3.54-2.64,6.57-3.59,9.59-4.54,3.01-.94,4.73-1.07,6.32-.37,1.28,.56,2.77,1.78,2.56,2.73-.05,.21-.28,.91-3.2,1.51-3.1,.64-4.44,.19-6.32,.37-3.55,.34-5.97,2.65-9.09,5.62-2.02,1.92-4.44,4.23-3.83,5.75,.35,.89,1.49,.87,4.69,1.72,2.55,.67,5.23,1.38,7.82,2.87,2.08,1.19,5.06,2.91,5.12,5.46,.03,1.41-.82,3.1-2.2,3.67-.96,.39-1.9,.14-2.63-.07-2.06-.59-3.36-1.95-3.63-2.22Z"/>
    <path class="cls-7" d="M1108.08,571.05c.89-3.86-1.41-10.94-4.13-15.45-3.19-5.3-7.68-8.24-10.57-9.75-.43-.39-1.56-1.39-1.34-2.29,.26-1.03,2.12-1.33,2.27-1.35,1.6-.24,3,.79,6.91,4.52,4.13,3.95,4.02,4.25,5.29,4.88,2.33,1.15,3.46,.5,7.84,.88,1.86,.16,5.68,.52,9.82,2.17,4.09,1.63,6.5,3.73,8.89,5.81,2.39,2.08,3.4,3.49,3.66,5.23,.21,1.39-.02,3.31-.93,3.64-.2,.07-.91,.24-2.96-1.94-2.18-2.32-2.51-3.71-3.66-5.23-2.17-2.86-5.39-3.72-9.53-4.82-2.68-.71-5.9-1.56-6.85-.23-.56,.78,.06,1.74,1.05,4.94,.79,2.54,1.62,5.22,1.74,8.23,.1,2.42,.24,5.88-1.86,7.29-1.16,.78-3.03,.94-4.24,.06-.84-.61-1.12-1.55-1.34-2.29-.6-2.08-.14-3.92-.06-4.29Z"/>
    <path class="cls-7" d="M1096.4,610.39c3.79-1.01,8.91-6.37,11.58-10.91,3.14-5.33,3.62-10.72,3.59-14.01,.13-.57,.48-2.04,1.38-2.27,1.02-.25,2.15,1.27,2.24,1.39,.96,1.32,.71,3.05-.73,8.3-1.52,5.54-1.84,5.58-1.79,7.01,.08,2.62,1.18,3.33,2.89,7.42,.73,1.74,2.2,5.33,2.69,9.79,.49,4.42-.23,7.55-.93,10.67-.71,3.11-1.46,4.67-2.86,5.72-1.12,.84-2.91,1.53-3.62,.87-.16-.15-.64-.71,.31-3.56,1.01-3.03,2.07-3.98,2.86-5.72,1.49-3.28,.73-6.55-.24-10.77-.63-2.73-1.39-6.01-3-6.24-.94-.14-1.49,.86-3.83,3.24-1.85,1.89-3.81,3.89-6.38,5.4-2.06,1.22-5.03,2.96-7.24,1.74-1.22-.68-2.24-2.27-2.03-3.76,.14-1.03,.83-1.73,1.38-2.27,1.54-1.51,3.36-1.96,3.72-2.06Z"/>
    <path class="cls-7" d="M1053.87,619.41c2.93,2.64,10.16,4,15.38,3.75,6.12-.29,10.84-2.86,13.53-4.7,.54-.2,1.95-.72,2.63-.09,.77,.72,.14,2.52,.09,2.66-.56,1.53-2.12,2.28-7.24,3.96-5.41,1.77-5.62,1.53-6.77,2.35-2.11,1.51-2.09,2.83-4.53,6.54-1.03,1.57-3.18,4.79-6.59,7.67-3.38,2.85-6.35,3.98-9.31,5.1-2.95,1.12-4.66,1.34-6.29,.74-1.31-.48-2.86-1.61-2.71-2.57,.03-.22,.23-.93,3.1-1.7,3.05-.82,4.43-.45,6.29-.74,3.52-.55,5.81-3,8.75-6.14,1.9-2.04,4.19-4.48,3.49-5.97-.41-.87-1.53-.79-4.78-1.44-2.58-.52-5.31-1.07-7.97-2.4-2.14-1.07-5.22-2.6-5.43-5.14-.12-1.4,.64-3.14,1.98-3.79,.93-.45,1.88-.25,2.63-.09,2.09,.47,3.47,1.75,3.75,2.01Z"/>
    <path class="cls-7" d="M1028.01,585.13c-.88,3.87,1.41,10.94,4.13,15.45,3.19,5.29,7.68,8.24,10.57,9.75,.43,.39,1.56,1.39,1.34,2.29-.26,1.03-2.12,1.33-2.26,1.35-1.6,.24-3-.79-6.91-4.52-4.13-3.95-4.02-4.25-5.29-4.87-2.33-1.15-3.46-.49-7.84-.88-1.86-.16-5.68-.52-9.82-2.17-4.09-1.63-6.5-3.73-8.89-5.81-2.39-2.08-3.4-3.49-3.66-5.23-.21-1.39,.02-3.31,.93-3.64,.2-.07,.91-.24,2.96,1.94,2.18,2.32,2.51,3.71,3.66,5.23,2.17,2.86,5.39,3.72,9.53,4.81,2.68,.71,5.9,1.56,6.85,.23,.56-.78-.06-1.74-1.05-4.93-.79-2.54-1.62-5.22-1.75-8.22-.1-2.42-.25-5.88,1.86-7.29,1.16-.78,3.03-.94,4.24-.06,.84,.61,1.12,1.55,1.34,2.29,.6,2.08,.14,3.92,.06,4.29Z"/>
    <g>
      <ellipse cx="1056.54" cy="575.8" rx="7.55" ry="7.63"/>
      <ellipse class="cls-5" cx="1056.34" cy="572.87" rx="2.32" ry="2.35"/>
    </g>
    <g>
      <ellipse cx="1080.38" cy="575.87" rx="7.55" ry="7.63"/>
      <ellipse class="cls-5" cx="1080.18" cy="572.94" rx="2.32" ry="2.35"/>
    </g>
    <path d="M1073.26,568.13c2.33-.75,2.96-1.95,4.7-2.38,1.37-.34,2.98-.09,3.53,0,.89,.14,1.58,.36,2.35,0,.72-.34,1.18-1.19,1.18-1.19,.36-.72,.4-1.67,0-2.38-.75-1.32-2.76-1.23-3.53-1.19-1.28,.06-2.17,.51-3.53,1.19-.42,.21-.34,.19-3.53,2.38-1.22,.84-2.01,1.37-2.35,2.38-.07,.19-.3,.88,0,1.19,.27,.27,.83,.11,1.18,0Z"/>
    <path d="M1063.67,567.75c-2.37-.75-3.02-1.95-4.79-2.38-1.4-.34-3.03-.09-3.59,0-.9,.14-1.61,.36-2.39,0-.73-.34-1.2-1.19-1.2-1.19-.36-.72-.41-1.67,0-2.38,.77-1.32,2.81-1.23,3.59-1.19,1.3,.06,2.21,.51,3.59,1.19,.43,.21,.35,.19,3.59,2.38,1.25,.84,2.04,1.37,2.39,2.38,.07,.19,.31,.88,0,1.19-.27,.27-.84,.11-1.2,0Z"/>
    <path class="cls-3" d="M1078.82,591.87c-.63-1.92-5.56-7.2-11.47-5.98-5.41,1.12-8.88,7.1-8.19,8.54,.28,.58,.82,.85,.82,.85,.75,.38,1.55,.04,1.64,0,.98-.44,1.12-1.55,1.64-2.56,.95-1.86,3.05-3.22,4.92-3.41,2.22-.24,4.65,1.11,5.74,2.56,.09,.12,.67,.91,1.64,1.71,.94,.78,1.39,.85,1.64,.85,.59,.02,1.31-.26,1.64-.85,.35-.64,.1-1.4,0-1.71Z"/>
  </g>
  <g>
    <path class="cls-8" d="M555.06,621.85c2.55,3.02,17.03,19.61,41.3,21.43,18.14,1.36,31.02-6.34,40.21-11.84,0,0,8.8-5.27,16.05-15.89,.76-1.11,1.93-3,2-5.54,.12-4.29-3.01-7.16-3.16-7.3-2.8-2.48-6.25-2.39-8.48-2.33-3.61,.1-5.79,1.25-8.17,2.08-5.92,2.07-11.17,1.52-15.4,1.08-14.74-1.54-24.29-14.58-25.07-15.67-1.75-2.46-8.9-12.51-6.97-24.98,.44-2.86,2.16-13.97,10.12-19.72,2.18-1.58,5.91-3.53,6.99-7.57,.68-2.53,0-4.75-.2-5.38-.1-.31-1.5-4.5-5.47-6.16-2.93-1.22-5.8-.46-7.34-.02-17.85,5.19-26.99,12.5-26.99,12.5-5.43,4.35-14.89,11.92-20.2,24.77-8.21,19.87-3.07,44.08,10.79,60.54Z"/>
    <path class="cls-10" d="M550.7,557.06c4.9-8.8,11.43-13.89,13.85-15.74,4.97-3.8,10.77-6.71,12.13-7.39,2.55-1.28,4.88-2.26,5.23-2.4,2.41-1,4.21-1.62,6.21-2.29,2.23-.75,3.36-1.13,3.9-1.16,2.77-.13,6.12,1.39,7.28,4.18,.2,.47,.85,2.05,.18,3.79-.54,1.38-1.62,2.1-2.05,2.35-.63,.51-1.47,1.22-2.42,2.12-1,.95-2.08,2.09-3.61,3.97-2.2,2.7-3.3,4.05-4.2,5.69-1.4,2.55-1.82,4.66-2.46,7.87-.42,2.14-1.11,5.7-.95,10.42,.21,6.28,1.8,10.98,2.38,12.57,4.55,12.46,14.42,18.82,16.44,20.08,6.65,4.12,12.93,5.22,16.24,5.76,4.31,.71,8,.73,10.65,.58,3.19-.83,5.89-1.36,7.93-1.71,2.55-.43,3.83-.54,5.38-.2,1.08,.24,2.97,.65,4.32,2.26,0,0,1.17,1.4,1.4,3.53,.57,5.34-6.68,11.13-9.84,13.6-6.46,5.06-12.38,7.53-13.59,8.03-6.46,2.65-16.65,6.82-29.04,5.93-26.04-1.88-41.04-24.66-42.48-26.92-8.76-13.76-8.99-27.2-9-29.97,0-3.92,.11-14.12,6.13-24.93Z"/>
    <g>
      <circle cx="563.32" cy="599.64" r="5.65"/>
      <circle class="cls-5" cx="564.37" cy="597.73" r="1.74"/>
    </g>
    <g>
      <circle cx="579.13" cy="589.2" r="5.65"/>
      <circle class="cls-5" cx="580.18" cy="587.29" r="1.74"/>
    </g>
    <path class="cls-3" d="M574.88,606.4c.79,.68,4.4,1.7,6.73-.43,2.13-1.95,2.1-5.53,1.41-5.98-.28-.18-.59-.16-.59-.16-.44,.03-.71,.4-.74,.44-.32,.45-.09,.99-.06,1.58,.07,1.08-.52,2.25-1.3,2.83-.93,.7-2.38,.76-3.25,.4-.07-.03-.54-.22-1.19-.32-.63-.09-.85,0-.96,.06-.27,.15-.52,.47-.51,.82,.01,.38,.33,.65,.45,.76Z"/>
  </g>
</svg>