<?xml version="1.0" encoding="UTF-8"?>
<svg id="Layer_5" data-name="Layer 5" xmlns="http://www.w3.org/2000/svg" viewBox="0 0 128 126">
  <defs>
    <style>
      .cls-1 {
        fill: #fff;
      }

      .cls-2 {
        fill: #4c263a;
      }

      .cls-3 {
        fill: #774060;
      }
    </style>
  </defs>
  <path class="cls-2" d="M86.94,8.05c.93-.8,2.77-2.61,5.93-4.11,5.46-2.58,11.29-2.51,14.6-1.82,11.71,2.44,19.77,18.59,19.62,31.94-.15,13.57-8.8,25.62-11.86,27.37-.33,.19-1.91,1.01-2.74,2.74-.7,1.46-.56,2.9-.46,3.65,.67,4.96,1.01,7.44,4.11,13.23,4.27,7.97-.56,21.81-6.84,29.66-10.11,12.63-28.81,15.8-40.15,11.41-1.91-.74-2.36-1.21-15.51-7.3-6.6-3.06-9.94-4.58-11.41-5.02-12.32-3.65-13.63,.41-20.99-1.82-8.05-2.44-12.66-9.08-14.6-11.86-8.5-12.22-8.71-30.16-1.37-38.32,4.27-4.75,9.12-7.3,9.12-7.3,3.79-1.99,5.42-1.79,7.3-3.65,3.48-3.45,2.47-8.7,2.74-12.77,.65-10.07,9.46-18.96,15.51-22.36,15.53-8.72,36.15,5.66,46.99-3.65Z"/>
  <path class="cls-3" d="M82.69,17.68c.76-.65,2.28-2.15,4.89-3.38,4.49-2.12,9.3-2.07,12.03-1.5,9.65,2.01,16.28,15.32,16.16,26.31-.12,11.18-7.25,21.11-9.77,22.55-.28,.16-1.57,.83-2.26,2.26-.58,1.2-.46,2.39-.38,3.01,.55,4.09,.83,6.13,3.38,10.9,3.52,6.57-.46,17.96-5.64,24.43-8.33,10.4-23.73,13.01-33.07,9.4-1.57-.61-1.94-.99-12.78-6.01-5.44-2.52-8.19-3.78-9.4-4.13-10.15-3.01-11.22,.34-17.29-1.5-6.63-2.01-10.43-7.48-12.03-9.77-7-10.07-7.18-24.84-1.13-31.57,3.52-3.91,7.52-6.01,7.52-6.01,3.12-1.64,4.47-1.47,6.01-3.01,2.87-2.84,2.04-7.17,2.25-10.52,.54-8.29,7.79-15.62,12.78-18.42,12.79-7.18,29.78,4.67,38.71-3.01Z"/>
  <path class="cls-1" d="M63.93,45.16c-.62,.67-.9,1.25-1.84,1.84-.39,.25-1.82,1.13-3.69,.92-2.04-.23-4.03-1.7-4.61-3.69-.14-.48-.48-1.96,.92-4.61,2.21-4.2,6.16-6.46,8.3-7.38,1.71-.74,10-4.31,18.44,0,1.66,.85,7.63,3.89,9.22,10.14,1.73,6.8-2.99,13.39-4.61,15.68-1.57,2.21-2.01,2.05-3.69,4.61-2.81,4.3-2.7,6.47-5.53,9.22-1.09,1.06-2.45,2.38-4.61,2.77-2.75,.49-5.67-.74-7.38-2.77-2.41-2.86-2.5-7.43,0-11.07,1.12-1.36,2.35-2.59,3.69-3.69,1.4-1.15,1.93-1.34,3.69-2.77,2.1-1.7,3.15-2.55,3.69-3.69,.19-.39,1.41-3.09,0-5.53-1.33-2.3-4.01-2.68-4.61-2.77-2.79-.4-5.73,.97-7.38,2.77Z"/>
  <path class="cls-1" d="M67.62,81.12c-2.53,.62-6.16,1.5-7.38,4.61-1.27,3.24,.68,7.37,3.69,9.22,4,2.46,9.36,.57,11.99-2.77,2.19-2.79,3.25-7.57,.92-10.14-2.35-2.59-6.87-1.5-9.22-.92Z"/>
</svg>