<?xml version="1.0" encoding="UTF-8"?>
<svg id="Layer_5" data-name="Layer 5" xmlns="http://www.w3.org/2000/svg" viewBox="0 0 133 124">
  <defs>
    <style>
      .cls-1 {
        fill: #020202;
      }

      .cls-2 {
        fill: #fff;
      }

      .cls-3 {
        fill: #562142;
      }

      .cls-4 {
        fill: #7c375e;
      }
    </style>
  </defs>
  <path class="cls-3" d="M30.67,109.99c3.21,2.48,21.33,15.94,46.05,12.48,18.48-2.59,29.7-13.11,37.71-20.62,0,0,7.67-7.19,12.62-19.42,.52-1.28,1.28-3.42,.8-5.98-.82-4.33-4.58-6.52-4.76-6.62-3.34-1.88-6.78-1.03-9-.48-3.59,.89-5.53,2.51-7.73,3.86-5.48,3.36-10.86,3.96-15.2,4.44-15.1,1.67-27.51-9.31-28.53-10.24-2.29-2.08-11.64-10.6-12.43-23.52-.18-2.96-.88-14.47,5.84-21.97,1.84-2.06,5.15-4.82,5.35-9.1,.13-2.69-1.03-4.76-1.37-5.35-.17-.29-2.49-4.18-6.83-4.98-3.2-.59-5.92,.8-7.36,1.58C29.08,13.14,21.52,22.46,21.52,22.46c-4.5,5.54-12.32,15.18-14.85,29.22-3.9,21.7,6.52,44.83,24,58.31Z"/>
  <path class="cls-4" d="M12.18,46.02c2.99-9.88,8.43-16.41,10.44-18.79,4.15-4.89,9.33-9.07,10.54-10.05,2.28-1.84,4.4-3.33,4.71-3.54,2.19-1.53,3.87-2.54,5.72-3.65,2.07-1.24,3.12-1.87,3.65-2.01,2.75-.73,6.43,.06,8.2,2.6,.3,.43,1.3,1.87,1,3.76-.24,1.5-1.17,2.46-1.54,2.81-.52,.64-1.21,1.54-1.96,2.65-.79,1.17-1.63,2.55-2.76,4.76-1.62,3.18-2.43,4.77-2.97,6.62-.85,2.86-.81,5.06-.75,8.42,.04,2.23,.13,5.95,1.32,10.64,1.58,6.25,4.2,10.6,5.13,12.08,7.27,11.49,18.55,15.72,20.85,16.53,7.56,2.67,14.1,2.41,17.52,2.24,4.47-.22,8.17-1.02,10.8-1.74,3.01-1.52,5.61-2.64,7.57-3.44,2.46-.99,3.72-1.38,5.35-1.37,1.14,0,3.12,0,4.82,1.33,0,0,1.48,1.15,2.17,3.23,1.73,5.23-4.27,12.61-6.89,15.77-5.37,6.48-10.76,10.24-11.87,11-5.9,4.06-15.2,10.46-27.81,12.26-26.5,3.79-46.5-15.77-48.43-17.72-11.78-11.88-14.94-25.29-15.55-28.07-.86-3.92-2.97-14.17,.71-26.31Z"/>
  <g>
    <circle cx="34.11" cy="85.93" r="5.8"/>
    <circle class="cls-2" cx="34.75" cy="83.8" r="1.78"/>
  </g>
  <g>
    <circle cx="47.67" cy="72.03" r="5.8"/>
    <circle class="cls-2" cx="48.31" cy="69.89" r="1.78"/>
  </g>
  <path class="cls-1" d="M47.16,90.19c.94,.51,4.78,.75,6.65-1.89,1.71-2.42,.9-6,.11-6.3-.32-.12-.63-.03-.63-.03-.43,.13-.62,.55-.64,.6-.22,.53,.12,1.01,.29,1.59,.3,1.07-.03,2.36-.69,3.12-.78,.9-2.22,1.27-3.17,1.11-.08-.01-.59-.11-1.26-.06-.65,.05-.85,.18-.95,.27-.24,.21-.42,.58-.33,.93,.1,.38,.47,.58,.62,.66Z"/>
</svg>