<?xml version="1.0" encoding="UTF-8"?>
<svg id="Layer_2" data-name="Layer 2" xmlns="http://www.w3.org/2000/svg" viewBox="0 0 184 174">
  <defs>
    <style>
      .cls-1 {
        fill: #020202;
      }

      .cls-2 {
        fill: #fff;
      }

      .cls-3 {
        fill: #666;
      }

      .cls-4 {
        fill: #1c181a;
      }
    </style>
  </defs>
  <ellipse cx="92.24" cy="85.48" rx="42.48" ry="42.97"/>
  <ellipse class="cls-3" cx="91.77" cy="86.13" rx="35.36" ry="35.77"/>
  <path class="cls-4" d="M58.78,43.32c-4.7,1.35-10.95,8.13-14.18,13.84-3.79,6.71-4.27,13.43-4.16,17.53-.15,.71-.56,2.56-1.67,2.85-1.26,.34-2.71-1.54-2.82-1.69-1.22-1.62-.96-3.78,.72-10.35,1.77-6.93,2.17-6.99,2.08-8.76-.16-3.26-1.55-4.12-3.77-9.18-.94-2.15-2.85-6.59-3.56-12.14-.7-5.5,.11-9.41,.93-13.3,.81-3.88,1.72-5.85,3.44-7.18,1.38-1.07,3.59-1.97,4.49-1.17,.2,.18,.81,.86-.31,4.43-1.19,3.8-2.49,5-3.44,7.18-1.79,4.11-.77,8.18,.53,13.41,.85,3.39,1.86,7.45,3.87,7.7,1.17,.15,1.84-1.11,4.69-4.12,2.27-2.4,4.66-4.93,7.82-6.87,2.54-1.56,6.19-3.81,8.97-2.33,1.54,.81,2.84,2.78,2.61,4.64-.15,1.29-1,2.17-1.67,2.85-1.88,1.91-4.14,2.51-4.59,2.64Z"/>
  <path class="cls-4" d="M108.77,38.72c-3.45-3.5-12.35-5.72-18.85-5.8-7.64-.09-13.68,2.76-17.16,4.85-.69,.21-2.48,.75-3.27-.09-.91-.95,.01-3.14,.09-3.31,.8-1.87,2.8-2.68,9.29-4.4,6.85-1.81,7.09-1.49,8.58-2.43,2.73-1.72,2.8-3.37,6.1-7.79,1.4-1.88,4.3-5.72,8.75-9.05,4.41-3.29,8.18-4.48,11.94-5.65,3.75-1.17,5.89-1.33,7.88-.46,1.59,.7,3.44,2.22,3.19,3.4-.06,.27-.35,1.13-3.98,1.88-3.86,.8-5.53,.23-7.88,.46-4.42,.42-7.44,3.3-11.32,6.99-2.51,2.39-5.53,5.27-4.77,7.17,.44,1.11,1.85,1.09,5.84,2.14,3.18,.84,6.52,1.72,9.74,3.57,2.59,1.49,6.3,3.62,6.38,6.8,.04,1.75-1.02,3.86-2.74,4.57-1.19,.49-2.36,.17-3.27-.09-2.57-.73-4.18-2.43-4.52-2.77Z"/>
  <path class="cls-4" d="M141.47,74.3c1.1-4.81-1.75-13.62-5.14-19.24-3.98-6.59-9.57-10.26-13.17-12.14-.54-.48-1.95-1.73-1.66-2.85,.32-1.28,2.64-1.66,2.82-1.68,1.99-.3,3.73,.98,8.61,5.63,5.15,4.91,5.01,5.29,6.58,6.07,2.9,1.43,4.31,.62,9.77,1.1,2.32,.2,7.08,.65,12.23,2.7,5.1,2.03,8.09,4.64,11.07,7.24,2.97,2.59,4.24,4.35,4.56,6.51,.26,1.73-.03,4.13-1.16,4.54-.25,.09-1.14,.3-3.69-2.41-2.71-2.88-3.13-4.62-4.56-6.51-2.7-3.57-6.71-4.63-11.87-6-3.34-.89-7.35-1.95-8.54-.29-.7,.97,.07,2.17,1.3,6.15,.98,3.17,2.02,6.5,2.17,10.24,.13,3.01,.3,7.32-2.31,9.07-1.45,.97-3.78,1.17-5.28,.07-1.04-.76-1.4-1.93-1.66-2.85-.75-2.59-.18-4.88-.07-5.34Z"/>
  <path class="cls-4" d="M126.93,123.3c4.72-1.26,11.09-7.93,14.42-13.58,3.91-6.64,4.5-13.35,4.47-17.45,.17-.71,.6-2.55,1.72-2.82,1.27-.31,2.68,1.59,2.79,1.74,1.19,1.64,.89,3.8-.9,10.33-1.89,6.9-2.29,6.95-2.23,8.73,.1,3.26,1.47,4.14,3.6,9.25,.91,2.17,2.73,6.64,3.35,12.2,.6,5.51-.28,9.41-1.16,13.28-.88,3.87-1.82,5.82-3.56,7.12-1.39,1.04-3.62,1.9-4.51,1.08-.2-.18-.79-.88,.39-4.43,1.25-3.77,2.58-4.96,3.56-7.12,1.86-4.08,.92-8.16-.3-13.41-.79-3.4-1.73-7.48-3.73-7.77-1.17-.17-1.86,1.07-4.76,4.04-2.31,2.36-4.74,4.84-7.94,6.73-2.57,1.52-6.26,3.69-9.01,2.17-1.52-.84-2.79-2.83-2.53-4.69,.18-1.29,1.04-2.15,1.72-2.82,1.92-1.88,4.18-2.44,4.64-2.56Z"/>
  <path class="cls-4" d="M73.96,134.53c3.65,3.29,12.66,4.98,19.16,4.67,7.63-.36,13.49-3.57,16.85-5.86,.68-.25,2.43-.9,3.27-.11,.96,.9,.17,3.13,.11,3.31-.7,1.91-2.64,2.84-9.02,4.94-6.73,2.21-6.99,1.9-8.43,2.93-2.63,1.88-2.6,3.53-5.64,8.14-1.29,1.96-3.96,5.97-8.21,9.55-4.21,3.55-7.91,4.95-11.59,6.35-3.68,1.39-5.8,1.67-7.84,.92-1.63-.6-3.57-2.01-3.38-3.2,.04-.27,.29-1.15,3.86-2.12,3.8-1.02,5.51-.56,7.84-.92,4.39-.68,7.23-3.73,10.9-7.65,2.37-2.54,5.21-5.58,4.35-7.44-.51-1.08-1.91-.98-5.96-1.79-3.22-.65-6.61-1.33-9.93-2.99-2.67-1.33-6.5-3.24-6.76-6.41-.15-1.75,.8-3.91,2.47-4.72,1.16-.56,2.35-.31,3.27-.11,2.61,.58,4.32,2.18,4.67,2.5Z"/>
  <path class="cls-4" d="M41.75,91.84c-1.1,4.81,1.75,13.62,5.14,19.24,3.98,6.59,9.57,10.26,13.17,12.14,.54,.48,1.95,1.73,1.66,2.85-.32,1.28-2.64,1.66-2.82,1.68-1.99,.3-3.73-.98-8.61-5.63-5.15-4.91-5.01-5.29-6.59-6.07-2.9-1.43-4.31-.62-9.77-1.09-2.32-.2-7.08-.65-12.23-2.7-5.1-2.03-8.09-4.64-11.07-7.24-2.97-2.59-4.24-4.35-4.56-6.51-.26-1.73,.03-4.13,1.16-4.54,.25-.09,1.14-.3,3.69,2.41,2.71,2.88,3.13,4.62,4.56,6.51,2.7,3.57,6.71,4.63,11.87,6,3.34,.89,7.35,1.95,8.54,.29,.69-.97-.07-2.17-1.3-6.15-.98-3.17-2.02-6.5-2.17-10.24-.13-3.01-.31-7.32,2.31-9.07,1.45-.97,3.78-1.17,5.28-.08,1.04,.76,1.4,1.93,1.66,2.85,.75,2.59,.18,4.88,.07,5.34Z"/>
  <g>
    <ellipse cx="77.28" cy="80.22" rx="9.4" ry="9.51"/>
    <ellipse class="cls-2" cx="77.03" cy="76.57" rx="2.89" ry="2.93"/>
  </g>
  <g>
    <ellipse cx="106.97" cy="80.3" rx="9.4" ry="9.51"/>
    <ellipse class="cls-2" cx="106.72" cy="76.65" rx="2.89" ry="2.93"/>
  </g>
  <path d="M98.1,70.66c2.9-.93,3.69-2.43,5.86-2.96,1.71-.42,3.71-.11,4.39,0,1.11,.17,1.97,.45,2.93,0,.9-.42,1.46-1.48,1.46-1.48,.44-.9,.5-2.08,0-2.96-.94-1.64-3.44-1.53-4.39-1.48-1.6,.07-2.7,.63-4.39,1.48-.53,.26-.43,.24-4.39,2.96-1.53,1.05-2.5,1.71-2.93,2.96-.08,.24-.38,1.1,0,1.48,.33,.34,1.03,.14,1.46,0Z"/>
  <path d="M86.17,70.19c-2.95-.93-3.76-2.43-5.96-2.96-1.74-.42-3.77-.11-4.47,0-1.13,.17-2,.45-2.98,0-.91-.42-1.49-1.48-1.49-1.48-.45-.9-.51-2.08,0-2.96,.96-1.64,3.5-1.53,4.47-1.48,1.62,.07,2.75,.63,4.47,1.48,.53,.26,.43,.24,4.47,2.96,1.55,1.05,2.54,1.71,2.98,2.96,.08,.24,.38,1.1,0,1.48-.34,.34-1.05,.14-1.49,0Z"/>
  <path class="cls-1" d="M105.03,100.23c-.78-2.39-6.92-8.96-14.29-7.44-6.74,1.39-11.06,8.84-10.2,10.63,.34,.72,1.02,1.06,1.02,1.06,.94,.48,1.93,.05,2.04,0,1.21-.54,1.4-1.93,2.04-3.19,1.18-2.32,3.8-4.01,6.12-4.25,2.76-.29,5.79,1.38,7.14,3.19,.11,.15,.84,1.14,2.04,2.13,1.18,.97,1.73,1.05,2.04,1.06,.73,.02,1.64-.32,2.04-1.06,.44-.8,.13-1.74,0-2.13Z"/>
</svg>