<?xml version="1.0" encoding="UTF-8"?>
<svg xmlns="http://www.w3.org/2000/svg" xmlns:xlink="http://www.w3.org/1999/xlink" viewBox="0 0 1600 900">
  <defs>
    <style>
      .cls-1, .cls-2 {
        fill: none;
      }

      .cls-3 {
        fill: url(#radial-gradient);
      }

      .cls-3, .cls-4, .cls-5, .cls-6, .cls-7, .cls-8, .cls-9, .cls-10, .cls-11, .cls-12, .cls-13, .cls-14, .cls-15, .cls-16, .cls-17, .cls-18, .cls-19, .cls-20, .cls-21, .cls-22, .cls-23, .cls-24, .cls-25, .cls-26, .cls-27, .cls-28, .cls-29, .cls-30, .cls-31, .cls-2 {
        mix-blend-mode: screen;
      }

      .cls-3, .cls-25 {
        opacity: .25;
      }

      .cls-32 {
        fill: url(#linear-gradient);
      }

      .cls-33 {
        fill: #faa5c8;
      }

      .cls-34 {
        fill: #fff;
      }

      .cls-35 {
        fill: #e2e2e2;
      }

      .cls-36 {
        fill: #b06089;
      }

      .cls-37 {
        fill: #4c263a;
      }

      .cls-4 {
        fill: url(#radial-gradient-5);
      }

      .cls-4, .cls-29, .cls-30 {
        opacity: .15;
      }

      .cls-5 {
        fill: url(#radial-gradient-13);
      }

      .cls-6 {
        fill: url(#radial-gradient-12);
      }

      .cls-7 {
        fill: url(#radial-gradient-16);
      }

      .cls-8 {
        fill: url(#radial-gradient-25);
      }

      .cls-9 {
        fill: url(#radial-gradient-29);
      }

      .cls-10 {
        fill: url(#radial-gradient-28);
      }

      .cls-11 {
        fill: url(#radial-gradient-23);
      }

      .cls-12 {
        fill: url(#radial-gradient-27);
      }

      .cls-13 {
        fill: url(#radial-gradient-26);
      }

      .cls-14 {
        fill: url(#radial-gradient-18);
      }

      .cls-15 {
        fill: url(#radial-gradient-11);
      }

      .cls-16 {
        fill: url(#radial-gradient-10);
      }

      .cls-17 {
        fill: url(#radial-gradient-19);
      }

      .cls-18 {
        fill: url(#radial-gradient-3);
      }

      .cls-19 {
        fill: url(#radial-gradient-9);
      }

      .cls-20 {
        fill: url(#radial-gradient-7);
      }

      .cls-21 {
        fill: url(#radial-gradient-2);
      }

      .cls-22 {
        fill: url(#radial-gradient-6);
      }

      .cls-22, .cls-23, .cls-26, .cls-27, .cls-28 {
        opacity: .5;
      }

      .cls-23 {
        fill: url(#radial-gradient-8);
      }

      .cls-24 {
        fill: url(#radial-gradient-4);
      }

      .cls-24, .cls-31 {
        opacity: .2;
      }

      .cls-25 {
        fill: url(#radial-gradient-17);
      }

      .cls-26 {
        fill: url(#radial-gradient-24);
      }

      .cls-27 {
        fill: url(#radial-gradient-22);
      }

      .cls-28 {
        fill: url(#radial-gradient-15);
      }

      .cls-29 {
        fill: url(#radial-gradient-14);
      }

      .cls-30 {
        fill: url(#radial-gradient-21);
      }

      .cls-31 {
        fill: url(#radial-gradient-20);
      }

      .cls-2 {
        opacity: .03;
        stroke: #fff;
        stroke-miterlimit: 10;
        stroke-width: 2px;
      }

      .cls-38 {
        fill: url(#linear-gradient-3);
      }

      .cls-39 {
        fill: url(#linear-gradient-4);
      }

      .cls-40 {
        fill: url(#linear-gradient-2);
      }

      .cls-41 {
        isolation: isolate;
      }
    </style>
    <linearGradient id="linear-gradient" x1="1390.9" y1="1637.62" x2="310.82" y2="326.72" gradientTransform="translate(1774.2) rotate(-180) scale(.99 -1)" gradientUnits="userSpaceOnUse">
      <stop offset="0" stop-color="#fff"/>
      <stop offset=".03" stop-color="#fef4f0"/>
      <stop offset=".11" stop-color="#fcdbce"/>
      <stop offset=".19" stop-color="#fac7b2"/>
      <stop offset=".28" stop-color="#f9b99f"/>
      <stop offset=".36" stop-color="#f9b093"/>
      <stop offset=".45" stop-color="#f9ae90"/>
      <stop offset=".82" stop-color="#774060"/>
    </linearGradient>
    <radialGradient id="radial-gradient" cx="1379.98" cy="-37.12" fx="1379.98" fy="-37.12" r="124.37" gradientUnits="userSpaceOnUse">
      <stop offset=".1" stop-color="#000"/>
      <stop offset=".15" stop-color="#181407"/>
      <stop offset=".21" stop-color="#2e250d"/>
      <stop offset=".27" stop-color="#3f3312"/>
      <stop offset=".36" stop-color="#4b3c15"/>
      <stop offset=".47" stop-color="#524217"/>
      <stop offset=".8" stop-color="#544418"/>
      <stop offset="1" stop-color="#000"/>
    </radialGradient>
    <radialGradient id="radial-gradient-2" cx="842.69" cy="291.57" fx="842.69" fy="291.57" r="4.15" gradientUnits="userSpaceOnUse">
      <stop offset="0" stop-color="#cae095"/>
      <stop offset=".06" stop-color="#a7b97b"/>
      <stop offset=".14" stop-color="#808e5e"/>
      <stop offset=".22" stop-color="#5d6845"/>
      <stop offset=".31" stop-color="#40472f"/>
      <stop offset=".4" stop-color="#292d1e"/>
      <stop offset=".5" stop-color="#161910"/>
      <stop offset=".62" stop-color="#090a07"/>
      <stop offset=".76" stop-color="#020201"/>
      <stop offset="1" stop-color="#000"/>
    </radialGradient>
    <radialGradient id="radial-gradient-3" cx="418.71" cy="550.94" fx="418.71" fy="550.94" r="4.15" xlink:href="#radial-gradient-2"/>
    <radialGradient id="radial-gradient-4" cx="457.16" cy="527.42" fx="457.16" fy="527.42" r="31.09" gradientUnits="userSpaceOnUse">
      <stop offset=".05" stop-color="#000"/>
      <stop offset=".09" stop-color="#030803"/>
      <stop offset=".3" stop-color="#133314"/>
      <stop offset=".48" stop-color="#1e5221"/>
      <stop offset=".64" stop-color="#256529"/>
      <stop offset=".75" stop-color="#286c2c"/>
      <stop offset=".79" stop-color="#4b6b19"/>
      <stop offset=".84" stop-color="#6d6b06"/>
      <stop offset=".86" stop-color="#7b6b00"/>
      <stop offset=".89" stop-color="#776700"/>
      <stop offset=".91" stop-color="#6c5e00"/>
      <stop offset=".94" stop-color="#5a4e00"/>
      <stop offset=".96" stop-color="#403800"/>
      <stop offset=".98" stop-color="#201b00"/>
      <stop offset="1" stop-color="#000"/>
    </radialGradient>
    <radialGradient id="radial-gradient-5" cx="1187.72" cy="80.49" fx="1187.72" fy="80.49" r="82.91" gradientUnits="userSpaceOnUse">
      <stop offset="0" stop-color="#230000"/>
      <stop offset=".73" stop-color="#93432a"/>
      <stop offset="1" stop-color="#230000"/>
    </radialGradient>
    <radialGradient id="radial-gradient-6" cx="1187.72" cy="80.49" fx="1187.72" fy="80.49" r="41.46" gradientUnits="userSpaceOnUse">
      <stop offset=".15" stop-color="#fff"/>
      <stop offset=".21" stop-color="#e1d0d1"/>
      <stop offset=".29" stop-color="#bf9a9c"/>
      <stop offset=".36" stop-color="#a67275"/>
      <stop offset=".42" stop-color="#96595d"/>
      <stop offset=".45" stop-color="#915155"/>
      <stop offset=".56" stop-color="#6b3538"/>
      <stop offset=".68" stop-color="#441819"/>
      <stop offset=".79" stop-color="#2b0606"/>
      <stop offset=".85" stop-color="#230000"/>
      <stop offset=".86" stop-color="#270201"/>
      <stop offset=".86" stop-color="#330805"/>
      <stop offset=".87" stop-color="#48120b"/>
      <stop offset=".88" stop-color="#652014"/>
      <stop offset=".89" stop-color="#8a331f"/>
      <stop offset=".9" stop-color="#b8492c"/>
      <stop offset=".9" stop-color="#d65836"/>
      <stop offset=".9" stop-color="#c95132"/>
      <stop offset=".91" stop-color="#9d3c24"/>
      <stop offset=".93" stop-color="#772919"/>
      <stop offset=".94" stop-color="#581a10"/>
      <stop offset=".95" stop-color="#410e09"/>
      <stop offset=".97" stop-color="#300603"/>
      <stop offset=".98" stop-color="#260100"/>
      <stop offset="1" stop-color="#230000"/>
    </radialGradient>
    <radialGradient id="radial-gradient-7" cx="1187.72" cy="80.49" fx="1187.72" fy="80.49" r="34.55" gradientUnits="userSpaceOnUse">
      <stop offset=".15" stop-color="#fff"/>
      <stop offset=".28" stop-color="#c2c2c2"/>
      <stop offset=".43" stop-color="#878787"/>
      <stop offset=".56" stop-color="#575757"/>
      <stop offset=".69" stop-color="#313131"/>
      <stop offset=".81" stop-color="#161616"/>
      <stop offset=".92" stop-color="#050505"/>
      <stop offset="1" stop-color="#000"/>
    </radialGradient>
    <radialGradient id="radial-gradient-8" cx="418.71" cy="550.94" fx="418.71" fy="550.94" r="62.18" gradientUnits="userSpaceOnUse">
      <stop offset=".64" stop-color="#000"/>
      <stop offset=".72" stop-color="#000100"/>
      <stop offset=".75" stop-color="#000802"/>
      <stop offset=".77" stop-color="#001404"/>
      <stop offset=".78" stop-color="#002508"/>
      <stop offset=".8" stop-color="#003b0d"/>
      <stop offset=".8" stop-color="#004510"/>
      <stop offset=".82" stop-color="#182809"/>
      <stop offset=".83" stop-color="#2a1104"/>
      <stop offset=".85" stop-color="#360401"/>
      <stop offset=".86" stop-color="#3a0000"/>
      <stop offset=".87" stop-color="#250000"/>
      <stop offset=".89" stop-color="#140000"/>
      <stop offset=".9" stop-color="#080000"/>
      <stop offset=".93" stop-color="#010000"/>
      <stop offset="1" stop-color="#000"/>
    </radialGradient>
    <radialGradient id="radial-gradient-9" cx="466" cy="522.01" fx="466" fy="522.01" r="15.73" gradientUnits="userSpaceOnUse">
      <stop offset=".1" stop-color="#000"/>
      <stop offset=".18" stop-color="#1f1616"/>
      <stop offset=".31" stop-color="#483534"/>
      <stop offset=".44" stop-color="#6b4e4d"/>
      <stop offset=".58" stop-color="#856260"/>
      <stop offset=".71" stop-color="#986f6e"/>
      <stop offset=".85" stop-color="#a47876"/>
      <stop offset="1" stop-color="#a87b79"/>
    </radialGradient>
    <radialGradient id="radial-gradient-10" cx="646.51" cy="411.59" fx="646.51" fy="411.59" r="13.17" gradientUnits="userSpaceOnUse">
      <stop offset=".1" stop-color="#000"/>
      <stop offset=".13" stop-color="#020607"/>
      <stop offset=".3" stop-color="#102329"/>
      <stop offset=".46" stop-color="#1a3a43"/>
      <stop offset=".64" stop-color="#224a56"/>
      <stop offset=".81" stop-color="#265462"/>
      <stop offset="1" stop-color="#285866"/>
    </radialGradient>
    <radialGradient id="radial-gradient-11" cx="656.42" cy="405.52" fx="656.42" fy="405.52" r="14.57" gradientUnits="userSpaceOnUse">
      <stop offset=".1" stop-color="#a87b79"/>
      <stop offset=".18" stop-color="#886462"/>
      <stop offset=".31" stop-color="#5f4544"/>
      <stop offset=".44" stop-color="#3c2c2b"/>
      <stop offset=".58" stop-color="#221818"/>
      <stop offset=".71" stop-color="#0f0b0a"/>
      <stop offset=".85" stop-color="#030202"/>
      <stop offset="1" stop-color="#000"/>
    </radialGradient>
    <radialGradient id="radial-gradient-12" cx="896.48" cy="258.66" fx="896.48" fy="258.66" r="4.87" gradientUnits="userSpaceOnUse">
      <stop offset=".1" stop-color="#000"/>
      <stop offset=".19" stop-color="#121812"/>
      <stop offset=".35" stop-color="#2d3a2b"/>
      <stop offset=".5" stop-color="#41543f"/>
      <stop offset=".66" stop-color="#50674d"/>
      <stop offset=".83" stop-color="#597356"/>
      <stop offset="1" stop-color="#5c7759"/>
    </radialGradient>
    <radialGradient id="radial-gradient-13" cx="1149.98" cy="103.58" fx="1149.98" fy="103.58" r="11.93" gradientUnits="userSpaceOnUse">
      <stop offset=".1" stop-color="#2e0200"/>
      <stop offset=".22" stop-color="#210100"/>
      <stop offset=".47" stop-color="#0f0000"/>
      <stop offset=".73" stop-color="#030000"/>
      <stop offset="1" stop-color="#000"/>
    </radialGradient>
    <linearGradient id="linear-gradient-2" x1="846.38" y1="1386.42" x2="-47.47" y2="301.53" gradientTransform="matrix(1, 0, 0, 1, 0, 0)" xlink:href="#linear-gradient"/>
    <radialGradient id="radial-gradient-14" cx="1399.04" cy="358.11" fx="1399.04" fy="358.11" r="188.75" xlink:href="#radial-gradient-5"/>
    <radialGradient id="radial-gradient-15" cx="1399.04" cy="358.11" fx="1399.04" fy="358.11" r="94.37" xlink:href="#radial-gradient-6"/>
    <radialGradient id="radial-gradient-16" cx="1399.04" cy="358.11" fx="1399.04" fy="358.11" r="78.64" xlink:href="#radial-gradient-7"/>
    <radialGradient id="radial-gradient-17" cx="3230.84" cy="-1099.01" fx="3230.84" fy="-1099.01" r="124.37" gradientTransform="translate(-1452.12 -1481.51) rotate(53.45)" xlink:href="#radial-gradient"/>
    <radialGradient id="radial-gradient-18" cx="2815.1" cy="-844.67" fx="2815.1" fy="-844.67" r="4.15" gradientTransform="translate(58.08 -2537.96) rotate(90)" xlink:href="#radial-gradient-2"/>
    <radialGradient id="radial-gradient-19" cx="2269.58" cy="-510.94" fx="2269.58" fy="-510.94" r="4.15" gradientTransform="translate(-201.14 -2231.98) rotate(90)" xlink:href="#radial-gradient-2"/>
    <radialGradient id="radial-gradient-20" cx="2308.03" cy="-534.46" fx="2308.03" fy="-534.46" r="31.09" gradientTransform="translate(162.29 -2307.05) rotate(98.45)" xlink:href="#radial-gradient-4"/>
    <radialGradient id="radial-gradient-21" cx="3038.59" cy="-981.39" fx="3038.59" fy="-981.39" r="82.91" gradientTransform="translate(-1452.12 -1481.51) rotate(53.45)" xlink:href="#radial-gradient-5"/>
    <radialGradient id="radial-gradient-22" cx="3038.59" cy="-981.39" fx="3038.59" fy="-981.39" r="41.46" gradientTransform="translate(-1452.12 -1481.51) rotate(53.45)" xlink:href="#radial-gradient-6"/>
    <radialGradient id="radial-gradient-23" cx="3038.59" cy="-981.39" fx="3038.59" fy="-981.39" r="34.55" gradientTransform="translate(-1452.12 -1481.51) rotate(53.45)" xlink:href="#radial-gradient-7"/>
    <radialGradient id="radial-gradient-24" cx="2269.58" cy="-510.94" fx="2269.58" fy="-510.94" r="62.18" gradientTransform="translate(-1452.12 -1481.51) rotate(53.45)" xlink:href="#radial-gradient-8"/>
    <radialGradient id="radial-gradient-25" cx="2349.46" cy="-559.81" fx="2349.46" fy="-559.81" r="16.01" gradientTransform="translate(-1452.12 -1481.51) rotate(53.45)" gradientUnits="userSpaceOnUse">
      <stop offset=".1" stop-color="#000"/>
      <stop offset=".3" stop-color="#001713"/>
      <stop offset=".52" stop-color="#002922"/>
      <stop offset=".75" stop-color="#00352b"/>
      <stop offset="1" stop-color="#00392f"/>
    </radialGradient>
    <radialGradient id="radial-gradient-26" cx="2662.68" cy="-751.43" fx="2662.68" fy="-751.43" r="8.38" gradientTransform="translate(-14.34 -2452.47) rotate(90)" gradientUnits="userSpaceOnUse">
      <stop offset=".1" stop-color="#000"/>
      <stop offset=".27" stop-color="#130d0a"/>
      <stop offset=".5" stop-color="#251a15"/>
      <stop offset=".74" stop-color="#31221b"/>
      <stop offset="1" stop-color="#35251e"/>
    </radialGradient>
    <radialGradient id="radial-gradient-27" cx="2709.92" cy="-780.32" fx="2709.92" fy="-780.32" r="18.78" gradientTransform="translate(8.1 -2478.96) rotate(90)" gradientUnits="userSpaceOnUse">
      <stop offset=".1" stop-color="#000"/>
      <stop offset=".22" stop-color="#150c03"/>
      <stop offset=".41" stop-color="#2f1a08"/>
      <stop offset=".6" stop-color="#42250c"/>
      <stop offset=".79" stop-color="#4e2b0e"/>
      <stop offset="1" stop-color="#522e0f"/>
    </radialGradient>
    <radialGradient id="radial-gradient-28" cx="2609.53" cy="-718.91" fx="2609.53" fy="-718.91" r="1.43" gradientTransform="translate(-39.6 -2422.66) rotate(90)" gradientUnits="userSpaceOnUse">
      <stop offset=".1" stop-color="#000"/>
      <stop offset=".17" stop-color="#100507"/>
      <stop offset=".32" stop-color="#321117"/>
      <stop offset=".49" stop-color="#4c1a23"/>
      <stop offset=".65" stop-color="#5f202c"/>
      <stop offset=".82" stop-color="#6b2431"/>
      <stop offset="1" stop-color="#6f2633"/>
    </radialGradient>
    <radialGradient id="radial-gradient-29" cx="2998" cy="-956.56" fx="2998" fy="-956.56" r="2.76" gradientTransform="translate(144.99 -2640.55) rotate(90)" gradientUnits="userSpaceOnUse">
      <stop offset=".1" stop-color="#005326"/>
      <stop offset=".23" stop-color="#003c1b"/>
      <stop offset=".41" stop-color="#00220f"/>
      <stop offset=".6" stop-color="#000f06"/>
      <stop offset=".79" stop-color="#000301"/>
      <stop offset="1" stop-color="#000"/>
    </radialGradient>
    <linearGradient id="linear-gradient-3" x1="516.5" y1="1392.05" x2="40.99" y2="242" gradientUnits="userSpaceOnUse">
      <stop offset="0" stop-color="#fff"/>
      <stop offset=".03" stop-color="#fef4f0"/>
      <stop offset=".11" stop-color="#fcdbce"/>
      <stop offset=".19" stop-color="#fac7b2"/>
      <stop offset=".28" stop-color="#f9b99f"/>
      <stop offset=".36" stop-color="#f9b093"/>
      <stop offset=".45" stop-color="#f9ae90"/>
      <stop offset=".82" stop-color="#b06089"/>
    </linearGradient>
    <linearGradient id="linear-gradient-4" x1="669.25" y1="1219.75" x2="83.09" y2="508.32" gradientTransform="matrix(1, 0, 0, 1, 0, 0)" xlink:href="#linear-gradient"/>
  </defs>
  <g class="cls-41">
    <g id="Layer_5" data-name="Layer 5">
      <rect class="cls-33" x="-.24" y=".34" width="1604.1" height="913.17"/>
      <path class="cls-32" d="M1703.87,473.81s-158.6-88.4-347.03,198.82c-188.43,287.23-522.9,143.15-522.9,143.15,0,0-259.1-141.28-282.65,45.84-23.55,187.12-345.46,89.82-345.46,89.82,0,0-136.61-88.88-152.32,46.78-15.7,135.66,1706.89,51.46,1706.89,51.46l-56.53-575.87Z"/>
      <g>
        <circle class="cls-3" cx="1379.98" cy="-37.12" r="124.37"/>
        <circle class="cls-21" cx="842.69" cy="291.57" r="4.15"/>
        <circle class="cls-18" cx="418.71" cy="550.94" r="4.15"/>
        <circle class="cls-24" cx="457.16" cy="527.42" r="31.09"/>
        <line class="cls-1" x1="1187.72" y1="80.49" x2="418.71" y2="550.94"/>
        <circle class="cls-4" cx="1187.72" cy="80.49" r="82.91"/>
        <circle class="cls-22" cx="1187.72" cy="80.49" r="41.46"/>
        <circle class="cls-20" cx="1187.72" cy="80.49" r="34.55"/>
        <polyline class="cls-2" points="1187.72 80.49 1207.65 82.26 1187.72 80.49 1167.79 78.71 1187.72 80.49 1185.95 100.42 1187.72 80.49 1189.5 60.56 1187.72 80.49 1193.6 96.92 1187.72 80.49 1181.85 64.05 1187.72 80.49 1171.29 86.36 1187.72 80.49 1204.16 74.62 1187.72 80.49 1189.87 81.04 1187.72 80.49 1185.58 79.94 1187.72 80.49 1187.17 82.63 1187.72 80.49 1188.27 78.34 1187.72 80.49 1217.63 81.57 1187.72 80.49 1157.82 79.4 1187.72 80.49 1186.64 110.4 1187.72 80.49 1188.81 50.58 1187.72 80.49 1372.14 162.1 1187.72 80.49 1003.3 -1.12 1187.72 80.49 1106.11 264.91 1187.72 80.49 1269.34 -103.93 1187.72 80.49 1264.66 102.3 1187.72 80.49 1110.79 58.68 1187.72 80.49 1165.92 157.42 1187.72 80.49 1209.53 3.56 1187.72 80.49 1259.23 173.18 1187.72 80.49 1116.21 -12.21 1187.72 80.49 1095.03 152 1187.72 80.49 1280.42 8.98 1187.72 80.49 1277.1 86.56 1187.72 80.49 1098.34 74.42 1187.72 80.49 1181.66 169.87 1187.72 80.49 1193.79 -8.89 1187.72 80.49 1223.16 89.73 1187.72 80.49 1152.29 71.25 1187.72 80.49 1178.49 115.92 1187.72 80.49 1196.96 45.05 1187.72 80.49 1252.15 131.8 1187.72 80.49 1123.3 29.18 1187.72 80.49 1136.41 144.91 1187.72 80.49 1239.04 16.06 1187.72 80.49 1260.45 175.71 1187.72 80.49 1115 -14.73 1187.72 80.49 1092.5 153.22 1187.72 80.49 1282.94 7.76 1187.72 80.49 1198.02 109.66 1187.72 80.49 1177.43 51.31 1187.72 80.49 1158.55 90.79 1187.72 80.49 1216.9 70.19 1187.72 80.49 1200.38 93.32 1187.72 80.49 1175.07 67.66 1187.72 80.49 1174.89 93.15 1187.72 80.49 1200.55 67.83 1187.72 80.49 1208.45 96.51 1187.72 80.49 1166.99 64.47 1187.72 80.49 1171.71 101.22 1187.72 80.49 1203.74 59.76 1187.72 80.49 1207.38 261.31 1187.72 80.49 1168.06 -100.33 1187.72 80.49 1006.9 100.15 1187.72 80.49 1368.54 60.83"/>
        <circle class="cls-23" cx="418.71" cy="550.94" r="62.18"/>
        <circle class="cls-19" cx="466" cy="522.01" r="15.73"/>
        <circle class="cls-16" cx="646.51" cy="411.59" r="13.17"/>
        <circle class="cls-15" cx="656.42" cy="405.52" r="14.57"/>
        <circle class="cls-6" cx="896.48" cy="258.66" r="4.87"/>
        <circle class="cls-5" cx="1149.98" cy="103.58" r="11.93"/>
      </g>
      <path class="cls-40" d="M-45.88,258.59s103.04-112.9,225.46,253.92c122.42,366.82,339.73,182.81,339.73,182.81,0,0,168.33-180.42,183.64,58.55,15.3,238.97,224.44,114.71,224.44,114.71,0,0,88.76-113.51,98.96,59.74,10.2,173.26-1108.96,65.72-1108.96,65.72L-45.88,258.59Z"/>
      <g>
        <circle class="cls-34" cx="546.75" cy="16.04" r="1.31"/>
        <circle class="cls-34" cx="162.2" cy="195.2" r="1.31"/>
        <circle class="cls-34" cx="403.7" cy="327.29" r="1.35"/>
        <circle class="cls-34" cx="512.17" cy="314.34" r="1.27"/>
        <circle class="cls-34" cx="435.88" cy="220.14" r="1.29"/>
        <circle class="cls-34" cx="386.57" cy="322.2" r="1.29"/>
        <circle class="cls-34" cx="305.06" cy="472.42" r="1.24"/>
        <circle class="cls-34" cx="400.62" cy="724.06" r="1.31"/>
        <circle class="cls-34" cx="658.67" cy="691.39" r="1.21"/>
        <circle class="cls-34" cx="790.48" cy="515.22" r="1.31"/>
        <circle class="cls-34" cx="811.64" cy="364.89" r="1.21"/>
        <circle class="cls-34" cx="620.28" cy="139.77" r="1.24"/>
        <circle class="cls-34" cx="462.6" cy="134.02" r="1.24"/>
        <circle class="cls-34" cx="342.76" cy="160.88" r="1.23"/>
        <circle class="cls-34" cx="228.08" cy="119.87" r="1.26"/>
        <circle class="cls-34" cx="94.74" cy="69.74" r="1.31"/>
      </g>
      <g>
        <circle class="cls-34" cx="240.6" cy="287.1" r="1.22"/>
        <circle class="cls-34" cx="471.69" cy="316.33" r="1.26"/>
        <circle class="cls-34" cx="600.83" cy="266" r="1.32"/>
        <circle class="cls-34" cx="645.89" cy="238.26" r="1.26"/>
        <circle class="cls-34" cx="669.26" cy="238.97" r="1.25"/>
        <circle class="cls-34" cx="619.64" cy="309.9" r="1.3"/>
        <circle class="cls-34" cx="811.71" cy="464.23" r="1.29"/>
        <circle class="cls-34" cx="943.51" cy="495.73" r="1.29"/>
        <circle class="cls-34" cx="1049.02" cy="522.27" r="1.26"/>
        <circle class="cls-34" cx="1128.67" cy="566.87" r="1.25"/>
        <circle class="cls-34" cx="1218.69" cy="606.01" r="1.36"/>
        <circle class="cls-34" cx="1200.47" cy="441.03" r="1.25"/>
        <circle class="cls-34" cx="1086.75" cy="702.56" r="1.24"/>
        <circle class="cls-34" cx="1271.62" cy="814.11" r="1.35"/>
        <circle class="cls-34" cx="1480.18" cy="769.24" r="1.23"/>
        <circle class="cls-34" cx="1575.03" cy="557.65" r="1.26"/>
        <circle class="cls-34" cx="1577.16" cy="347" r="1.32"/>
        <circle class="cls-34" cx="1468.89" cy="206.47" r="1.35"/>
        <circle class="cls-34" cx="1196.44" cy="250.43" r="1.31"/>
        <circle class="cls-34" cx="1416.75" cy="483.8" r="1.22"/>
        <circle class="cls-34" cx="1573.92" cy="388.88" r="1.21"/>
        <circle class="cls-34" cx="1482.85" cy="7.69" r="1.36"/>
        <circle class="cls-34" cx="1039.35" cy="36.01" r="1.26"/>
        <circle class="cls-34" cx="896.49" cy="133.02" r="1.29"/>
        <circle class="cls-34" cx="800.53" cy="292.22" r="1.25"/>
        <circle class="cls-34" cx="820.71" cy="544.24" r="1.29"/>
        <circle class="cls-34" cx="1043.42" cy="589.9" r="1.33"/>
        <circle class="cls-34" cx="1182.43" cy="528.59" r="1.34"/>
        <circle class="cls-34" cx="1175.27" cy="228.28" r="1.33"/>
        <circle class="cls-34" cx="1055.15" cy="173.2" r="1.24"/>
        <circle class="cls-34" cx="938.36" cy="150.31" r="1.21"/>
        <circle class="cls-34" cx="758.8" cy="162.02" r="1.32"/>
        <circle class="cls-34" cx="620.56" cy="171.25" r="1.28"/>
        <circle class="cls-34" cx="510.38" cy="230.91" r="1.26"/>
        <circle class="cls-34" cx="367.75" cy="307.76" r="1.31"/>
        <circle class="cls-34" cx="323.53" cy="576.21" r="1.32"/>
        <circle class="cls-34" cx="485.53" cy="702.47" r="1.22"/>
        <circle class="cls-34" cx="673.5" cy="736.11" r="1.21"/>
        <circle class="cls-34" cx="863.44" cy="590.46" r="1.34"/>
        <circle class="cls-34" cx="799.66" cy="314.12" r="1.27"/>
        <circle class="cls-34" cx="682.16" cy="209.85" r="1.33"/>
        <circle class="cls-34" cx="506.81" cy="196.92" r="1.35"/>
        <circle class="cls-34" cx="297.27" cy="352.67" r="1.36"/>
      </g>
      <g>
        <circle class="cls-34" cx="91.54" cy="17.67" r="1.31"/>
        <circle class="cls-34" cx="222.68" cy="440.07" r="1.3"/>
        <circle class="cls-34" cx="420.4" cy="374.53" r="1.32"/>
        <circle class="cls-34" cx="534.64" cy="205.05" r="1.29"/>
        <circle class="cls-34" cx="599.79" cy="148.46" r="1.27"/>
        <circle class="cls-34" cx="688.58" cy="138.44" r="1.3"/>
        <circle class="cls-34" cx="798.5" cy="116.1" r="1.23"/>
        <circle class="cls-34" cx="901.39" cy="122.98" r="1.28"/>
        <circle class="cls-34" cx="1035.7" cy="209.76" r="1.3"/>
        <circle class="cls-34" cx="1148.17" cy="266.11" r="1.31"/>
        <circle class="cls-34" cx="1072.29" cy="60.66" r="1.35"/>
        <circle class="cls-34" cx="918.74" cy="173.08" r="1.34"/>
        <circle class="cls-34" cx="886.04" cy="336.76" r="1.3"/>
        <circle class="cls-34" cx="842.76" cy="484.35" r="1.3"/>
        <circle class="cls-34" cx="939.94" cy="695.24" r="1.34"/>
        <circle class="cls-34" cx="1155.03" cy="728.26" r="1.23"/>
      </g>
      <g>
        <line class="cls-1" x1="1399.04" y1="358.11" x2="1332.31" y2="424.84"/>
        <circle class="cls-1" cx="1399.04" cy="358.11" r="78.64"/>
        <circle class="cls-1" cx="1399.04" cy="358.11" r="94.37"/>
        <polyline class="cls-1" points="1399.04 358.11 1804.09 572.42 1399.04 358.11 993.98 143.79 1399.04 358.11 1184.72 763.16 1399.04 358.11 1613.36 -46.95 1399.04 358.11 1670.38 151.44 1399.04 358.11 1127.7 564.77 1399.04 358.11 1605.7 629.45 1399.04 358.11 1192.37 86.77 1399.04 358.11 1435.01 363.69 1399.04 358.11 1363.06 352.52 1399.04 358.11 1393.45 394.08 1399.04 358.11 1404.63 322.13 1399.04 358.11 1848.64 383.39 1399.04 358.11 949.44 332.82 1399.04 358.11 1373.75 807.71 1399.04 358.11 1424.32 -91.49 1399.04 358.11 1475.61 369.21 1399.04 358.11 1322.46 347.01 1399.04 358.11 1387.94 434.68 1399.04 358.11 1410.14 281.53 1399.04 358.11 1813.66 250.14 1399.04 358.11 984.42 466.08 1399.04 358.11 1507.01 772.73 1399.04 358.11 1291.07 -56.52 1399.04 358.11 1436.09 345.86 1399.04 358.11 1361.98 370.35 1399.04 358.11 1411.28 395.16 1399.04 358.11 1386.8 321.05 1399.04 358.11 1567.86 242.24 1399.04 358.11 1230.21 473.98 1399.04 358.11 1514.91 526.93 1399.04 358.11 1283.17 189.28 1399.04 358.11 1530.8 436.35 1399.04 358.11 1267.28 279.87 1399.04 358.11 1320.8 489.87 1399.04 358.11 1477.28 226.35 1399.04 358.11 1724.11 73.08 1399.04 358.11 1073.96 643.13 1399.04 358.11 1684.06 683.18 1399.04 358.11 1114.01 33.03 1399.04 358.11 1825.7 252.88 1399.04 358.11 972.37 463.34 1399.04 358.11 1504.27 784.77 1399.04 358.11 1293.81 -68.56 1399.04 358.11 1581.08 353.71 1399.04 358.11 1216.99 362.5 1399.04 358.11 1403.43 540.15 1399.04 358.11 1394.65 176.06 1399.04 358.11 1613.5 306.91 1399.04 358.11 1184.57 409.3 1399.04 358.11 1450.23 572.57 1399.04 358.11 1347.84 143.64 1399.04 358.11 1597.45 498.46 1399.04 358.11 1200.62 217.75 1399.04 358.11 1258.68 556.52 1399.04 358.11 1539.39 159.69 1399.04 358.11 1646.59 497.5 1399.04 358.11 1151.49 218.71 1399.04 358.11 1259.64 605.66 1399.04 358.11 1538.43 110.56"/>
        <circle class="cls-29" cx="1399.04" cy="358.11" r="188.75"/>
        <circle class="cls-28" cx="1399.04" cy="358.11" r="94.37"/>
        <circle class="cls-7" cx="1399.04" cy="358.11" r="78.64"/>
        <polyline class="cls-2" points="1399.04 358.11 1804.09 572.42 1399.04 358.11 993.98 143.79 1399.04 358.11 1184.72 763.16 1399.04 358.11 1613.36 -46.95 1399.04 358.11 1670.38 151.44 1399.04 358.11 1127.7 564.77 1399.04 358.11 1605.7 629.45 1399.04 358.11 1192.37 86.77 1399.04 358.11 1435.01 363.69 1399.04 358.11 1363.06 352.52 1399.04 358.11 1393.45 394.08 1399.04 358.11 1404.63 322.13 1399.04 358.11 1848.64 383.39 1399.04 358.11 949.44 332.82 1399.04 358.11 1373.75 807.71 1399.04 358.11 1424.32 -91.49 1399.04 358.11 1475.61 369.21 1399.04 358.11 1322.46 347.01 1399.04 358.11 1387.94 434.68 1399.04 358.11 1410.14 281.53 1399.04 358.11 1813.66 250.14 1399.04 358.11 984.42 466.08 1399.04 358.11 1507.01 772.73 1399.04 358.11 1291.07 -56.52 1399.04 358.11 1436.09 345.86 1399.04 358.11 1361.98 370.35 1399.04 358.11 1411.28 395.16 1399.04 358.11 1386.8 321.05 1399.04 358.11 1567.86 242.24 1399.04 358.11 1230.21 473.98 1399.04 358.11 1514.91 526.93 1399.04 358.11 1283.17 189.28 1399.04 358.11 1530.8 436.35 1399.04 358.11 1267.28 279.87 1399.04 358.11 1320.8 489.87 1399.04 358.11 1477.28 226.35 1399.04 358.11 1724.11 73.08 1399.04 358.11 1073.96 643.13 1399.04 358.11 1684.06 683.18 1399.04 358.11 1114.01 33.03 1399.04 358.11 1825.7 252.88 1399.04 358.11 972.37 463.34 1399.04 358.11 1504.27 784.77 1399.04 358.11 1293.81 -68.56 1399.04 358.11 1581.08 353.71 1399.04 358.11 1216.99 362.5 1399.04 358.11 1403.43 540.15 1399.04 358.11 1394.65 176.06 1399.04 358.11 1613.5 306.91 1399.04 358.11 1184.57 409.3 1399.04 358.11 1450.23 572.57 1399.04 358.11 1347.84 143.64 1399.04 358.11 1597.45 498.46 1399.04 358.11 1200.62 217.75 1399.04 358.11 1258.68 556.52 1399.04 358.11 1539.39 159.69 1399.04 358.11 1646.59 497.5 1399.04 358.11 1151.49 218.71 1399.04 358.11 1259.64 605.66 1399.04 358.11 1538.43 110.56"/>
      </g>
      <g>
        <circle class="cls-25" cx="1354.64" cy="459.7" r="124.37"/>
        <circle class="cls-14" cx="902.75" cy="277.14" r="4.15" transform="translate(12.47 592.04) rotate(-36.55)"/>
        <circle class="cls-17" cx="309.8" cy="37.6" r="4.15" transform="translate(38.52 191.86) rotate(-36.55)"/>
        <circle class="cls-31" cx="351.59" cy="54.48" r="31.09" transform="translate(64.46 264.57) rotate(-45)"/>
        <line class="cls-1" x1="1145.67" y1="375.28" x2="309.8" y2="37.6"/>
        <circle class="cls-30" cx="1145.67" cy="375.28" r="82.91"/>
        <circle class="cls-27" cx="1145.67" cy="375.28" r="41.46"/>
        <circle class="cls-11" cx="1145.67" cy="375.28" r="34.55"/>
        <polyline class="cls-2" points="1145.67 375.28 1144.93 378.64 1145.67 375.28 1146.41 371.92 1145.67 375.28 1142.31 374.54 1145.67 375.28 1149.03 376.02 1145.67 375.28 1105.31 421.53 1145.67 375.28 1186.03 329.02 1145.67 375.28 1099.42 334.92 1145.67 375.28 1191.92 415.64 1145.67 375.28 1161.66 561.77 1145.67 375.28 1129.68 188.78 1145.67 375.28 959.17 391.27 1145.67 375.28 1332.17 359.28 1145.67 375.28 1149.81 430.26 1145.67 375.28 1141.52 320.29 1145.67 375.28 1090.68 379.42 1145.67 375.28 1200.66 371.13 1145.67 375.28 1183.45 544.83 1145.67 375.28 1107.89 205.73 1145.67 375.28 976.12 413.05 1145.67 375.28 1315.22 337.5 1145.67 375.28 1111.1 504.89 1145.67 375.28 1180.24 245.66 1145.67 375.28 1016.06 340.7 1145.67 375.28 1275.28 409.85 1145.67 375.28 1127.13 467.03 1145.67 375.28 1164.21 283.52 1145.67 375.28 1053.91 356.73 1145.67 375.28 1237.42 393.82 1145.67 375.28 1027.24 465.2 1145.67 375.28 1264.09 285.36 1145.67 375.28 1055.75 256.85 1145.67 375.28 1235.59 493.7 1145.67 375.28 1176.64 419.39 1145.67 375.28 1114.7 331.16 1145.67 375.28 1101.56 406.24 1145.67 375.28 1189.78 344.31 1145.67 375.28 1145.07 376.15 1145.67 375.28 1146.27 374.4 1145.67 375.28 1144.79 374.67 1145.67 375.28 1146.55 375.88 1145.67 375.28 1124.08 410.61 1145.67 375.28 1167.26 339.94 1145.67 375.28 1110.34 353.68 1145.67 375.28 1181 396.87 1145.67 375.28 1135.86 565.75 1145.67 375.28 1155.48 184.81 1145.67 375.28 955.2 365.46 1145.67 375.28 1336.14 385.09 1145.67 375.28 1146.91 495.4 1145.67 375.28 1144.43 255.15 1145.67 375.28 1025.54 376.52 1145.67 375.28 1265.8 374.04 1145.67 375.28 1212.98 483.57 1145.67 375.28 1078.36 266.98 1145.67 375.28 1037.38 442.58 1145.67 375.28 1253.96 307.97 1145.67 375.28 1223.65 563.03 1145.67 375.28 1067.69 187.52 1145.67 375.28 957.91 453.25 1145.67 375.28 1333.43 297.3"/>
        <circle class="cls-26" cx="309.8" cy="37.6" r="62.18"/>
        <circle class="cls-8" cx="396.63" cy="72.67" r="16.01"/>
        <circle class="cls-13" cx="737.08" cy="210.21" r="8.38" transform="translate(19.75 480.23) rotate(-36.55)"/>
        <circle class="cls-12" cx="788.42" cy="230.95" r="18.78" transform="translate(17.49 514.88) rotate(-36.55)"/>
        <circle class="cls-10" cx="679.3" cy="186.87" r="1.43" transform="translate(22.29 441.24) rotate(-36.55)"/>
        <circle class="cls-9" cx="1101.55" cy="357.45" r="2.76" transform="translate(3.73 726.2) rotate(-36.55)"/>
      </g>
      <path class="cls-38" d="M-16.31,238.71s54.05-104.7,118.27,235.47c64.22,340.18,178.21,169.53,178.21,169.53,0,0,88.3-167.32,96.33,54.3,8.03,221.61,117.73,106.37,117.73,106.37,0,0,133.86-124.21,139.21,36.46,5.35,160.67-669.02,79.89-669.02,79.89L-16.31,238.71Z"/>
      <path class="cls-39" d="M.9,548.53s79.71-57.54,174.41,129.41c94.7,186.95,262.8,93.17,262.8,93.17,0,0,130.22-91.95,142.05,29.84,11.84,121.79,173.62,58.46,173.62,58.46,0,0,68.66-57.85,76.55,30.45,7.89,88.3-857.85,33.49-857.85,33.49L.9,548.53Z"/>
      <g>
        <g>
          <ellipse class="cls-35" cx="628.66" cy="155.2" rx="220.7" ry="191.01"/>
          <ellipse class="cls-35" cx="929.62" cy="195.71" rx="160.51" ry="133.13"/>
          <ellipse class="cls-35" cx="1113.54" cy="279.64" rx="163.86" ry="124.44"/>
          <ellipse class="cls-35" cx="939.65" cy="404.08" rx="150.48" ry="121.55"/>
          <ellipse class="cls-35" cx="742.36" cy="372.25" rx="147.14" ry="130.23"/>
          <ellipse class="cls-35" cx="347.76" cy="294.11" rx="160.51" ry="138.91"/>
          <ellipse class="cls-35" cx="518.31" cy="406.98" rx="210.67" ry="182.32"/>
        </g>
        <g>
          <ellipse class="cls-34" cx="631.33" cy="143.25" rx="208.85" ry="180.74"/>
          <ellipse class="cls-34" cx="916.12" cy="181.59" rx="151.89" ry="125.97"/>
          <ellipse class="cls-34" cx="1090.15" cy="261.01" rx="155.05" ry="117.76"/>
          <ellipse class="cls-34" cx="925.61" cy="378.77" rx="142.39" ry="115.02"/>
          <ellipse class="cls-34" cx="738.91" cy="348.64" rx="139.23" ry="123.23"/>
          <ellipse class="cls-34" cx="365.52" cy="274.7" rx="151.89" ry="131.45"/>
          <ellipse class="cls-34" cx="526.9" cy="381.51" rx="199.35" ry="172.53"/>
        </g>
      </g>
      <g>
        <g>
          <ellipse class="cls-35" cx="946.21" cy="501.19" rx="125.91" ry="123.59"/>
          <ellipse class="cls-35" cx="1117.91" cy="527.4" rx="91.57" ry="86.14"/>
          <ellipse class="cls-35" cx="1222.83" cy="581.71" rx="93.48" ry="80.52"/>
          <ellipse class="cls-35" cx="1123.63" cy="662.23" rx="85.85" ry="78.65"/>
          <ellipse class="cls-35" cx="1011.08" cy="641.63" rx="83.94" ry="84.27"/>
          <ellipse class="cls-35" cx="785.97" cy="591.07" rx="91.57" ry="89.88"/>
          <ellipse class="cls-35" cx="883.26" cy="664.1" rx="120.19" ry="117.97"/>
        </g>
        <g>
          <ellipse class="cls-34" cx="947.74" cy="493.46" rx="119.14" ry="116.95"/>
          <ellipse class="cls-34" cx="1110.2" cy="518.27" rx="86.65" ry="81.51"/>
          <ellipse class="cls-34" cx="1209.49" cy="569.65" rx="88.46" ry="76.2"/>
          <ellipse class="cls-34" cx="1115.62" cy="645.85" rx="81.23" ry="74.42"/>
          <ellipse class="cls-34" cx="1009.11" cy="626.36" rx="79.43" ry="79.74"/>
          <ellipse class="cls-34" cx="796.1" cy="578.51" rx="86.65" ry="85.06"/>
          <ellipse class="cls-34" cx="888.16" cy="647.62" rx="113.73" ry="111.63"/>
        </g>
      </g>
      <g>
        <g>
          <path class="cls-37" d="M557.44,144.83c12.88-4.33,22.89-22.97,17.68-35.36-.1-.24-.38-.89-.93-1.86-7.86-13.89-28.03-17.84-32.57-18.61-22.43-3.79-40.44,6.69-46.53,10.24-4.9,2.85-25.06,14.58-29.78,34.43-1.81,7.63-.42,12.59,0,13.96,2.24,7.23,7.63,11.24,13.96,15.82,7.19,5.2,21.7,13.78,30.71,17.68,1.03,.45,3.98,1.7,5.58,4.65,.39,.72,1.44,2.91,.93,5.58-.6,3.15-3.11,5.55-5.58,6.51-5.73,2.24-12.55-2.7-13.96-3.72-2.93-2.12-4.71-4.53-9.31-6.51-1.5-.65-2.55-.93-3.72-.93-3.3-.01-5.76,2.17-7.44,3.72-10.38,9.56-9.37,11.56-15.82,16.75-1.81,1.46-3.84,2.87-4.65,5.58-.25,.84-.87,3.41,.93,7.44,6.44,14.45,21.4,22.33,21.4,22.33,18,9.48,36,7.02,46.53,5.58,14.98-2.05,26.89-3.67,36.29-13.96,12.77-13.96,10.4-32.38,10.24-33.5-.29-1.97-2.72-17.21-14.89-26.05-2.74-1.99-10.82-5.36-26.98-12.1-3.36-1.4-8.28-3.42-12.1-8.37-1.65-2.14-4.87-6.32-3.72-11.17,1.09-4.59,5.56-7.53,9.31-8.37,5.06-1.15,9.59,1.33,13.96,3.72,6.52,3.57,7.84,6.75,13.03,7.44,3.28,.44,5.89-.41,7.44-.93Z"/>
          <path class="cls-37" d="M562.09,158.79c-4.03,3.27,2,11.43-.93,21.4-.31,1.07,.84,1.29,1.86,2.79,1,1.46,3.17,1.67,5.58,1.86,4.29,.35,3.16-.93,5.58-.93,2.79,0,9.06-.54,9.31,0,1.52,3.3-1.28,13-1.86,15.82-2.04,9.93-1.26,10.58-2.79,24.19-.19,1.69-.76,6.26,0,12.1,.54,4.12,1.24,5.05,1.86,5.58,2.29,1.95,4.98-.16,12.1,0,5.15,.11,6.79,1.28,8.37,0,2.35-1.9,1.43-6.62,.93-9.31,0,0-3.24-17.55-.93-44.66,.13-1.55,.46-4.78,2.79-6.51,.7-.52,2.1-1.29,7.44-.93,7.29,.49,9.06,2.22,11.17,.93,1.74-1.06,2.09-3.5,2.79-8.37,.82-5.71,1.42-9.86-.93-13.03-1.82-2.44-4.61-3.25-6.51-3.72-19.25-4.78-34.24,3.06-51.18,1.86-1.23-.09-3.17-.27-4.65,.93Z"/>
          <path class="cls-37" d="M681.19,223c-9.59-19.49-5.32-31.33-16.75-55.83-1.17-2.52-3.21-6.65-7.44-8.37-7.18-2.92-15.81,3.05-16.75,3.72-3.12,2.22-4.92,4.67-5.58,5.58-8.75,12.14-8.86,21.23-16.75,36.29-3.83,7.3-5.65,12.62-9.31,23.26-.43,1.25-1.4,4.21,0,6.51,.82,1.35,2.14,1.95,4.65,2.79,10.64,3.55,14.75,1.91,18.61,4.65,.45,.32,1.55,1.16,2.79,.93,1.2-.23,1.98-1.35,2.79-2.79,1.66-2.95,2.46-5.48,2.79-6.51,2.4-7.51,3.02-8.1,3.72-8.37,.66-.26,.77,.01,5.58,.93,2.91,.55,3.23,.52,3.72,.93,1.72,1.42,.82,4.22,.93,7.44,.14,4.1,1.86,9.84,5.58,12.1,3.68,2.24,7.79,1.08,14.89-.93,6.04-1.71,9.57-2.71,11.17-5.58,2.48-4.48-1.49-10.32-4.65-16.75Zm-26.46-23.28c-.43,1.95-2.54,3.46-4.49,3.42-1.4-.03-2.86-.2-4.18-.68-2.31-.85-4.03-3.18-3.25-5.72,.48-1.57,1.2-3.06,1.85-4.57,.17-.39,.4-.71,.67-1,.67-1.75,2.47-2.95,4.38-3.04,2.57-.12,4.57,2.22,4.65,4.65,0,.15,.01,.25,.02,.31,.02,.12,.04,.24,.07,.36,.1,.51,.22,1.01,.31,1.52,.29,1.68,.33,3.08-.04,4.76Z"/>
          <path class="cls-37" d="M749.12,236.96c-1.68-8.33-14.87-22.44-19.54-27.92-.7-.82-2.21-2.64-1.86-4.65,.22-1.26,1.08-2.1,1.86-2.79,3.53-3.14,6.07-3.91,8.37-5.58,2.84-2.05,4.14-4.61,5.58-7.44,1.53-3,3.65-7.16,2.79-12.1-.75-4.31-3.39-7.07-5.58-9.31-4.99-5.08-10.56-6.96-14.89-8.37-8.14-2.65-14.12-2.39-26.05-1.86-3.08,.14-7.04,.44-11.17,2.79-.91,.52-3.22,1.83-4.65,3.72-3.73,4.91-.59,12.4,.93,18.61,0,0,3.29,13.49-1.86,55.83-.09,.75-.39,3,.93,4.65,.91,1.13,2.21,1.53,3.72,1.86,5.84,1.28,10.34,.67,14.89,0,1.14-.17,2.99-.47,4.65-1.86,.45-.38,.78-.75,.93-.93,2.37-2.94-1.18-8.49,0-15.82,.36-2.23,.95-3.32,1.86-3.72,1.41-.62,3.17,.56,3.72,.93,3.75,2.51,3.81,6.74,6.51,13.96,2.16,5.78,3.24,8.67,5.58,10.24,5.28,3.54,12.87,.32,15.82-.93,2.17-.92,6.56-2.79,7.44-6.51,.27-1.13,.14-2.11,0-2.79Zm-31.17-46c-2.13,2.19-6.05,3.45-9.02,2.66-2.12-.57-3.74-2.28-4.2-4.43-.29-1.36-.2-2.64-.18-4.01,.01-.58,.13-1.12,.33-1.62-.01-.1-.02-.21-.03-.31-.12-2.71,2.24-4.37,4.65-4.65,2.71-.31,5.66,.84,7.73,2.53,2.92,2.38,3.41,7.07,.72,9.83Z"/>
          <path class="cls-37" d="M804.95,183.92c-2.44-6.52-5.06-13.51-12.1-18.61-4.46-3.24-10.11-4.33-21.4-6.51,0,0-4.26-.82-16.75,0-1.08,.07-3.34,.25-4.65,1.86-1.34,1.64-1.02,3.94-.93,4.65,.59,4.82,2.29,35.24-1.86,54.9-.58,2.77-2.98,13.37,0,22.33,.43,1.28,1.15,3.09,2.79,4.65,3.36,3.19,8.26,3.17,13.03,2.79,13.91-1.12,20.86-1.68,27.92-6.51,10.75-7.37,14.23-18.27,15.82-23.26,5.29-16.58,.23-30.71-1.86-36.29Zm-23.94,26.92c-2.23,2.12-5.32,3.14-8.82,1.97-.89-.3-1.8-.9-2.46-1.68-.85-.79-1.39-1.89-1.4-3.25-.03-3.96-.4-7.91-.22-11.88,.08-1.92,1.36-4.11,3.42-4.49,2.07-.38,4.2-.42,6.15,.12,1.77,.13,3.5,.47,5.05,1.43,3,1.86,4.32,5.38,4.18,8.8-.17,4-2.61,7.16-5.88,8.99Z"/>
          <path class="cls-37" d="M808.67,163.44c1.05,7.98-3.86,13.15-2.79,43.73,.54,15.52,.81,23.27,3.72,27.92,6.94,11.07,19.7,14.05,23.26,14.89,1.12,.26,23.23,5.09,37.22-8.37,6.36-6.12,2.72-8.01,12.1-40.94,1.58-5.53,8.05-27.86,2.79-34.43-2.03-2.53-4.65-3.72-4.65-3.72-2-.91-3.38-.84-7.44-.93-9.23-.21-11.21-.77-13.03,.93-1.19,1.12-1.57,2.51-1.86,3.72-2.32,9.7-1.05,15.99-2.79,24.19-.97,4.56-2.17,10.23-6.51,12.1-2.54,1.09-5.99,.82-8.37-.93-4.55-3.34-4.14-11.29-3.72-19.54,.17-3.25,.69-8.97,0-16.75-.23-2.58-.5-4.33-1.86-5.58-1.38-1.27-2.74-.97-12.1-.93-5.43,.02-8.15,.04-8.37,0-2.09-.33-3.59-.83-4.65,0-1.45,1.13-1.03,3.87-.93,4.65Z"/>
          <path class="cls-37" d="M902.66,216.48c2.35-3.9-.7-8.93-.93-9.31-1.9-3.04-4.25-3.48-7.44-5.58-4.49-2.96-9.04-8.14-10.24-13.03-2.03-8.28,5.09-17.75,12.1-22.33,8.5-5.55,17.41-4.28,27.92-2.79,7.71,1.1,21.42,3.04,25.12,12.1,1.22,2.99,1.03,5.94,.93,7.44-.28,4.18-2.14,11.98-7.44,13.96-3.74,1.39-8.01-.53-13.03-2.79-4.98-2.24-6.94-4.4-10.24-3.72-1.96,.4-4.27,1.79-4.65,3.72-.19,.94-.16,3.2,5.58,7.44,9.59,7.08,15.24,5,20.47,9.31,7,5.76,8.9,19.39,3.72,28.85-6.09,11.12-19.74,12.36-26.98,13.03-11.31,1.04-19.67-2.62-30.71-7.44-9.05-3.96-11.06-6.54-12.1-8.37-3.98-7.03-1.16-16.21,2.79-21.4,1.35-1.78,3.63-4.76,6.51-4.65,2.06,.08,2.71,1.66,8.37,5.58,3.73,2.58,5.1,3.05,6.51,2.79,2.22-.4,3.49-2.4,3.72-2.79Z"/>
          <path class="cls-37" d="M948.25,195.08c4.03,3.3,13.02-2.88,17.68,1.86,.86,.88,1.34,1.89,1.86,3.72,4.62,16.15-2.79,35.36-2.79,35.36-1.68,4.35-2.9,6.31-1.86,8.37,1.74,3.45,7.99,3.6,16.75,3.72,9.25,.13,13.87,.19,15.82-1.86,3.66-3.86,2.13-11.88-.93-27.92-1.12-5.87-2.13-9.54,0-13.03,1.92-3.14,6.11-5.7,10.24-5.58,4.01,.12,5.26,2.69,7.44,1.86,.72-.27,3.01-1.47,3.72-13.03,.59-9.47,.88-14.21-.93-16.75-3.64-5.1-10.48-2.73-30.71-3.72-19.66-.96-23.19-3.69-28.85,0-9.81,6.41-12.18,23.11-7.44,26.98Z"/>
        </g>
        <g>
          <path class="cls-37" d="M614.41,334.69c12.88-4.33,22.89-22.97,17.68-35.36-.1-.24-.38-.89-.93-1.86-7.86-13.89-28.03-17.84-32.57-18.61-22.43-3.79-40.44,6.69-46.53,10.24-4.9,2.85-25.06,14.58-29.78,34.43-1.81,7.63-.42,12.59,0,13.96,2.24,7.23,7.63,11.24,13.96,15.82,7.19,5.2,21.7,13.78,30.71,17.68,1.03,.45,3.98,1.7,5.58,4.65,.39,.72,1.44,2.91,.93,5.58-.6,3.15-3.11,5.55-5.58,6.51-5.73,2.24-12.55-2.7-13.96-3.72-2.93-2.12-4.71-4.53-9.31-6.51-1.5-.65-2.55-.93-3.72-.93-3.3-.01-5.76,2.17-7.44,3.72-10.38,9.56-9.37,11.56-15.82,16.75-1.81,1.46-3.84,2.87-4.65,5.58-.25,.84-.87,3.41,.93,7.44,6.44,14.45,21.4,22.33,21.4,22.33,18,9.48,36,7.02,46.53,5.58,14.98-2.05,26.89-3.67,36.29-13.96,12.77-13.96,10.4-32.38,10.24-33.5-.29-1.97-2.72-17.21-14.89-26.05-2.74-1.99-10.82-5.36-26.98-12.1-3.36-1.4-8.28-3.42-12.1-8.37-1.65-2.14-4.87-6.32-3.72-11.17,1.09-4.59,5.56-7.53,9.31-8.37,5.06-1.15,9.59,1.33,13.96,3.72,6.52,3.57,7.84,6.75,13.03,7.44,3.28,.44,5.89-.41,7.44-.93Z"/>
          <path class="cls-37" d="M705.66,402.61c-11.02-22.41-6.12-36.03-19.26-64.2-1.35-2.89-3.69-7.65-8.56-9.63-8.26-3.36-18.17,3.51-19.26,4.28-3.59,2.56-5.66,5.37-6.42,6.42-10.07,13.96-10.18,24.41-19.26,41.73-4.4,8.4-6.5,14.51-10.7,26.75-.49,1.44-1.61,4.84,0,7.49,.94,1.55,2.46,2.25,5.35,3.21,12.23,4.08,16.96,2.2,21.4,5.35,.52,.37,1.78,1.34,3.21,1.07,1.38-.26,2.28-1.55,3.21-3.21,1.91-3.39,2.83-6.3,3.21-7.49,2.76-8.64,3.47-9.32,4.28-9.63,.76-.3,.88,.02,6.42,1.07,3.35,.64,3.71,.6,4.28,1.07,1.97,1.63,.94,4.85,1.07,8.56,.16,4.72,2.14,11.31,6.42,13.91,4.23,2.57,8.95,1.24,17.12-1.07,6.95-1.96,11.01-3.11,12.84-6.42,2.85-5.15-1.71-11.87-5.35-19.26Zm-30.43-26.77c-.49,2.24-2.92,3.97-5.16,3.93-1.61-.03-3.28-.23-4.8-.79-2.65-.97-4.63-3.65-3.74-6.58,.55-1.81,1.38-3.52,2.13-5.25,.19-.44,.46-.82,.78-1.15,.77-2.02,2.84-3.39,5.04-3.49,2.96-.13,5.25,2.56,5.35,5.35,.01,.17,.02,.28,.02,.36,.03,.14,.05,.27,.08,.41,.12,.58,.26,1.16,.36,1.75,.33,1.93,.38,3.55-.05,5.47Z"/>
          <path class="cls-37" d="M694.22,340.24c7.53-9.42,21.02-8.49,22.33-8.37,3.69,.31,5.54,.47,7.44,1.86,3.73,2.72,3.35,6.98,5.58,19.54,2.15,12.08,3.92,16.13,7.44,18.61,1.61,1.13,2.96,2.09,4.65,1.86,7.22-.97,14.57-22.73,13.03-36.29-.13-1.15-.48-3.59,.93-5.58,.69-.97,2.83-3.28,13.96-2.79,9.25,.41,13.87,.61,15.82,2.79,4,4.48-1.29,12.3-9.31,35.36-7.19,20.67-10.78,31.01-12.1,39.08-1.39,8.56-1.32,13.41-5.58,17.68-7.23,7.24-20.03,5.92-23.26,5.58-2.66-.28-9.08-.94-14.89-4.65-11.51-7.36-7.12-18.08-17.68-43.73-6.61-16.07-15.24-28.66-10.24-38.15,.63-1.2,1.44-2.26,1.86-2.79Z"/>
          <path class="cls-37" d="M793.79,334.66c23.14-.49,33.65-11.26,41.87-4.65,1.68,1.35,2.66,2.94,3.72,4.65,.54,.88,6.51,10.78,2.79,16.75-1.66,2.67-4.54,3.42-9.31,4.65-9.17,2.38-14.62,.2-21.4,3.72-1.33,.69-3.02,1.76-3.72,3.72-.63,1.74-.55,4.39,.93,5.58,1.93,1.55,4.36-.9,9.31,0,1.3,.24,3.16,.57,4.65,1.86,4.16,3.59,3.6,12.89,0,14.89-2.77,1.54-6-1.98-11.17,0-1.89,.72-2.62,1.64-2.79,1.86-1.93,2.52-1.35,7.07,.93,9.31,2.42,2.37,6.4,1.78,12.1,.93,7.42-1.1,8.95-3.06,12.1-1.86,3.13,1.19,4.57,4.25,6.51,8.37,1.59,3.38,4.19,8.88,1.86,13.03-1.21,2.17-3.33,3.17-4.65,3.72-5.92,2.48-38.35,16.09-52.11,.93-1.26-1.38-2.53-3.2-5.58-13.96-3.44-12.15-8.53-33.52-5.58-57.69,.52-4.26,1.42-9.64,5.58-13.03,3.93-3.19,8.38-2.67,13.96-2.79Z"/>
          <path class="cls-37" d="M910.89,410.6c-1.77-8.76-15.64-23.61-20.56-29.36-.74-.86-2.33-2.78-1.96-4.89,.23-1.32,1.14-2.21,1.96-2.94,3.71-3.3,6.38-4.12,8.81-5.87,2.98-2.16,4.35-4.85,5.87-7.83,1.61-3.15,3.84-7.53,2.94-12.72-.79-4.53-3.57-7.44-5.87-9.79-5.25-5.34-11.11-7.32-15.66-8.81-8.56-2.79-14.86-2.51-27.41-1.96-3.24,.14-7.4,.46-11.75,2.94-.96,.55-3.38,1.93-4.89,3.92-3.93,5.16-.62,13.05,.98,19.58,0,0,3.47,14.19-1.96,58.73-.1,.79-.41,3.16,.98,4.89,.95,1.19,2.32,1.61,3.92,1.96,6.14,1.35,10.87,.7,15.66,0,1.2-.18,3.15-.5,4.89-1.96,.48-.4,.82-.79,.98-.98,2.5-3.09-1.25-8.93,0-16.64,.38-2.34,1-3.49,1.96-3.92,1.48-.65,3.34,.59,3.92,.98,3.95,2.65,4.01,7.09,6.85,14.68,2.27,6.08,3.41,9.12,5.87,10.77,5.56,3.73,13.53,.34,16.64-.98,2.28-.97,6.9-2.93,7.83-6.85,.28-1.18,.15-2.22,0-2.94Zm-32.79-48.38c-2.24,2.3-6.36,3.63-9.49,2.8-2.23-.6-3.94-2.4-4.42-4.65-.31-1.43-.21-2.78-.19-4.22,.01-.61,.14-1.18,.34-1.71-.01-.11-.03-.22-.03-.32-.13-2.85,2.36-4.6,4.89-4.89,2.85-.33,5.95,.89,8.13,2.66,3.08,2.51,3.59,7.44,.76,10.34Z"/>
          <path class="cls-37" d="M958.71,361.58c8.03-2.7,14.26-14.31,11.02-22.03-.06-.15-.24-.56-.58-1.16-4.9-8.65-17.47-11.12-20.3-11.6-13.97-2.36-25.2,4.17-28.99,6.38-3.05,1.78-15.62,9.09-18.56,21.45-1.13,4.76-.26,7.84,0,8.7,1.4,4.5,4.75,7,8.7,9.86,4.48,3.24,13.53,8.59,19.14,11.02,.64,.28,2.48,1.06,3.48,2.9,.24,.45,.9,1.81,.58,3.48-.38,1.96-1.94,3.46-3.48,4.06-3.57,1.39-7.82-1.69-8.7-2.32-1.82-1.32-2.94-2.82-5.8-4.06-.93-.4-1.59-.58-2.32-.58-2.06,0-3.59,1.35-4.64,2.32-6.47,5.96-5.84,7.21-9.86,10.44-1.13,.91-2.39,1.79-2.9,3.48-.16,.52-.54,2.13,.58,4.64,4.01,9.01,13.34,13.92,13.34,13.92,11.22,5.91,22.43,4.38,28.99,3.48,9.33-1.28,16.75-2.29,22.61-8.7,7.96-8.7,6.48-20.18,6.38-20.87-.18-1.23-1.7-10.72-9.28-16.24-1.71-1.24-6.74-3.34-16.82-7.54-2.09-.87-5.16-2.13-7.54-5.22-1.03-1.33-3.03-3.94-2.32-6.96,.68-2.86,3.47-4.69,5.8-5.22,3.15-.71,5.98,.83,8.7,2.32,4.06,2.22,4.88,4.21,8.12,4.64,2.04,.27,3.67-.25,4.64-.58Z"/>
        </g>
        <g>
          <path class="cls-36" d="M607.04,323.51c12.88-4.33,22.89-22.97,17.68-35.36-.1-.24-.38-.89-.93-1.86-7.86-13.89-28.03-17.84-32.57-18.61-22.43-3.79-40.44,6.69-46.53,10.24-4.9,2.85-25.06,14.58-29.78,34.43-1.81,7.63-.42,12.59,0,13.96,2.24,7.23,7.63,11.24,13.96,15.82,7.19,5.2,21.7,13.78,30.71,17.68,1.03,.45,3.98,1.7,5.58,4.65,.39,.72,1.44,2.91,.93,5.58-.6,3.15-3.11,5.55-5.58,6.51-5.73,2.24-12.55-2.7-13.96-3.72-2.93-2.12-4.71-4.53-9.31-6.51-1.5-.65-2.55-.93-3.72-.93-3.3-.01-5.76,2.17-7.44,3.72-10.38,9.56-9.37,11.56-15.82,16.75-1.81,1.46-3.84,2.87-4.65,5.58-.25,.84-.87,3.41,.93,7.44,6.44,14.45,21.4,22.33,21.4,22.33,18,9.48,36,7.02,46.53,5.58,14.98-2.05,26.89-3.67,36.29-13.96,12.77-13.96,10.4-32.38,10.24-33.5-.29-1.97-2.72-17.21-14.89-26.05-2.74-1.99-10.82-5.36-26.98-12.1-3.36-1.4-8.28-3.42-12.1-8.37-1.65-2.14-4.87-6.32-3.72-11.17,1.09-4.59,5.56-7.53,9.31-8.37,5.06-1.15,9.59,1.33,13.96,3.72,6.52,3.57,7.84,6.75,13.03,7.44,3.28,.44,5.89-.41,7.44-.93Z"/>
          <path class="cls-36" d="M698.28,391.42c-11.02-22.41-6.12-36.03-19.26-64.2-1.35-2.89-3.69-7.65-8.56-9.63-8.26-3.36-18.17,3.51-19.26,4.28-3.59,2.56-5.66,5.37-6.42,6.42-10.07,13.96-10.18,24.41-19.26,41.73-4.4,8.4-6.5,14.51-10.7,26.75-.49,1.44-1.61,4.84,0,7.49,.94,1.55,2.46,2.25,5.35,3.21,12.23,4.08,16.96,2.2,21.4,5.35,.52,.37,1.78,1.34,3.21,1.07,1.38-.26,2.28-1.55,3.21-3.21,1.91-3.39,2.83-6.3,3.21-7.49,2.76-8.64,3.47-9.32,4.28-9.63,.76-.3,.88,.02,6.42,1.07,3.35,.64,3.71,.6,4.28,1.07,1.97,1.63,.94,4.85,1.07,8.56,.16,4.72,2.14,11.31,6.42,13.91,4.23,2.57,8.95,1.24,17.12-1.07,6.95-1.96,11.01-3.11,12.84-6.42,2.85-5.15-1.71-11.87-5.35-19.26Zm-30.43-26.77c-.49,2.24-2.92,3.97-5.16,3.93-1.61-.03-3.28-.23-4.8-.79-2.65-.97-4.63-3.65-3.74-6.58,.55-1.81,1.38-3.52,2.13-5.25,.19-.44,.46-.82,.78-1.15,.77-2.02,2.84-3.39,5.04-3.49,2.96-.13,5.25,2.56,5.35,5.35,.01,.17,.02,.28,.02,.36,.03,.14,.05,.27,.08,.41,.12,.58,.26,1.16,.36,1.75,.33,1.93,.38,3.55-.05,5.47Z"/>
          <path class="cls-36" d="M686.85,329.06c7.53-9.42,21.02-8.49,22.33-8.37,3.69,.31,5.54,.47,7.44,1.86,3.73,2.72,3.35,6.98,5.58,19.54,2.15,12.08,3.92,16.13,7.44,18.61,1.61,1.13,2.96,2.09,4.65,1.86,7.22-.97,14.57-22.73,13.03-36.29-.13-1.15-.48-3.59,.93-5.58,.69-.97,2.83-3.28,13.96-2.79,9.25,.41,13.87,.61,15.82,2.79,4,4.48-1.29,12.3-9.31,35.36-7.19,20.67-10.78,31.01-12.1,39.08-1.39,8.56-1.32,13.41-5.58,17.68-7.23,7.24-20.03,5.92-23.26,5.58-2.66-.28-9.08-.94-14.89-4.65-11.51-7.36-7.12-18.08-17.68-43.73-6.61-16.07-15.24-28.66-10.24-38.15,.63-1.2,1.44-2.26,1.86-2.79Z"/>
          <path class="cls-36" d="M786.41,323.48c23.14-.49,33.65-11.26,41.87-4.65,1.68,1.35,2.66,2.94,3.72,4.65,.54,.88,6.51,10.78,2.79,16.75-1.66,2.67-4.54,3.42-9.31,4.65-9.17,2.38-14.62,.2-21.4,3.72-1.33,.69-3.02,1.76-3.72,3.72-.63,1.74-.55,4.39,.93,5.58,1.93,1.55,4.36-.9,9.31,0,1.3,.24,3.16,.57,4.65,1.86,4.16,3.59,3.6,12.89,0,14.89-2.77,1.54-6-1.98-11.17,0-1.89,.72-2.62,1.64-2.79,1.86-1.93,2.52-1.35,7.07,.93,9.31,2.42,2.37,6.4,1.78,12.1,.93,7.42-1.1,8.95-3.06,12.1-1.86,3.13,1.19,4.57,4.25,6.51,8.37,1.59,3.38,4.19,8.88,1.86,13.03-1.21,2.17-3.33,3.17-4.65,3.72-5.92,2.48-38.35,16.09-52.11,.93-1.26-1.38-2.53-3.2-5.58-13.96-3.44-12.15-8.53-33.52-5.58-57.69,.52-4.26,1.42-9.64,5.58-13.03,3.93-3.19,8.38-2.67,13.96-2.79Z"/>
          <path class="cls-36" d="M903.52,399.41c-1.77-8.76-15.64-23.61-20.56-29.36-.74-.86-2.33-2.78-1.96-4.89,.23-1.32,1.14-2.21,1.96-2.94,3.71-3.3,6.38-4.12,8.81-5.87,2.98-2.16,4.35-4.85,5.87-7.83,1.61-3.15,3.84-7.53,2.94-12.72-.79-4.53-3.57-7.44-5.87-9.79-5.25-5.34-11.11-7.32-15.66-8.81-8.56-2.79-14.86-2.51-27.41-1.96-3.24,.14-7.4,.46-11.75,2.94-.96,.55-3.38,1.93-4.89,3.92-3.93,5.16-.62,13.05,.98,19.58,0,0,3.47,14.19-1.96,58.73-.1,.79-.41,3.16,.98,4.89,.95,1.19,2.32,1.61,3.92,1.96,6.14,1.35,10.87,.7,15.66,0,1.2-.18,3.15-.5,4.89-1.96,.48-.4,.82-.79,.98-.98,2.5-3.09-1.25-8.93,0-16.64,.38-2.34,1-3.49,1.96-3.92,1.48-.65,3.34,.59,3.92,.98,3.95,2.65,4.01,7.09,6.85,14.68,2.27,6.08,3.41,9.12,5.87,10.77,5.56,3.73,13.53,.34,16.64-.98,2.28-.97,6.9-2.93,7.83-6.85,.28-1.18,.15-2.22,0-2.94Zm-32.79-48.38c-2.24,2.3-6.36,3.63-9.49,2.8-2.23-.6-3.94-2.4-4.42-4.65-.31-1.43-.21-2.78-.19-4.22,.01-.61,.14-1.18,.34-1.71-.01-.11-.03-.22-.03-.32-.13-2.85,2.36-4.6,4.89-4.89,2.85-.33,5.95,.89,8.13,2.66,3.08,2.51,3.59,7.44,.76,10.34Z"/>
          <path class="cls-36" d="M951.33,350.4c8.03-2.7,14.26-14.31,11.02-22.03-.06-.15-.24-.56-.58-1.16-4.9-8.65-17.47-11.12-20.3-11.6-13.97-2.36-25.2,4.17-28.99,6.38-3.05,1.78-15.62,9.09-18.56,21.45-1.13,4.76-.26,7.84,0,8.7,1.4,4.5,4.75,7,8.7,9.86,4.48,3.24,13.53,8.59,19.14,11.02,.64,.28,2.48,1.06,3.48,2.9,.24,.45,.9,1.81,.58,3.48-.38,1.96-1.94,3.46-3.48,4.06-3.57,1.39-7.82-1.69-8.7-2.32-1.82-1.32-2.94-2.82-5.8-4.06-.93-.4-1.59-.58-2.32-.58-2.06,0-3.59,1.35-4.64,2.32-6.47,5.96-5.84,7.21-9.86,10.44-1.13,.91-2.39,1.79-2.9,3.48-.16,.52-.54,2.13,.58,4.64,4.01,9.01,13.34,13.92,13.34,13.92,11.22,5.91,22.43,4.38,28.99,3.48,9.33-1.28,16.75-2.29,22.61-8.7,7.96-8.7,6.48-20.18,6.38-20.87-.18-1.23-1.7-10.72-9.28-16.24-1.71-1.24-6.74-3.34-16.82-7.54-2.09-.87-5.16-2.13-7.54-5.22-1.03-1.33-3.03-3.94-2.32-6.96,.68-2.86,3.47-4.69,5.8-5.22,3.15-.71,5.98,.83,8.7,2.32,4.06,2.22,4.88,4.21,8.12,4.64,2.04,.27,3.67-.25,4.64-.58Z"/>
        </g>
        <g>
          <path class="cls-36" d="M548.13,133.09c12.88-4.33,22.89-22.97,17.68-35.36-.1-.24-.38-.89-.93-1.86-7.86-13.89-28.03-17.84-32.57-18.61-22.43-3.79-40.44,6.69-46.53,10.24-4.9,2.85-25.06,14.58-29.78,34.43-1.81,7.63-.42,12.59,0,13.96,2.24,7.23,7.63,11.24,13.96,15.82,7.19,5.2,21.7,13.78,30.71,17.68,1.03,.45,3.98,1.7,5.58,4.65,.39,.72,1.44,2.91,.93,5.58-.6,3.15-3.11,5.55-5.58,6.51-5.73,2.24-12.55-2.7-13.96-3.72-2.93-2.12-4.71-4.53-9.31-6.51-1.5-.65-2.55-.93-3.72-.93-3.3-.01-5.76,2.17-7.44,3.72-10.38,9.56-9.37,11.56-15.82,16.75-1.81,1.46-3.84,2.87-4.65,5.58-.25,.84-.87,3.41,.93,7.44,6.44,14.45,21.4,22.33,21.4,22.33,18,9.48,36,7.02,46.53,5.58,14.98-2.05,26.89-3.67,36.29-13.96,12.77-13.96,10.4-32.38,10.24-33.5-.29-1.97-2.72-17.21-14.89-26.05-2.74-1.99-10.82-5.36-26.98-12.1-3.36-1.4-8.28-3.42-12.1-8.37-1.65-2.14-4.87-6.32-3.72-11.17,1.09-4.59,5.56-7.53,9.31-8.37,5.06-1.15,9.59,1.33,13.96,3.72,6.52,3.57,7.84,6.75,13.03,7.44,3.28,.44,5.89-.41,7.44-.93Z"/>
          <path class="cls-36" d="M552.78,147.05c-4.03,3.27,2,11.43-.93,21.4-.31,1.07,.84,1.29,1.86,2.79,1,1.46,3.17,1.67,5.58,1.86,4.29,.35,3.16-.93,5.58-.93,2.79,0,9.06-.54,9.31,0,1.52,3.3-1.28,13-1.86,15.82-2.04,9.93-1.26,10.58-2.79,24.19-.19,1.69-.76,6.26,0,12.1,.54,4.12,1.24,5.05,1.86,5.58,2.29,1.95,4.98-.16,12.1,0,5.15,.11,6.79,1.28,8.37,0,2.35-1.9,1.43-6.62,.93-9.31,0,0-3.24-17.55-.93-44.66,.13-1.55,.46-4.78,2.79-6.51,.7-.52,2.1-1.29,7.44-.93,7.29,.49,9.06,2.22,11.17,.93,1.74-1.06,2.09-3.5,2.79-8.37,.82-5.71,1.42-9.86-.93-13.03-1.82-2.44-4.61-3.25-6.51-3.72-19.25-4.78-34.24,3.06-51.18,1.86-1.23-.09-3.17-.27-4.65,.93Z"/>
          <path class="cls-36" d="M671.89,211.25c-9.59-19.49-5.32-31.33-16.75-55.83-1.17-2.52-3.21-6.65-7.44-8.37-7.18-2.92-15.81,3.05-16.75,3.72-3.12,2.22-4.92,4.67-5.58,5.58-8.75,12.14-8.86,21.23-16.75,36.29-3.83,7.3-5.65,12.62-9.31,23.26-.43,1.25-1.4,4.21,0,6.51,.82,1.35,2.14,1.95,4.65,2.79,10.64,3.55,14.75,1.91,18.61,4.65,.45,.32,1.55,1.16,2.79,.93,1.2-.23,1.98-1.35,2.79-2.79,1.66-2.95,2.46-5.48,2.79-6.51,2.4-7.51,3.02-8.1,3.72-8.37,.66-.26,.77,.01,5.58,.93,2.91,.55,3.23,.52,3.72,.93,1.72,1.42,.82,4.22,.93,7.44,.14,4.1,1.86,9.84,5.58,12.1,3.68,2.24,7.79,1.08,14.89-.93,6.04-1.71,9.57-2.71,11.17-5.58,2.48-4.48-1.49-10.32-4.65-16.75Zm-26.46-23.28c-.43,1.95-2.54,3.46-4.49,3.42-1.4-.03-2.86-.2-4.18-.68-2.31-.85-4.03-3.18-3.25-5.72,.48-1.57,1.2-3.06,1.85-4.57,.17-.39,.4-.71,.67-1,.67-1.75,2.47-2.95,4.38-3.04,2.57-.12,4.57,2.22,4.65,4.65,0,.15,.01,.25,.02,.31,.02,.12,.04,.24,.07,.36,.1,.51,.22,1.01,.31,1.52,.29,1.68,.33,3.08-.04,4.76Z"/>
          <path class="cls-36" d="M739.82,225.21c-1.68-8.33-14.87-22.44-19.54-27.92-.7-.82-2.21-2.64-1.86-4.65,.22-1.26,1.08-2.1,1.86-2.79,3.53-3.14,6.07-3.91,8.37-5.58,2.84-2.05,4.14-4.61,5.58-7.44,1.53-3,3.65-7.16,2.79-12.1-.75-4.31-3.39-7.07-5.58-9.31-4.99-5.08-10.56-6.96-14.89-8.37-8.14-2.65-14.12-2.39-26.05-1.86-3.08,.14-7.04,.44-11.17,2.79-.91,.52-3.22,1.83-4.65,3.72-3.73,4.91-.59,12.4,.93,18.61,0,0,3.29,13.49-1.86,55.83-.09,.75-.39,3,.93,4.65,.91,1.13,2.21,1.53,3.72,1.86,5.84,1.28,10.34,.67,14.89,0,1.14-.17,2.99-.47,4.65-1.86,.45-.38,.78-.75,.93-.93,2.37-2.94-1.18-8.49,0-15.82,.36-2.23,.95-3.32,1.86-3.72,1.41-.62,3.17,.56,3.72,.93,3.75,2.51,3.81,6.74,6.51,13.96,2.16,5.78,3.24,8.67,5.58,10.24,5.28,3.54,12.87,.32,15.82-.93,2.17-.92,6.56-2.79,7.44-6.51,.27-1.13,.14-2.11,0-2.79Zm-31.17-46c-2.13,2.19-6.05,3.45-9.02,2.66-2.12-.57-3.74-2.28-4.2-4.43-.29-1.36-.2-2.64-.18-4.01,.01-.58,.13-1.12,.33-1.62-.01-.1-.02-.21-.03-.31-.12-2.71,2.24-4.37,4.65-4.65,2.71-.31,5.66,.84,7.73,2.53,2.92,2.38,3.41,7.07,.72,9.83Z"/>
          <path class="cls-36" d="M795.65,172.17c-2.44-6.52-5.06-13.51-12.1-18.61-4.46-3.24-10.11-4.33-21.4-6.51,0,0-4.26-.82-16.75,0-1.08,.07-3.34,.25-4.65,1.86-1.34,1.64-1.02,3.94-.93,4.65,.59,4.82,2.29,35.24-1.86,54.9-.58,2.77-2.98,13.37,0,22.33,.43,1.28,1.15,3.09,2.79,4.65,3.36,3.19,8.26,3.17,13.03,2.79,13.91-1.12,20.86-1.68,27.92-6.51,10.75-7.37,14.23-18.27,15.82-23.26,5.29-16.58,.23-30.71-1.86-36.29Zm-23.94,26.92c-2.23,2.12-5.32,3.14-8.82,1.97-.89-.3-1.8-.9-2.46-1.68-.85-.79-1.39-1.89-1.4-3.25-.03-3.96-.4-7.91-.22-11.88,.08-1.92,1.36-4.11,3.42-4.49,2.07-.38,4.2-.42,6.15,.12,1.77,.13,3.5,.47,5.05,1.43,3,1.86,4.32,5.38,4.18,8.8-.17,4-2.61,7.16-5.88,8.99Z"/>
          <path class="cls-36" d="M799.37,151.7c1.05,7.98-3.86,13.15-2.79,43.73,.54,15.52,.81,23.27,3.72,27.92,6.94,11.07,19.7,14.05,23.26,14.89,1.12,.26,23.23,5.09,37.22-8.37,6.36-6.12,2.72-8.01,12.1-40.94,1.58-5.53,8.05-27.86,2.79-34.43-2.03-2.53-4.65-3.72-4.65-3.72-2-.91-3.38-.84-7.44-.93-9.23-.21-11.21-.77-13.03,.93-1.19,1.12-1.57,2.51-1.86,3.72-2.32,9.7-1.05,15.99-2.79,24.19-.97,4.56-2.17,10.23-6.51,12.1-2.54,1.09-5.99,.82-8.37-.93-4.55-3.34-4.14-11.29-3.72-19.54,.17-3.25,.69-8.97,0-16.75-.23-2.58-.5-4.33-1.86-5.58-1.38-1.27-2.74-.97-12.1-.93-5.43,.02-8.15,.04-8.37,0-2.09-.33-3.59-.83-4.65,0-1.45,1.13-1.03,3.87-.93,4.65Z"/>
          <path class="cls-36" d="M893.35,204.74c2.35-3.9-.7-8.93-.93-9.31-1.9-3.04-4.25-3.48-7.44-5.58-4.49-2.96-9.04-8.14-10.24-13.03-2.03-8.28,5.09-17.75,12.1-22.33,8.5-5.55,17.41-4.28,27.92-2.79,7.71,1.1,21.42,3.04,25.12,12.1,1.22,2.99,1.03,5.94,.93,7.44-.28,4.18-2.14,11.98-7.44,13.96-3.74,1.39-8.01-.53-13.03-2.79-4.98-2.24-6.94-4.4-10.24-3.72-1.96,.4-4.27,1.79-4.65,3.72-.19,.94-.16,3.2,5.58,7.44,9.59,7.08,15.24,5,20.47,9.31,7,5.76,8.9,19.39,3.72,28.85-6.09,11.12-19.74,12.36-26.98,13.03-11.31,1.04-19.67-2.62-30.71-7.44-9.05-3.96-11.06-6.54-12.1-8.37-3.98-7.03-1.16-16.21,2.79-21.4,1.35-1.78,3.63-4.76,6.51-4.65,2.06,.08,2.71,1.66,8.37,5.58,3.73,2.58,5.1,3.05,6.51,2.79,2.22-.4,3.49-2.4,3.72-2.79Z"/>
          <path class="cls-36" d="M938.95,183.34c4.03,3.3,13.02-2.88,17.68,1.86,.86,.88,1.34,1.89,1.86,3.72,4.62,16.15-2.79,35.36-2.79,35.36-1.68,4.35-2.9,6.31-1.86,8.37,1.74,3.45,7.99,3.6,16.75,3.72,9.25,.13,13.87,.19,15.82-1.86,3.66-3.86,2.13-11.88-.93-27.92-1.12-5.87-2.13-9.54,0-13.03,1.92-3.14,6.11-5.7,10.24-5.58,4.01,.12,5.26,2.69,7.44,1.86,.72-.27,3.01-1.47,3.72-13.03,.59-9.47,.88-14.21-.93-16.75-3.64-5.1-10.48-2.73-30.71-3.72-19.66-.96-23.19-3.69-28.85,0-9.81,6.41-12.18,23.11-7.44,26.98Z"/>
        </g>
      </g>
    </g>
  </g>
</svg>