<?xml version="1.0" encoding="UTF-8"?>
<svg id="Layer_5" data-name="Layer 5" xmlns="http://www.w3.org/2000/svg" viewBox="0 0 379 134">
  <defs>
    <style>
      .cls-1 {
        fill: #fff;
      }

      .cls-2 {
        fill: #4c263a;
      }

      .cls-3 {
        fill: #774060;
      }
    </style>
  </defs>
  <rect class="cls-2" x="49.33" y="15.66" width="267" height="99.64" rx="49.82" ry="49.82"/>
  <rect class="cls-3" x="57.11" y="25" width="249.87" height="80.96" rx="40.48" ry="40.48"/>
  <g>
    <path class="cls-1" d="M123.52,57.12c4.07-1.37,7.23-7.26,5.59-11.18-.03-.08-.12-.28-.29-.59-2.48-4.39-8.86-5.64-10.29-5.88-7.09-1.2-12.78,2.12-14.71,3.24-1.55,.9-7.92,4.61-9.41,10.88-.57,2.41-.13,3.98,0,4.41,.71,2.28,2.41,3.55,4.41,5,2.27,1.64,6.86,4.36,9.71,5.59,.32,.14,1.26,.54,1.76,1.47,.12,.23,.46,.92,.29,1.76-.19,1-.98,1.75-1.76,2.06-1.81,.71-3.97-.86-4.41-1.18-.93-.67-1.49-1.43-2.94-2.06-.47-.2-.81-.29-1.18-.29-1.04,0-1.82,.69-2.35,1.18-3.28,3.02-2.96,3.66-5,5.29-.57,.46-1.21,.91-1.47,1.76-.08,.26-.27,1.08,.29,2.35,2.04,4.57,6.76,7.06,6.76,7.06,5.69,3,11.38,2.22,14.71,1.76,4.73-.65,8.5-1.16,11.47-4.41,4.04-4.41,3.29-10.24,3.24-10.59-.09-.62-.86-5.44-4.71-8.24-.87-.63-3.42-1.69-8.53-3.82-1.06-.44-2.62-1.08-3.82-2.65-.52-.68-1.54-2-1.18-3.53,.34-1.45,1.76-2.38,2.94-2.65,1.6-.36,3.03,.42,4.41,1.18,2.06,1.13,2.48,2.13,4.12,2.35,1.04,.14,1.86-.13,2.35-.29Z"/>
    <path class="cls-1" d="M131.44,42.65c-2.21,1.8,1.1,6.28-.51,11.76-.17,.59,.46,.71,1.02,1.53,.55,.8,1.74,.92,3.07,1.02,2.36,.19,1.73-.51,3.07-.51,1.53,0,4.98-.29,5.11,0,.83,1.82-.7,7.14-1.02,8.69-1.12,5.46-.69,5.82-1.53,13.3-.1,.93-.42,3.44,0,6.65,.29,2.27,.68,2.78,1.02,3.07,1.26,1.07,2.74-.09,6.65,0,2.83,.06,3.73,.71,4.6,0,1.29-1.05,.78-3.64,.51-5.11,0,0-1.78-9.65-.51-24.55,.07-.85,.25-2.63,1.53-3.58,.39-.29,1.15-.71,4.09-.51,4.01,.27,4.98,1.22,6.14,.51,.95-.59,1.15-1.92,1.53-4.6,.45-3.14,.78-5.42-.51-7.16-1-1.34-2.53-1.79-3.58-2.05-10.58-2.63-18.82,1.68-28.12,1.02-.68-.05-1.74-.15-2.56,.51Z"/>
    <path class="cls-1" d="M196.9,77.93c-5.27-10.71-2.93-17.22-9.2-30.68-.65-1.38-1.76-3.65-4.09-4.6-3.95-1.61-8.69,1.68-9.2,2.05-1.72,1.22-2.7,2.56-3.07,3.07-4.81,6.67-4.87,11.66-9.2,19.94-2.1,4.01-3.11,6.94-5.11,12.78-.24,.69-.77,2.32,0,3.58,.45,.74,1.18,1.07,2.56,1.53,5.85,1.95,8.11,1.05,10.23,2.56,.25,.18,.85,.64,1.53,.51,.66-.12,1.09-.74,1.53-1.53,.91-1.62,1.35-3.01,1.53-3.58,1.32-4.13,1.66-4.45,2.05-4.6,.36-.14,.42,0,3.07,.51,1.6,.3,1.77,.29,2.05,.51,.94,.78,.45,2.32,.51,4.09,.08,2.25,1.02,5.4,3.07,6.65,2.02,1.23,4.28,.59,8.18-.51,3.32-.94,5.26-1.49,6.14-3.07,1.36-2.46-.82-5.67-2.56-9.2Zm-14.54-12.8c-.24,1.07-1.4,1.9-2.47,1.88-.77-.02-1.57-.11-2.29-.38-1.27-.46-2.21-1.74-1.79-3.15,.26-.86,.66-1.68,1.02-2.51,.09-.21,.22-.39,.37-.55,.37-.96,1.36-1.62,2.41-1.67,1.41-.06,2.51,1.22,2.56,2.56,0,.08,0,.14,0,.17,.01,.07,.02,.13,.04,.2,.06,.28,.12,.56,.17,.84,.16,.92,.18,1.69-.02,2.61Z"/>
    <path class="cls-1" d="M238.19,85.6c-.92-4.58-8.17-12.33-10.74-15.34-.39-.45-1.22-1.45-1.02-2.56,.12-.69,.59-1.15,1.02-1.53,1.94-1.72,3.34-2.15,4.6-3.07,1.56-1.13,2.27-2.53,3.07-4.09,.84-1.65,2-3.93,1.53-6.65-.41-2.37-1.86-3.89-3.07-5.11-2.74-2.79-5.8-3.83-8.18-4.6-4.47-1.46-7.76-1.31-14.32-1.02-1.69,.07-3.87,.24-6.14,1.53-.5,.28-1.77,1.01-2.56,2.05-2.05,2.7-.32,6.82,.51,10.23,0,0,1.81,7.41-1.02,30.68-.05,.41-.21,1.65,.51,2.56,.5,.62,1.21,.84,2.05,1.02,3.21,.71,5.68,.37,8.18,0,.62-.09,1.64-.26,2.56-1.02,.25-.21,.43-.41,.51-.51,1.3-1.61-.65-4.66,0-8.69,.2-1.22,.52-1.82,1.02-2.05,.77-.34,1.74,.31,2.05,.51,2.06,1.38,2.1,3.7,3.58,7.67,1.19,3.18,1.78,4.76,3.07,5.62,2.9,1.95,7.07,.18,8.69-.51,1.19-.51,3.61-1.53,4.09-3.58,.15-.62,.08-1.16,0-1.53Zm-17.13-25.28c-1.17,1.2-3.32,1.9-4.96,1.46-1.16-.31-2.06-1.25-2.31-2.43-.16-.75-.11-1.45-.1-2.2,0-.32,.07-.62,.18-.89,0-.06-.01-.11-.02-.17-.07-1.49,1.23-2.4,2.56-2.56,1.49-.17,3.11,.46,4.25,1.39,1.61,1.31,1.87,3.88,.4,5.4Z"/>
    <path class="cls-1" d="M239.34,43.45c-2.21,1.8,1.1,6.28-.51,11.76-.17,.59,.46,.71,1.02,1.53,.55,.8,1.74,.92,3.07,1.02,2.36,.19,1.73-.51,3.07-.51,1.53,0,4.98-.29,5.11,0,.83,1.82-.7,7.14-1.02,8.69-1.12,5.46-.69,5.82-1.53,13.3-.1,.93-.42,3.44,0,6.65,.29,2.27,.68,2.78,1.02,3.07,1.26,1.07,2.74-.09,6.65,0,2.83,.06,3.73,.71,4.6,0,1.29-1.05,.78-3.64,.51-5.11,0,0-1.78-9.65-.51-24.55,.07-.85,.25-2.63,1.53-3.58,.39-.29,1.15-.71,4.09-.51,4.01,.27,4.98,1.22,6.14,.51,.95-.59,1.15-1.92,1.53-4.6,.45-3.14,.78-5.42-.51-7.16-1-1.34-2.53-1.79-3.58-2.05-10.58-2.63-18.82,1.68-28.12,1.02-.68-.05-1.74-.15-2.56,.51Z"/>
  </g>
</svg>