<?xml version="1.0" encoding="UTF-8"?>
<svg id="Layer_2" data-name="Layer 2" xmlns="http://www.w3.org/2000/svg" viewBox="0 0 137 124">
  <defs>
    <style>
      .cls-1 {
        fill: #f9ae90;
      }

      .cls-2 {
        fill: #020202;
      }

      .cls-3 {
        fill: #fff;
      }

      .cls-4 {
        fill: #562142;
      }

      .cls-5 {
        fill: #7c375e;
      }
    </style>
  </defs>
  <path class="cls-4" d="M12.38,45.42l22.63-7.28c3.4-1.09,6.05-3.79,7.07-7.22l6.83-22.78c2.59-8.62,13.93-10.54,19.21-3.24l13.92,19.28c2.09,2.9,5.48,4.58,9.05,4.5l23.77-.54c9-.2,14.33,10,9.02,17.27l-14.03,19.2c-2.11,2.89-2.66,6.62-1.48,10l7.86,22.44c2.98,8.5-5.08,16.71-13.63,13.91l-22.59-7.41c-3.4-1.11-7.12-.49-9.97,1.68l-18.91,14.41c-7.16,5.45-17.47,.33-17.44-8.67l.06-23.78c0-3.57-1.74-6.92-4.68-8.96l-19.55-13.54c-7.4-5.12-5.72-16.51,2.85-19.27Z"/>
  <path class="cls-5" d="M18.39,47.05l20.12-6.47c3.02-.97,5.38-3.37,6.29-6.42l6.07-20.24c2.3-7.66,12.38-9.36,17.07-2.88l12.37,17.13c1.86,2.58,4.87,4.07,8.04,4l21.13-.48c8-.18,12.73,8.88,8.01,15.34l-12.47,17.06c-1.87,2.56-2.37,5.89-1.32,8.89l6.99,19.94c2.64,7.55-4.52,14.86-12.12,12.36l-20.08-6.59c-3.02-.99-6.33-.43-8.86,1.49l-16.81,12.81c-6.36,4.85-15.52,.3-15.5-7.7l.06-21.13c0-3.18-1.55-6.15-4.16-7.96l-17.38-12.03c-6.58-4.55-5.08-14.67,2.54-17.12Z"/>
  <path class="cls-1" d="M65.58,19.26c-2.29,4.52,12.33,24.67,12.34,24.68,0,0,1.01,.51,1.03,.51,1.51,.75,30.67-1.25,30.34-3.09-.04-.25-.72-.34-2.06-.51-3.67-.49-6.56,0-7.2,0-4.11,0-8.23,.51-13.88,0-4.7-.43-5.56-.91-9.26-5.14-3.97-4.55-7.85-10.83-8.74-14.4-.17-.69-.7-3.05-1.54-3.09-.5-.02-.91,.79-1.03,1.03Z"/>
  <path class="cls-1" d="M46.55,44.46s-7.64,1.01-7.71,1.03c-3.6,1.03-8.49,1.89-15.94,5.66-.62,.31-2.18,1.11-2.06,1.54,.03,.11,.26,.53,4.63,0,3.04-.37,5.06-.84,8.23-1.54,3.65-.81,7.15-2.25,10.8-3.09,.7-.16,2.21-.49,2.57-1.54,.26-.76-.2-1.59-.51-2.06"/>
  <g>
    <circle cx="56.84" cy="59.89" r="6.69"/>
    <circle class="cls-3" cx="58.89" cy="58.34" r="2.06"/>
  </g>
  <g>
    <circle cx="78.95" cy="56.29" r="6.69"/>
    <circle class="cls-3" cx="81" cy="54.74" r="2.06"/>
  </g>
  <path class="cls-2" d="M64.55,70.17c.39,1.16,3.49,4.34,7.2,3.6,3.4-.67,5.57-4.28,5.14-5.14-.17-.35-.51-.51-.51-.51-.47-.23-.97-.02-1.03,0-.61,.26-.7,.93-1.03,1.54-.59,1.12-1.92,1.94-3.09,2.06-1.39,.14-2.92-.67-3.6-1.54-.06-.07-.42-.55-1.03-1.03-.59-.47-.87-.51-1.03-.51-.37-.01-.82,.15-1.03,.51-.22,.39-.06,.84,0,1.03Z"/>
</svg>