<?xml version="1.0" encoding="UTF-8"?>
<svg id="Layer_5" data-name="Layer 5" xmlns="http://www.w3.org/2000/svg" viewBox="0 0 379 123">
  <defs>
    <style>
      .cls-1 {
        fill: #fff;
      }

      .cls-2 {
        fill: #4c263a;
      }

      .cls-3 {
        fill: #774060;
      }
    </style>
  </defs>
  <rect class="cls-2" x="35.96" y="3.72" width="310.84" height="116" rx="58" ry="58"/>
  <rect class="cls-3" x="45" y="14.59" width="290.93" height="94.25" rx="47.12" ry="47.12"/>
  <g>
    <path class="cls-1" d="M68.61,44.23c-1.71,1.39,.85,4.86-.4,9.09-.13,.46,.36,.55,.79,1.19,.42,.62,1.35,.71,2.37,.79,1.82,.15,1.34-.4,2.37-.4,1.19,0,3.85-.23,3.95,0,.64,1.4-.54,5.52-.79,6.72-.87,4.22-.54,4.5-1.19,10.28-.08,.72-.32,2.66,0,5.14,.23,1.75,.53,2.15,.79,2.37,.97,.83,2.12-.07,5.14,0,2.19,.05,2.88,.55,3.56,0,1-.81,.61-2.81,.4-3.95,0,0-1.38-7.46-.4-18.98,.06-.66,.2-2.03,1.19-2.77,.3-.22,.89-.55,3.16-.4,3.1,.21,3.85,.94,4.75,.4,.74-.45,.89-1.49,1.19-3.56,.35-2.43,.6-4.19-.4-5.54-.77-1.04-1.96-1.38-2.77-1.58-8.18-2.03-14.55,1.3-21.75,.79-.52-.04-1.35-.12-1.98,.4Z"/>
    <path class="cls-1" d="M199.5,69.14c-4.07-8.28-2.26-13.32-7.12-23.73-.5-1.07-1.36-2.83-3.16-3.56-3.05-1.24-6.72,1.3-7.12,1.58-1.33,.94-2.09,1.98-2.37,2.37-3.72,5.16-3.76,9.02-7.12,15.42-1.63,3.1-2.4,5.36-3.95,9.89-.18,.53-.6,1.79,0,2.77,.35,.57,.91,.83,1.98,1.19,4.52,1.51,6.27,.81,7.91,1.98,.19,.14,.66,.49,1.19,.4,.51-.1,.84-.57,1.19-1.19,.7-1.25,1.05-2.33,1.19-2.77,1.02-3.19,1.28-3.44,1.58-3.56,.28-.11,.33,0,2.37,.4,1.24,.24,1.37,.22,1.58,.4,.73,.6,.35,1.79,.4,3.16,.06,1.74,.79,4.18,2.37,5.14,1.57,.95,3.31,.46,6.33-.4,2.57-.73,4.07-1.15,4.75-2.37,1.05-1.9-.63-4.39-1.98-7.12Zm-11.24-9.89c-.18,.83-1.08,1.47-1.91,1.45-.6-.01-1.21-.09-1.77-.29-.98-.36-1.71-1.35-1.38-2.43,.2-.67,.51-1.3,.79-1.94,.07-.16,.17-.3,.29-.42,.28-.75,1.05-1.25,1.86-1.29,1.09-.05,1.94,.94,1.98,1.98,0,.06,0,.11,0,.13,0,.05,.02,.1,.03,.15,.04,.22,.09,.43,.13,.65,.12,.71,.14,1.31-.02,2.02Z"/>
    <path class="cls-1" d="M126.34,75.07c-.71-3.54-6.32-9.54-8.3-11.86-.3-.35-.94-1.12-.79-1.98,.09-.53,.46-.89,.79-1.19,1.5-1.33,2.58-1.66,3.56-2.37,1.21-.87,1.76-1.96,2.37-3.16,.65-1.27,1.55-3.04,1.19-5.14-.32-1.83-1.44-3.01-2.37-3.95-2.12-2.16-4.49-2.96-6.33-3.56-3.46-1.13-6-1.02-11.07-.79-1.31,.06-2.99,.19-4.75,1.19-.39,.22-1.37,.78-1.98,1.58-1.59,2.09-.25,5.27,.4,7.91,0,0,1.4,5.73-.79,23.73-.04,.32-.17,1.28,.4,1.98,.38,.48,.94,.65,1.58,.79,2.48,.55,4.39,.28,6.33,0,.48-.07,1.27-.2,1.98-.79,.19-.16,.33-.32,.4-.4,1.01-1.25-.5-3.61,0-6.72,.15-.95,.4-1.41,.79-1.58,.6-.26,1.35,.24,1.58,.4,1.59,1.07,1.62,2.86,2.77,5.93,.92,2.46,1.38,3.68,2.37,4.35,2.25,1.51,5.47,.14,6.72-.4,.92-.39,2.79-1.18,3.16-2.77,.11-.48,.06-.9,0-1.19Zm-13.24-19.55c-.9,.93-2.57,1.47-3.83,1.13-.9-.24-1.59-.97-1.78-1.88-.12-.58-.09-1.12-.08-1.7,0-.25,.06-.48,.14-.69,0-.04-.01-.09-.01-.13-.05-1.15,.95-1.86,1.98-1.98,1.15-.13,2.41,.36,3.28,1.07,1.24,1.01,1.45,3,.31,4.18Z"/>
    <path class="cls-1" d="M128.53,43.88c.89-.88,2.09-1,3.95-1.19,2.55-.26,4.02-.4,5.14,.4,2.62,1.86,.05,6.57,3.16,9.89,.1,.1,2,2.09,3.56,1.58,.47-.15,1.19-.61,2.37-4.75,1.25-4.35,.86-5.26,1.98-6.33,1.76-1.68,4.68-1.3,5.54-1.19,1.14,.15,2.98,.39,3.95,1.58,2.61,3.21-2.35,11.78-5.14,16.61-2.84,4.91-4.13,5.74-4.35,8.7-.28,3.71,1.49,5.86,0,8.3-1.37,2.25-4.25,2.69-4.75,2.77-1.95,.3-4.9-.05-6.33-1.98-1.35-1.83-.08-3.39-.4-9.09-.17-3.15-.26-4.73-1.19-6.33-1.67-2.88-3.7-2.17-5.93-5.14-1.79-2.37-2.05-4.91-2.37-7.91-.28-2.63-.49-4.66,.79-5.93Z"/>
    <path class="cls-1" d="M226.99,45.86c-1.79-3.54-7.34-4.89-11.47-4.35-7.22,.94-11.16,7.8-11.86,9.09-4.52,8.29-3.28,21.17,4.75,26.49,5.88,3.9,14.96,3.46,17,0,1.53-2.59,.06-8.48,1.58-11.07,.23-.39,.69-1.17,1.58-1.58,.93-.43,1.48-.07,1.98-.4,1.03-.68,.98-3.71-.4-5.54-2.35-3.12-8.87-3.08-11.86,0-1.21,1.24-2.31,3.46-1.58,4.75,.73,1.29,2.91,.93,3.16,1.98,.2,.81-.89,1.93-1.98,2.37-1.97,.8-4.59-.33-5.93-1.98-2.39-2.94-1.23-8.19,1.58-11.07,.4-.41,3.1-3.09,6.33-2.77,1.71,.17,2.31,1.07,3.95,.79,1.38-.23,2.95-1.19,3.56-2.77,.7-1.8-.19-3.55-.4-3.95Z"/>
    <path class="cls-1" d="M259.88,68.86c-4.07-8.28-2.26-13.32-7.12-23.73-.5-1.07-1.36-2.83-3.16-3.56-3.05-1.24-6.72,1.3-7.12,1.58-1.33,.94-2.09,1.98-2.37,2.37-3.72,5.16-3.76,9.02-7.12,15.42-1.63,3.1-2.4,5.36-3.95,9.89-.18,.53-.6,1.79,0,2.77,.35,.57,.91,.83,1.98,1.19,4.52,1.51,6.27,.81,7.91,1.98,.19,.14,.66,.49,1.19,.4,.51-.1,.84-.57,1.19-1.19,.7-1.25,1.05-2.33,1.19-2.77,1.02-3.19,1.28-3.44,1.58-3.56,.28-.11,.33,0,2.37,.4,1.24,.24,1.37,.22,1.58,.4,.73,.6,.35,1.79,.4,3.16,.06,1.74,.79,4.18,2.37,5.14,1.57,.95,3.31,.46,6.33-.4,2.57-.73,4.07-1.15,4.75-2.37,1.05-1.9-.63-4.39-1.98-7.12Zm-11.24-9.89c-.18,.83-1.08,1.47-1.91,1.45-.6-.01-1.21-.09-1.77-.29-.98-.36-1.71-1.35-1.38-2.43,.2-.67,.51-1.3,.79-1.94,.07-.16,.17-.3,.29-.42,.28-.75,1.05-1.25,1.86-1.29,1.09-.05,1.94,.94,1.98,1.98,0,.06,0,.11,0,.13,0,.05,.02,.1,.03,.15,.04,.22,.09,.43,.13,.65,.12,.71,.14,1.31-.02,2.02Z"/>
    <path class="cls-1" d="M266.14,43.09c-.4,.31-1.63,1.35-1.98,3.16-.26,1.35-.04,3.28,1.19,4.35,1.59,1.38,3.38,.06,4.75,1.19,1.32,1.09,.49,3.03,.4,7.51-.13,6.38,1.4,9.22-.4,10.68-1.23,.99-2.42,.06-3.56,1.19-1.65,1.64-1.23,5.72,.79,7.12,.73,.5,1.18,.32,3.56,.4,4.83,.14,5.87,.96,9.09,.4,1.52-.27,2.39-.43,3.16-1.19,1.66-1.62,1.81-4.87,.4-6.33-1.09-1.12-2.23-.26-3.56-1.19-1.28-.89-1.38-2.49-1.19-11.07,.12-5.09,.21-6.87,1.58-7.91,1.18-.89,2.26-.46,3.16-1.58,1.08-1.33,.93-3.62,0-5.14-1.12-1.83-3.2-2.27-5.54-2.77-1.98-.42-3.69-.28-7.12,0-3.1,.25-3.98,.6-4.75,1.19Z"/>
    <path class="cls-1" d="M289.86,77.49c1.87,1.44,5.27,1.87,7.91,.79,.7-.28,1.9-.78,2.77-1.98,1.52-2.11,.46-4.32,0-10.68-.25-3.47-.43-6.05,.4-6.33,.61-.21,1.37,1.01,4.75,5.14,3.23,3.95,3.13,3.58,3.56,4.35,2.39,4.32,.28,6.94,2.37,9.09,2.12,2.19,6.88,2.16,9.09,0,1.36-1.32,1.48-3.16,1.58-5.14,.64-12.3,.2-13.56-.4-24.52-.12-2.27-.24-4.67-1.98-5.93-1.72-1.25-4.59-1.05-6.33,.4-.46,.38-1.48,1.39-1.98,5.14-.76,5.72,.83,9.11,0,9.49-.96,.44-4.22-3.56-6.33-7.51-1.35-2.54-1.67-4.03-3.56-5.93-.94-.95-2.25-2.24-4.35-2.77-2.38-.6-5.43-.14-7.12,1.58-2.19,2.23-1.26,5.76-.79,10.28,1.53,14.69-3.72,21.33,.4,24.52Z"/>
  </g>
</svg>