<?xml version="1.0" encoding="UTF-8"?>
<svg id="Layer_5" data-name="Layer 5" xmlns="http://www.w3.org/2000/svg" viewBox="0 0 1600 900">
  <defs>
    <style>
      .cls-1 {
        fill: #f7c4db;
      }

      .cls-2 {
        fill: #f9ae90;
      }

      .cls-3 {
        fill: #020202;
      }

      .cls-4 {
        fill: #ef9cd1;
      }

      .cls-5 {
        fill: #fff;
      }

      .cls-6 {
        fill: #fffdfe;
      }

      .cls-7 {
        fill: #562142;
      }

      .cls-8 {
        fill: #7c375e;
      }
    </style>
  </defs>
  <g>
    <rect class="cls-1" x="-.75" y=".8" width="1602" height="898"/>
    <rect class="cls-4" x="220.25" y="124.02" width="1158" height="649.12" rx="114.35" ry="114.35"/>
  </g>
  <g>
    <path class="cls-7" d="M140.8,776.84c5.55,9.21,37.37,59.94,101.8,75.17,48.16,11.38,86.01-3.8,113.05-14.65,0,0,25.89-10.39,49.87-35.85,2.51-2.67,6.46-7.23,7.73-14.01,2.15-11.48-5.04-20.52-5.39-20.95-6.45-7.85-15.76-9.07-21.78-9.86-9.74-1.27-16.08,.88-22.83,2.09-16.78,3.03-30.66-.68-41.83-3.67-38.93-10.41-59.03-49.51-60.65-52.77-3.65-7.35-18.56-37.39-8.06-70.08,2.41-7.5,11.76-36.61,35.58-48.67,6.53-3.3,17.38-6.96,21.99-17.34,2.9-6.52,2.03-12.74,1.76-14.54-.13-.88-2.12-12.74-12.07-18.88-7.34-4.53-15.39-3.72-19.71-3.17-50.14,6.33-77.81,22.08-77.81,22.08-16.44,9.36-45.07,25.66-64.81,57.9-30.53,49.88-27.05,117.07,3.16,167.2Z"/>
    <path class="cls-8" d="M156.71,600.95c16.91-21.54,36.62-32.44,43.9-36.37,14.97-8.09,31.79-13.44,35.73-14.69,7.41-2.36,14.08-3.98,15.06-4.22,6.9-1.67,12-2.55,17.65-3.51,6.31-1.08,9.5-1.61,10.97-1.45,7.5,.83,15.84,6.33,17.77,14.32,.33,1.35,1.42,5.87-1.14,10.26-2.04,3.49-5.26,4.96-6.5,5.45-1.91,1.09-4.47,2.64-7.39,4.65-3.09,2.13-6.49,4.73-11.4,9.12-7.06,6.31-10.59,9.46-13.71,13.49-4.85,6.26-6.87,11.73-9.95,20.08-2.05,5.55-5.41,14.84-6.99,27.57-2.11,16.96,.16,30.25,1.04,34.78,6.9,35.41,30.7,56.71,35.6,60.93,16.11,13.89,32.52,19.52,41.15,22.4,11.27,3.75,21.18,5.36,28.37,6.1,8.91-.86,16.4-1.14,22.02-1.2,7.04-.08,10.53,.18,14.54,1.76,2.8,1.1,7.7,3.02,10.63,7.92,0,0,2.55,4.27,2.25,10.07-.76,14.58-22.7,27.05-32.22,32.34-19.52,10.84-36.46,14.95-39.92,15.77-18.48,4.35-47.64,11.21-80.52,3.54-69.14-16.14-99.72-83.73-102.63-90.41-17.67-40.7-12.56-76.89-11.39-84.34,1.66-10.52,6.3-37.88,27.08-64.34Z"/>
    <g>
      <circle cx="172.47" cy="720.7" r="15.37"/>
      <circle class="cls-5" cx="176.1" cy="716.04" r="4.73"/>
    </g>
    <g>
      <circle cx="219.37" cy="699.4" r="15.37"/>
      <circle class="cls-5" cx="223" cy="694.73" r="4.73"/>
    </g>
    <path class="cls-3" d="M200.97,744.95c2.02,2,11.61,5.46,18.34,.13,6.15-4.87,6.76-14.6,4.97-15.96-.72-.55-1.58-.54-1.58-.54-1.2,0-1.99,.95-2.08,1.05-.96,1.17-.44,2.66-.45,4.26-.02,2.94-1.83,5.99-4.07,7.44-2.66,1.72-6.6,1.59-8.9,.47-.19-.09-1.43-.71-3.16-1.09-1.69-.37-2.3-.17-2.62-.02-.76,.35-1.5,1.16-1.54,2.12-.04,1.03,.76,1.82,1.08,2.14Z"/>
  </g>
  <g>
    <path class="cls-5" d="M802.05,213.2c-3.05-7.83-6.32-16.21-15.11-22.33-5.57-3.88-12.62-5.19-26.73-7.82,0,0-5.32-.99-20.92,0-1.35,.09-4.17,.3-5.81,2.23-1.67,1.97-1.27,4.73-1.16,5.58,.73,5.79,2.86,42.28-2.32,65.88-.73,3.32-3.72,16.04,0,26.8,.53,1.54,1.44,3.71,3.49,5.58,4.19,3.83,10.32,3.81,16.27,3.35,17.37-1.34,26.05-2.01,34.86-7.82,13.43-8.85,17.77-21.92,19.75-27.91,6.6-19.9,.28-36.85-2.32-43.55Zm-29.89,32.3c-2.79,2.54-6.64,3.76-11.02,2.36-1.11-.36-2.25-1.08-3.07-2.02-1.06-.95-1.74-2.27-1.75-3.9-.04-4.76-.49-9.5-.28-14.25,.1-2.3,1.7-4.93,4.27-5.38,2.59-.46,5.24-.51,7.68,.15,2.21,.15,4.37,.57,6.31,1.72,3.74,2.23,5.39,6.45,5.22,10.55-.21,4.8-3.25,8.59-7.34,10.78Z"/>
    <path class="cls-6" d="M818.05,197.85c-1.01,.78-4.13,3.43-5,8-.65,3.42-.11,8.29,3,11,4.01,3.5,8.55,.15,12,3,3.33,2.75,1.24,7.66,1,19-.34,16.12,3.54,23.33-1,27-3.1,2.51-6.13,.14-9,3-4.17,4.15-3.11,14.47,2,18,1.84,1.27,2.98,.82,9,1,12.22,.37,14.85,2.44,23,1,3.85-.68,6.04-1.1,8-3,4.21-4.09,4.57-12.32,1-16-2.76-2.84-5.64-.67-9-3-3.23-2.24-3.49-6.3-3-28,.29-12.88,.52-17.36,4-20,2.98-2.26,5.71-1.17,8-4,2.72-3.36,2.34-9.15,0-13-2.82-4.64-8.08-5.75-14-7-5-1.06-9.33-.7-18,0-7.83,.64-10.07,1.51-12,3Z"/>
    <path class="cls-5" d="M933.09,222.93c-2.45-6.54-5.07-13.54-12.13-18.66-4.47-3.24-10.13-4.34-21.45-6.53,0,0-4.27-.83-16.79,0-1.08,.07-3.35,.25-4.66,1.87-1.34,1.65-1.02,3.95-.93,4.66,.59,4.84,2.29,35.32-1.87,55.03-.59,2.78-2.99,13.4,0,22.39,.43,1.28,1.15,3.1,2.8,4.66,3.36,3.2,8.28,3.18,13.06,2.8,13.94-1.12,20.91-1.68,27.98-6.53,10.78-7.39,14.26-18.31,15.86-23.32,5.3-16.62,.23-30.79-1.87-36.38Zm-24,26.98c-2.24,2.13-5.33,3.15-8.84,1.97-.89-.3-1.8-.9-2.47-1.68-.85-.79-1.39-1.89-1.41-3.26-.03-3.97-.4-7.93-.22-11.91,.08-1.92,1.37-4.12,3.42-4.5,2.08-.38,4.21-.42,6.16,.12,1.77,.13,3.51,.47,5.06,1.43,3,1.86,4.33,5.39,4.19,8.82-.17,4.01-2.61,7.17-5.89,9.01Z"/>
    <path class="cls-6" d="M988.38,186.8c-1.16,.89-4.71,3.91-5.71,9.13-.74,3.91-.12,9.46,3.42,12.55,4.58,4,9.76,.17,13.7,3.42,3.8,3.14,1.41,8.74,1.14,21.68-.39,18.4,4.04,26.62-1.14,30.81-3.54,2.86-7,.17-10.27,3.42-4.76,4.74-3.55,16.52,2.28,20.54,2.1,1.45,3.41,.94,10.27,1.14,13.95,.42,16.95,2.78,26.25,1.14,4.39-.77,6.89-1.25,9.13-3.42,4.8-4.66,5.21-14.06,1.14-18.26-3.15-3.25-6.44-.76-10.27-3.42-3.69-2.56-3.99-7.18-3.42-31.96,.33-14.7,.59-19.81,4.57-22.83,3.4-2.58,6.51-1.33,9.13-4.57,3.1-3.83,2.67-10.45,0-14.84-3.22-5.29-9.22-6.56-15.98-7.99-5.7-1.21-10.65-.8-20.54,0-8.94,.73-11.5,1.73-13.7,3.42Z"/>
    <path class="cls-5" d="M1058.61,199.19c-2.03,1.24-9.11,5.96-11.08,14.78-2.36,10.51,3.51,22.49,12.32,25.86,1.25,.48,8.07,3.09,12.32,0,2-1.45,3.14-3.95,4.93-3.69,1.35,.19,2.16,1.82,2.46,2.46,2.39,4.99-.45,11.6-1.23,13.55-3.45,8.55-6.5,24.14-1.23,32.02,4.86,7.26,18.22,10.12,25.86,4.93,6.39-4.34,7.15-13.17,7.39-16.01,.97-11.29-4.62-24.54-6.16-35.72-.2-1.43-.55-4.46,1.23-6.16,1.22-1.17,2.93-1.22,3.69-1.23,3.95-.07,5.75,2.72,9.85,4.93,1.22,.65,6.41,3.44,11.08,2.46,6.05-1.27,10.25-8.62,11.08-14.78,1.57-11.64-8.76-20.08-9.85-20.94-4.87-3.85-11.52-4.67-24.63-6.16-2.4-.27-15.64-1.7-33.25,0-8.22,.79-11.5,1.7-14.78,3.69Z"/>
    <path class="cls-5" d="M589.82,224.97c-1.21-1.64-14.14-18.57-35.41-17.1-1.4,.1-20.95,1.78-30.53,18.32-7.67,13.24-3.69,26.92-1.22,35.41,2.33,8.01,5.93,20.42,17.1,26.87,14.89,8.6,37.82,3.49,50.07-12.21,12.09-15.5,10.47-37.09,0-51.29Zm-17.7,28.35c-3,5.97-12.5,10.32-18.15,11.05-5.25,.68-9.82-2.49-10.09-7.99-.27-5.57,3.38-10.76,7.54-14.08,4.13-3.29,10.26-6.09,15.65-4.6,1.03,.29,2.45,.14,3.22,.69,2.5,.54,4.17,3.02,4.29,6.3,.12,3.19-.29,6.57-2.46,8.62Z"/>
    <path class="cls-5" d="M464.41,182.16c-4.68-4.88-13.96-6.12-20.94-2.99-9.97,4.47-13.06,16.85-11.97,25.43,.1,.82,1.73,12.22,10.47,17.95,4.14,2.71,8.7,3.39,17.95,8.98,1.55,.94,3.49,2.17,4.49,4.49,1.64,3.82-.41,7.96-1.5,10.47,0,0-4.23,9.76-4.49,23.94-.07,4.06-.28,15.51,7.48,22.44,8.93,7.98,25.53,7.35,31.42,0,2.75-3.43,1.69-6.49,0-29.92-1.33-18.42-.99-20.97,0-23.94,3.03-9.11,9.83-15.11,16.46-20.94,10.69-9.42,16.71-10.09,17.95-16.46,1.35-6.96-4.46-13.3-5.98-14.96-.42-.46-8.81-9.3-20.94-7.48-1.94,.29-11.65,2.01-14.96,8.98-1.77,3.74-.36,6.15-2.99,10.47-.66,1.08-3.74,6.13-7.48,5.98-3.72-.15-6.36-5.35-10.47-13.46-3.23-6.37-2.66-7.06-4.49-8.98Z"/>
    <path class="cls-5" d="M609.71,208.42c4.28-3.68,11.72-2.4,15.92-1.68,4.6,.79,10.04,1.73,12.57,5.87,.68,1.11,1.39,2.84,0,15.08-1.05,9.24-1.87,11.87,0,14.25,1.88,2.39,5.6,3.41,8.38,2.51,5.9-1.91,6.63-12.13,6.7-13.41,.48-8.1-3.69-10.79-1.68-15.92,1.83-4.66,6.91-6.64,9.22-7.54,6.38-2.49,16.23-2.61,20.11,2.51,3.5,4.61-.67,9.77-2.51,23.46-2.32,17.17,2.86,19.32,0,29.33-3.33,11.67-14.81,24.33-31.01,26.82-13.97,2.15-28.9-3.67-36.03-14.25-5.97-8.85-.04-11.47-3.35-43.58-1.25-12.15-2.9-19.52,1.68-23.46Z"/>
  </g>
  <path class="cls-5" d="M1224.25,175c-6.67-.27-12.26,2.18-15,4-16.65,11.06-5.3,50.17-1,65,.97,3.33,2.81,8.96,8,12,3.25,1.9,8.4,3.13,12,1,5.2-3.07,4.91-11.78,5-19,.47-36.98,11.22-53.18,2-60-3.65-2.7-9.07-2.92-11-3Z"/>
  <path class="cls-5" d="M1225.25,272c-6.2-1.99-14.92,.09-17,6-2.2,6.26,4.54,12.58,5,13,1.14,1.04,5.46,4.98,11,4,6.1-1.08,11.21-7.7,10-14-1.22-6.38-8.21-8.75-9-9Z"/>
  <g>
    <path class="cls-7" d="M1240.34,590.12l63.14,6.05c9.49,.91,18.82-2.91,24.95-10.21l40.77-48.59c15.43-18.39,45.26-11.1,50.47,12.34l13.77,61.92c2.07,9.31,8.59,17,17.43,20.57l58.81,23.77c22.26,9,24.55,39.62,3.87,51.81l-54.63,32.22c-8.21,4.84-13.51,13.42-14.18,22.93l-4.42,63.27c-1.67,23.95-30.09,35.59-48.08,19.68l-47.53-42c-7.14-6.31-16.94-8.71-26.19-6.4l-61.54,15.34c-23.3,5.81-43.14-17.62-33.58-39.65l25.25-58.18c3.8-8.75,3.05-18.8-2.01-26.89l-33.61-53.79c-12.72-20.36,3.42-46.48,27.32-44.19Z"/>
    <path class="cls-8" d="M1253.33,600.48l56.11,5.37c8.44,.81,16.73-2.59,22.17-9.08l36.24-43.18c13.72-16.35,40.22-9.87,44.85,10.96l12.23,55.03c1.84,8.27,7.63,15.11,15.49,18.28l52.26,21.12c19.78,7.99,21.81,35.21,3.43,46.05l-48.55,28.64c-7.3,4.3-12.01,11.93-12.6,20.38l-3.93,56.23c-1.49,21.29-26.74,31.63-42.73,17.5l-42.24-37.33c-6.35-5.61-15.05-7.74-23.28-5.69l-54.7,13.63c-20.71,5.16-38.34-15.66-29.84-35.23l22.45-51.71c3.37-7.77,2.71-16.71-1.78-23.89l-29.87-47.81c-11.31-18.1,3.05-41.3,24.29-39.27Z"/>
    <path class="cls-2" d="M1398.26,582.2c-10.37,8.66,4.17,73.45,4.18,73.5,0,0,1.94,2.3,1.98,2.35,2.9,3.44,76.45,29.31,77.58,24.47,.15-.65-1.4-1.58-4.5-3.43-8.47-5.06-16.06-6.92-17.64-7.6-10.08-4.34-20.7-7.42-34.01-14.65-11.07-6.01-12.67-8.11-17.25-22.37-4.92-15.32-7.8-34.81-6.22-44.5,.31-1.87,1.5-8.22-.52-9.19-1.2-.57-3.05,.97-3.61,1.43Z"/>
    <path class="cls-2" d="M1325.05,623.85s-19.78-5.6-19.98-5.62c-9.9-1.28-22.78-4.32-45.02-2.97-1.86,.11-6.51,.42-6.67,1.61-.04,.3,.08,1.58,11.34,4.88,7.85,2.3,13.28,3.29,21.78,4.91,9.81,1.87,19.89,2.02,29.71,3.84,1.88,.35,5.94,1.13,7.93-1.07,1.44-1.59,1.2-4.1,.91-5.58"/>
    <g>
      <circle cx="1333.97" cy="672.5" r="17.83"/>
      <circle class="cls-5" cx="1340.63" cy="670.89" r="5.49"/>
    </g>
    <g>
      <circle cx="1391.94" cy="687.02" r="17.83"/>
      <circle class="cls-5" cx="1398.6" cy="685.41" r="5.49"/>
    </g>
    <path class="cls-3" d="M1342.01,705.83c-.25,3.25,3.97,14.3,13.84,16.42,9.03,1.94,18.17-4.59,18.03-7.17-.06-1.04-.72-1.8-.72-1.8-.91-1.06-2.36-1.09-2.52-1.09-1.78,0-2.71,1.54-4.15,2.69-2.64,2.12-6.74,2.72-9.73,1.78-3.56-1.12-6.44-4.71-7.19-7.58-.06-.24-.46-1.79-1.43-3.61-.96-1.77-1.59-2.17-1.98-2.35-.89-.42-2.18-.49-3.06,.17-.94,.71-1.05,2-1.09,2.52Z"/>
  </g>
</svg>